<?xml version="1.0" encoding="UTF-8"?>
<!DOCTYPE svg PUBLIC "-//W3C//DTD SVG 1.1//EN" "http://www.w3.org/Graphics/SVG/1.1/DTD/svg11.dtd">
<!-- Creator: CorelDRAW X5 -->
<svg xmlns="http://www.w3.org/2000/svg" xml:space="preserve" width="100%" height="100%" style="shape-rendering:geometricPrecision; text-rendering:geometricPrecision; image-rendering:optimizeQuality; fill-rule:evenodd; clip-rule:evenodd"
viewBox="0 0 3.32478 4.75986"
 xmlns:xlink="http://www.w3.org/1999/xlink">
 <defs>
  <style type="text/css">
   <![CDATA[
    .fil1 {fill:#99CC33;fill-rule:nonzero}
    .fil0 {fill:#99E8F6;fill-rule:nonzero}
   ]]>
  </style>
 </defs>
 <g id="Layer_x0020_1">
  <metadata id="CorelCorpID_0Corel-Layer"/>
  <path class="fil0" d="M2.71096 0c-0.35152,0 -0.65973,0.16088 -0.73359,0.63691 0.02991,-0.05193 0.07959,-0.04653 0.07959,0.09426 0,-0.06751 -0.04968,-0.06507 -0.07959,-0.11405 -0.01363,0.6752 -0.42274,1.08881 -0.88224,1.11272 -0.03054,-0.05515 -0.01894,-0.08553 -0.09267,-0.117 0.01323,0.10841 0.00566,0.13161 -0.05312,0.13161 -0.2765,0 -0.59341,0.21947 -0.59341,0.52583 0,0.08164 0.00097,0.00827 0.00097,0.08991 0,-0.09705 -0.00097,0.06452 -0.00097,-0.02958 0,0.37091 0.21661,0.64126 0.53709,0.65372 0.09017,0.01785 0.06492,0.08041 0.05632,0.08041 -0.00825,0 0.09148,-0.06256 0.11258,-0.08041 -0.07481,0.05251 -0.10116,0.08648 0.00244,0.00873 0.29209,-0.02325 0.51999,-0.31107 0.55208,-0.66074 -0.05774,0.08626 -0.01881,0.11035 0.00488,0.08006 0.04146,0.01922 -0.01763,-0.06625 -0.01763,-0.08177 0,0.0941 -0.00992,-0.05563 -0.01063,0.04982 0.00071,-0.09596 0.01063,-0.02259 0.01063,-0.11015 0,0.09182 0.05661,0.10481 -0.03619,0.02011 0.03471,0.05775 0.05499,-0.03844 0.03991,-0.0695 -0.01757,-0.49379 0.47617,-0.83781 0.971,-1.03481 0.05715,0.18246 0.01837,0.07091 0.13255,0.07091 -0.01045,0 -0.04924,0.11155 0.00791,-0.07091 0.32292,0.04652 0.52145,-0.32616 0.52145,-0.45491 0,-0.5117 -0.18609,-0.73117 -0.52936,-0.73117zm-1.76162 2.73309l0 0c-0.23372,0 -0.34303,-0.25307 -0.34303,-0.30154 0,-0.25677 0.10931,-0.50984 0.34303,-0.50984 0.23407,0 0.46836,0.25307 0.46836,0.50984 0,0.04847 -0.23429,0.30154 -0.46836,0.30154zm1.76162 -1.70038l0 0c-0.23407,0 -0.46801,-0.25307 -0.46801,-0.30154 0,-0.25677 0.23394,-0.50985 0.46801,-0.50985 0.10944,0 0.34338,0.25308 0.34338,0.50985 0,0.04847 -0.23394,0.30154 -0.34338,0.30154z"/>
  <g id="_192813376">
   <path id="_192813280" class="fil1" d="M2.70742 3.4243c-0.02996,0.02679 -0.00506,-0.08041 0.00354,-0.08041 0.00789,0 -0.09185,0.1072 -0.07651,0.08041 -0.05041,0.03443 0.00468,-0.10984 -0.0645,-0.01917 -0.42105,-0.13992 -0.72426,-0.45926 -0.65387,-1.00675 -0.02517,0.0021 -0.11432,-0.00516 -0.0104,-0.11698 -0.11664,0.07799 -0.10816,-0.0039 -0.15957,0.07217 0.04747,-0.06878 -0.04599,0.07525 -0.04599,-0.08329 0,0.09099 0,0.09256 0,0.0617l0 -0.03848 0 0.03711c0,-0.06128 0.06264,0.08808 -0.00253,0.06432 0.01487,0.04411 0.03081,0.09414 0.0464,-0.06414l0.05774 0.11286 -0.03183 -0.05366 -0.02201 0.03219c0.01858,0.37829 -0.33657,0.63096 -0.72578,0.71771l0.05617 0.05423 -0.07199 -0.14568 0.01779 0.07155c0.04255,-0.07014 -0.04798,-0.00065 -0.07474,-0.00065 -0.05557,0 0.04283,0.09222 -0.04791,0.13054 -0.324,-0.16342 -0.51924,-0.28748 -0.63341,-0.51778 -0.09599,-0.02042 -0.05673,0.0598 -0.02561,-0.08734 -0.04496,-0.0247 0.04238,-0.09245 -0.05124,-0.11315 0.02667,0.08894 0.0169,0.09644 0.014,0.04448 0.04506,0.02777 0.02572,-0.10869 0.00345,-0.04401 -0.04506,0.05606 0.01101,-0.02514 0.04319,0.07532 -0.03276,-0.07522 -0.05573,-0.06569 -0.02985,-0.14675 -0.07792,0.03934 -0.02095,0.07135 -0.08825,0.08206 0.03602,-0.04358 -0.00088,-0.11194 0.02174,-0.12957 -0.05065,0.03848 0.05199,-0.12688 0.0134,-0.02177 -0.01912,0.02908 0.02833,0.05038 0.02833,-0.06076 0,-0.0751 0,0.05515 0,-0.01994l0 0.00592 0 -0.04631c0,-0.30831 0.35968,-0.78873 0.75216,-0.78873 0.04621,0 0.02437,0.14646 0.08084,0.07562 -0.04294,-0.0671 -0.05601,-0.20473 -0.03219,-0.008 -0.51175,-0.19275 -1.02077,0.34681 -0.9972,0.88004 0.08694,0.49397 0.38919,0.66696 0.90207,0.83101 0.09693,0.00343 0.05643,0.06325 0.17126,-0.00269 0.51937,-0.09455 0.89729,0.31423 0.97003,0.79776 0.00608,-0.17594 -0.02008,-0.08921 0.04581,-0.14753 -0.08785,0.09333 -0.033,0.12623 -0.033,0.17026 0,-0.1237 0.00956,0.00827 0.00992,-0.10951 -0.00036,0.11421 -0.00992,0.05564 -0.00992,-0.04142 0,0.196 0.00744,0.00795 0.00779,0.20396 -0.00035,-0.043 -0.00779,-0.0564 -0.00779,-0.09939 0,0.13605 -0.05768,-0.06567 -0.03997,-0.06687 0.03621,0.43231 0.28928,0.64502 0.49152,0.66727 0.06062,0.1108 0.16055,0.1278 0.20245,0.1278 0.34327,0 0.52936,-0.42185 0.52936,-0.7282 0,0.13476 0.11613,0.02569 0.01209,-0.05081 0.10404,0.13181 -0.01209,0.01978 -0.01209,-0.05376 0,0.07929 0.08446,0.10531 0.08446,0.1846 0,-0.06388 -0.08446,-0.17513 -0.08446,-0.03367 0,-0.37683 -0.15186,-0.64717 -0.5329,-0.65372zm0.00354 1.11128l0 0c-0.23407,0 -0.46801,-0.25011 -0.46801,-0.50688 0,-0.25677 0.23394,-0.30451 0.46801,-0.30451 0.10944,0 0.34338,0.04774 0.34338,0.30451 0,0.25677 -0.23394,0.50688 -0.34338,0.50688z"/>
   <path id="_192813496" class="fil1" d="M1.28462 1.5872c0.05592,-0.07874 -0.01564,-0.09613 -0.08435,-0.09536 0.09735,-0.07556 0.07256,0.04239 0.04563,-0.03317 -0.02969,-0.0536 0.06878,-0.0321 0.03872,0.12853z"/>
   <path id="_192813568" class="fil1" d="M1.78129 1.92342c-0.00212,0.10173 -0.00389,-0.00483 0.05156,0.0969 -0.05439,0.02961 -0.05049,0.03143 -0.04695,0.08585 -0.00177,-0.13134 -0.00319,-0.05141 -0.00461,-0.18275z"/>
  </g>
 </g>
</svg>
