<?xml version="1.0" encoding="utf-8"?>
<!-- Generator: Adobe Illustrator 17.1.0, SVG Export Plug-In . SVG Version: 6.00 Build 0)  -->
<!DOCTYPE svg PUBLIC "-//W3C//DTD SVG 1.1//EN" "http://www.w3.org/Graphics/SVG/1.1/DTD/svg11.dtd">
<svg version="1.1" id="Layer_1" xmlns="http://www.w3.org/2000/svg" xmlns:xlink="http://www.w3.org/1999/xlink" x="0px" y="0px"
	 viewBox="0 0 1440 1000" enable-background="new 0 0 1440 1000" xml:space="preserve">
<g>
	<g>
		<g>
			<path fill="#99CC33" d="M400.012,646.37c-61.702-176.442,31.647-370.186,208.089-431.887
				c67.069-23.454,138.465-25.379,206.473-5.567c18.388,5.357,28.952,24.604,23.595,42.994
				c-5.357,18.389-24.607,28.953-42.996,23.596c-54.054-15.747-110.826-14.21-164.177,4.447
				c-140.342,49.077-214.59,203.18-165.513,343.522s203.18,214.59,343.522,165.513s214.591-203.18,165.513-343.522
				c-6.322-18.08,3.208-37.86,21.288-44.183s37.86,3.208,44.183,21.288c61.702,176.442-31.647,370.186-208.089,431.887
				S461.713,822.812,400.012,646.37z"/>
		</g>
		<g>
			<g>
				<polygon fill="#99CC33" points="709.244,335.725 951.305,336.601 831.061,126.516 				"/>
			</g>
		</g>
	</g>
	<g>
		<path fill="#99CC33" d="M541.001,572.815c0.704,11.023,4.221,19.408,10.554,25.154c6.332,5.745,15.283,8.618,26.853,8.618
			c11.961,0,21.321-3.205,28.084-9.615c6.761-6.41,10.143-15.283,10.143-26.618c0-11.492-3.421-20.481-10.26-26.97
			c-6.841-6.488-16.32-9.734-28.436-9.734c-1.799,0-3.148,0.021-4.046,0.059c-0.9,0.041-1.7,0.059-2.403,0.059v-14.774
			c2.111,0.157,3.712,0.274,4.807,0.351c1.094,0.078,2.032,0.118,2.814,0.118c10.944,0,19.484-2.736,25.621-8.209
			c6.136-5.47,9.205-13.053,9.205-22.748c0-9.692-3.069-17.491-9.205-23.394c-6.138-5.902-14.247-8.853-24.332-8.853
			c-9.225,0-16.671,2.425-22.338,7.271c-5.669,4.847-9.049,11.649-10.143,20.403h-16.768c1.328-12.82,6.39-22.925,15.185-30.312
			c8.795-7.387,20.149-11.081,34.064-11.081c14.775,0,26.736,4.104,35.882,12.311c9.146,8.209,13.719,18.92,13.719,32.129
			c0,9.773-2.6,18.138-7.798,25.095c-5.2,6.959-12.488,11.883-21.869,14.774c10.396,3.517,18.428,9.03,24.097,16.534
			c5.667,7.503,8.501,16.495,8.501,26.97c0,15.243-4.925,27.421-14.774,36.526c-9.85,9.107-23.1,13.661-39.752,13.661
			c-16.34,0-29.16-4.123-38.461-12.37c-9.304-8.247-14.581-20.07-15.83-35.471L541.001,572.815z"/>
		<path fill="#99CC33" d="M696.84,521.573c4.533-2.891,9.048-5.06,13.544-6.508c4.494-1.445,9.126-2.169,13.896-2.169
			c14.696,0,26.695,4.906,35.999,14.716c9.302,9.812,13.954,22.534,13.954,38.17c0,16.26-5.258,29.49-15.772,39.691
			c-10.514,10.203-24.097,15.304-40.748,15.304c-15.948,0-28.652-4.769-38.11-14.307c-9.459-9.536-14.188-22.317-14.188-38.343
			c0-9.381,2.052-18.939,6.156-28.671c4.104-9.732,13.268-24.487,27.498-44.266l40.103-55.933l12.664,7.856L696.84,521.573z
			 M681.479,567.188c0,12.117,3.498,21.792,10.495,29.021c6.996,7.232,16.318,10.847,27.967,10.847
			c11.492,0,20.715-3.811,27.674-11.432c6.957-7.622,10.436-17.804,10.436-30.547c0-11.413-3.518-20.754-10.554-28.025
			c-7.036-7.27-16.143-10.904-27.322-10.904c-11.414,0-20.717,3.81-27.908,11.432C685.074,545.202,681.479,555.071,681.479,567.188z
			"/>
		<path fill="#99CC33" d="M858.309,620.541c-17.589,0-31.484-7.894-41.686-23.686c-10.201-15.789-15.302-37.524-15.302-65.197
			c0-27.751,5.101-49.543,15.302-65.373c10.201-15.83,24.253-23.745,42.155-23.745c17.824,0,31.797,7.876,41.921,23.628
			c10.123,15.753,15.185,37.583,15.185,65.491c0,28.142-5.062,49.992-15.185,65.548
			C890.574,612.763,876.444,620.541,858.309,620.541z M817.033,531.892c0,23.376,3.694,41.669,11.082,54.879
			c7.387,13.212,17.608,19.816,30.663,19.816c13.603,0,23.922-6.371,30.957-19.113c7.036-12.741,10.553-31.426,10.553-56.051
			c0-24.311-3.576-42.877-10.729-55.698c-7.153-12.821-17.571-19.231-31.25-19.231c-12.898,0-23.003,6.665-30.312,19.993
			C820.687,489.816,817.033,508.284,817.033,531.892z"/>
	</g>
</g>
</svg>
