<?xml version="1.0" encoding="utf-8"?>
<!-- Generator: Adobe Illustrator 17.1.0, SVG Export Plug-In . SVG Version: 6.00 Build 0)  -->
<!DOCTYPE svg PUBLIC "-//W3C//DTD SVG 1.1//EN" "http://www.w3.org/Graphics/SVG/1.1/DTD/svg11.dtd">
<svg version="1.1" id="Layer_1" xmlns="http://www.w3.org/2000/svg" xmlns:xlink="http://www.w3.org/1999/xlink" x="0px" y="0px"
	 viewBox="0 0 1440 1000" enable-background="new 0 0 1440 1000" xml:space="preserve">
<g>
	<path fill="#99CC33" d="M741.705,582.415c-0.109,1.524-0.196,3.054-0.196,4.606c0,0.102,0.012,0.202,0.012,0.304
		c0,0.1-0.012,0.198-0.012,0.299c0,1.513,0.084,3.004,0.188,4.491c-2.829,57.766-50.55,103.736-109.018,103.736
		c-36.347,0-65.813,29.466-65.813,65.814c0,36.348,29.466,65.813,65.813,65.813c34.648,0,63.022-26.78,65.602-60.767
		c0.127-1.668,0.212-3.347,0.212-5.047s-0.085-3.379-0.212-5.047c2.516-55.276,46.166-99.732,101.045-103.719
		c2.626,0.319,5.283,0.539,7.996,0.539c36.348,0,65.813-29.466,65.813-65.813c0-0.099-0.014-0.195-0.015-0.294
		c0-0.104,0.015-0.204,0.015-0.308c0-34.647-26.779-63.021-60.766-65.602c-1.668-0.126-3.347-0.212-5.047-0.212
		c-1.7,0-3.38,0.085-5.047,0.212c-56.199-2.558-101.306-47.61-103.974-103.78c0.11-1.541,0.192-3.089,0.192-4.659
		c0-0.1-0.013-0.198-0.013-0.299c0.001-0.102,0.013-0.201,0.013-0.303c0-1.609-0.085-3.196-0.2-4.775
		c2.528-55.511,46.501-100.211,101.712-103.866c2.404,0.266,4.843,0.414,7.318,0.414s4.914-0.148,7.318-0.414
		c32.902-3.642,58.495-31.526,58.495-65.399c0-36.348-29.465-65.813-65.813-65.813c-34.648,0-63.021,26.78-65.602,60.767
		c-0.127,1.668-0.212,3.347-0.212,5.047s0.085,3.379,0.212,5.047c-2.516,55.276-46.165,99.732-101.045,103.719
		c-2.627-0.319-5.283-0.538-7.996-0.538c-36.347,0-65.813,29.466-65.813,65.813c0,0.103,0.014,0.202,0.014,0.304
		c0,0.101-0.014,0.197-0.014,0.298c0,34.648,26.78,63.021,60.767,65.602c1.668,0.127,3.347,0.212,5.047,0.212
		c1.7,0,3.379-0.085,5.047-0.212C693.942,481.14,739.064,526.219,741.705,582.415z M765.687,238.337
		c0-22.994,18.641-41.635,41.635-41.635c22.994,0,41.635,18.641,41.635,41.635s-18.641,41.635-41.635,41.635
		C784.327,279.972,765.687,261.331,765.687,238.337z M674.314,412.723c0,22.994-18.641,41.635-41.635,41.635
		c-22.994,0-41.635-18.64-41.635-41.635s18.641-41.635,41.635-41.635C655.673,371.088,674.314,389.729,674.314,412.723z
		 M674.314,761.663c0,22.994-18.641,41.635-41.635,41.635c-22.994,0-41.635-18.641-41.635-41.635s18.641-41.635,41.635-41.635
		C655.673,720.028,674.314,738.669,674.314,761.663z M765.687,588.05c0-22.994,18.641-41.635,41.635-41.635
		c22.994,0,41.635,18.64,41.635,41.635c0,22.994-18.641,41.635-41.635,41.635C784.327,629.685,765.687,611.044,765.687,588.05z"/>
</g>
</svg>
