<?xml version="1.0" encoding="utf-8"?>
<!-- Generator: Adobe Illustrator 17.1.0, SVG Export Plug-In . SVG Version: 6.00 Build 0)  -->
<!DOCTYPE svg PUBLIC "-//W3C//DTD SVG 1.1//EN" "http://www.w3.org/Graphics/SVG/1.1/DTD/svg11.dtd">
<svg version="1.1" id="Layer_1" xmlns="http://www.w3.org/2000/svg" xmlns:xlink="http://www.w3.org/1999/xlink" x="0px" y="0px"
	 viewBox="0 0 1440 1000" enable-background="new 0 0 1440 1000" xml:space="preserve">
<g>
	<path fill="#99CC33" d="M533.484,215.502c-15.452,26.763-7.95,60.47,16.385,78.356c1.778,1.307,3.638,2.537,5.593,3.666
		c1.955,1.129,3.951,2.124,5.971,3.011c42.01,28.111,56.355,83.6,32.898,128.646c-0.882,1.286-1.734,2.602-2.527,3.975
		c-0.758,1.314-1.443,2.649-2.091,3.993c-28.557,44.446-87.302,59.045-133.54,32.349c-28.719-16.581-65.441-6.741-82.022,21.978
		c-16.581,28.719-6.741,65.441,21.978,82.022c27.375,15.805,62.01,7.59,79.552-18.087c0.861-1.26,1.694-2.548,2.469-3.891
		c0.775-1.343,1.474-2.709,2.135-4.084c27.693-43.292,83.977-58.373,129.606-34.728c1.26,0.861,2.548,1.694,3.891,2.469
		s2.709,1.474,4.084,2.135c28.03,13.465,62.132,3.263,77.938-24.112c15.805-27.375,7.59-62.009-18.086-79.552
		c-1.26-0.861-2.548-1.694-3.891-2.47c-1.343-0.776-2.709-1.474-4.085-2.135c-43.292-27.693-58.373-83.977-34.727-129.606
		c0.861-1.26,1.694-2.548,2.469-3.891c0.776-1.343,1.474-2.709,2.135-4.084c13.465-28.03,3.263-62.132-24.112-77.938
		C586.787,176.944,550.065,186.783,533.484,215.502z"/>
	<path fill="#99CC33" d="M560.667,814.53c30.904,0,56.343-23.35,59.666-53.367c0.243-2.193,0.378-4.419,0.378-6.677
		c0-2.258-0.136-4.483-0.378-6.677c3.34-50.438,44.222-90.605,94.962-92.813c1.555,0.121,3.12,0.201,4.706,0.201
		c1.517,0,3.015-0.075,4.504-0.186c52.77,2.508,94.785,46.083,94.785,99.475c0,33.161,26.883,60.044,60.044,60.044
		c33.161,0,60.044-26.883,60.044-60.044c0-31.61-24.432-57.497-55.44-59.851c-1.521-0.115-3.053-0.193-4.604-0.193
		c-1.551,0-3.083,0.078-4.604,0.193c-51.339-2.337-92.541-43.539-94.878-94.878c0.116-1.521,0.193-3.053,0.193-4.604
		c0-1.551-0.078-3.083-0.193-4.604c-2.354-31.008-28.24-55.44-59.851-55.44c-31.61,0-57.496,24.432-59.851,55.439
		c-0.115,1.522-0.193,3.054-0.193,4.605c0,1.551,0.078,3.083,0.193,4.605c-2.337,51.339-43.539,92.541-94.878,94.877
		c-1.521-0.115-3.053-0.193-4.604-0.193c-1.551,0-3.083,0.078-4.604,0.193c-31.008,2.354-55.44,28.24-55.44,59.851
		C500.623,787.647,527.506,814.53,560.667,814.53z"/>
	<path fill="#99CC33" d="M1065.849,491.475c-15.452-26.763-48.393-37.12-76.05-24.988c-2.021,0.886-4.016,1.882-5.971,3.011
		c-1.955,1.129-3.815,2.359-5.593,3.666c-45.35,22.327-100.578,7.005-127.86-35.833c-0.673-1.407-1.386-2.803-2.179-4.176
		c-0.758-1.314-1.573-2.574-2.413-3.808c-24.213-46.955-7.483-105.128,38.755-131.824c28.719-16.581,38.558-53.303,21.978-82.022
		c-16.581-28.719-53.303-38.558-82.022-21.978c-27.375,15.805-37.578,49.907-24.112,77.938c0.661,1.375,1.359,2.741,2.135,4.084
		c0.775,1.343,1.609,2.631,2.469,3.891c23.646,45.629,8.565,101.913-34.728,129.606c-1.375,0.661-2.741,1.359-4.084,2.135
		c-1.343,0.775-2.631,1.609-3.891,2.469c-25.676,17.542-33.892,52.177-18.087,79.552c15.805,27.375,49.907,37.577,77.937,24.113
		c1.375-0.661,2.741-1.359,4.084-2.135s2.631-1.609,3.891-2.47c45.629-23.645,101.912-8.564,129.605,34.728
		c0.661,1.375,1.359,2.741,2.135,4.084c0.775,1.343,1.609,2.631,2.469,3.891c17.542,25.676,52.177,33.892,79.552,18.087
		C1072.59,556.916,1082.43,520.194,1065.849,491.475z"/>
</g>
</svg>
