<?xml version="1.0" encoding="utf-8"?>
<!-- Generator: Adobe Illustrator 17.1.0, SVG Export Plug-In . SVG Version: 6.00 Build 0)  -->
<!DOCTYPE svg PUBLIC "-//W3C//DTD SVG 1.1//EN" "http://www.w3.org/Graphics/SVG/1.1/DTD/svg11.dtd">
<svg version="1.1" id="Layer_1" xmlns="http://www.w3.org/2000/svg" xmlns:xlink="http://www.w3.org/1999/xlink" x="0px" y="0px"
	 viewBox="0 0 1440 1000" enable-background="new 0 0 1440 1000" xml:space="preserve">
<g>
	<path fill="#99CC33" d="M736.92,564.247c-0.085,1.188-0.153,2.381-0.153,3.59c0,0.08,0.009,0.157,0.01,0.237
		c0,0.078-0.01,0.154-0.01,0.233c0,1.179,0.066,2.342,0.147,3.501c-2.205,45.032-39.407,80.868-84.986,80.868
		c-28.335,0-51.305,22.97-51.305,51.306s22.97,51.305,51.305,51.305c27.01,0,49.129-20.876,51.14-47.371
		c0.099-1.3,0.165-2.609,0.165-3.934s-0.066-2.634-0.165-3.934c1.961-43.091,35.989-77.747,78.771-80.855
		c2.047,0.249,4.119,0.42,6.233,0.42c28.335,0,51.305-22.97,51.305-51.305c0-0.077-0.011-0.152-0.011-0.229
		c0-0.081,0.011-0.159,0.011-0.24c0-27.01-20.876-49.128-47.371-51.14c-1.3-0.099-2.609-0.165-3.935-0.165
		c-1.326,0-2.635,0.066-3.935,0.165c-43.81-1.994-78.974-37.115-81.054-80.903c0.086-1.201,0.15-2.408,0.15-3.632
		c0-0.078-0.01-0.154-0.01-0.233c0.001-0.08,0.01-0.157,0.01-0.237c0-1.254-0.066-2.491-0.156-3.723
		c1.971-43.274,36.25-78.12,79.29-80.97c1.874,0.207,3.776,0.323,5.705,0.323c1.929,0,3.831-0.116,5.705-0.323
		c25.649-2.839,45.6-24.576,45.6-50.982c0-28.335-22.97-51.305-51.305-51.305c-27.01,0-49.129,20.876-51.14,47.371
		c-0.099,1.3-0.165,2.609-0.165,3.934c0,1.325,0.066,2.634,0.165,3.934c-1.961,43.091-35.989,77.747-78.771,80.855
		c-2.048-0.249-4.119-0.42-6.234-0.42c-28.335,0-51.305,22.97-51.305,51.305c0,0.08,0.011,0.157,0.011,0.237
		c0,0.078-0.011,0.154-0.011,0.232c0,27.01,20.876,49.129,47.371,51.14c1.3,0.099,2.609,0.165,3.934,0.165
		c1.325,0,2.634-0.066,3.934-0.165C699.687,485.298,734.861,520.439,736.92,564.247z M755.615,296.018
		c0-17.925,14.531-32.457,32.457-32.457s32.457,14.531,32.457,32.457s-14.531,32.457-32.457,32.457S755.615,313.944,755.615,296.018
		z M684.385,431.963c0,17.925-14.531,32.457-32.457,32.457s-32.457-14.531-32.457-32.457s14.531-32.457,32.457-32.457
		S684.385,414.037,684.385,431.963z M684.385,703.982c0,17.925-14.531,32.457-32.457,32.457c-17.925,0-32.457-14.531-32.457-32.457
		s14.531-32.457,32.457-32.457C669.853,671.525,684.385,686.056,684.385,703.982z M755.615,568.64
		c0-17.925,14.531-32.457,32.457-32.457s32.457,14.531,32.457,32.457c0,17.925-14.531,32.457-32.457,32.457
		S755.615,586.566,755.615,568.64z"/>
</g>
</svg>
