<?xml version="1.0" encoding="utf-8"?>
<!-- Generator: Adobe Illustrator 17.1.0, SVG Export Plug-In . SVG Version: 6.00 Build 0)  -->
<!DOCTYPE svg PUBLIC "-//W3C//DTD SVG 1.1//EN" "http://www.w3.org/Graphics/SVG/1.1/DTD/svg11.dtd">
<svg version="1.1" id="Layer_1" xmlns="http://www.w3.org/2000/svg" xmlns:xlink="http://www.w3.org/1999/xlink" x="0px" y="0px"
	 viewBox="0 0 1440 1000" enable-background="new 0 0 1440 1000" xml:space="preserve">
<g>
	<g>
		<path fill="#99CC33" d="M966.733,457.037c0-63.66-51.607-115.267-115.267-115.267c-17.472,0-33.971,4-48.809,10.957
			c-34.06-52.017-92.814-86.405-159.631-86.405c-105.329,0-190.715,85.386-190.715,190.715c0,0.586,0.039,1.163,0.044,1.748
			c-66.442,10.104-117.407,67.31-117.407,136.573c0,76.392,61.928,138.321,138.32,138.321c0,0,485.593,0,493.466,0
			c76.392,0,138.321-61.929,138.321-138.321S1043.125,457.037,966.733,457.037 M712.901,696.696l-9.025-28.909
			c-67.566-2.327-121.814-58.019-121.814-126.142c0-26.236,8.006-51.411,23.15-72.813l4.097-5.79l36.749,26l-4.097,5.783
			c-9.738,13.762-14.884,29.955-14.884,46.819c0,38.107,26.007,70.312,62.063,78.942l-6.465-20.716l98.958,22.239L712.901,696.696z
			 M811.343,614.457l-4.097,5.79l-36.749-26l4.097-5.79c9.734-13.755,14.88-29.941,14.88-46.813
			c0-38.107-26.007-70.305-62.06-78.935l6.465,20.716l-98.955-22.246l68.73-74.593l9.025,28.923
			c67.563,2.327,121.814,58.019,121.814,126.135C834.493,567.88,826.486,593.056,811.343,614.457z"/>
	</g>
</g>
</svg>
