<?xml version="1.0" encoding="utf-8"?>
<!-- Generator: Adobe Illustrator 17.1.0, SVG Export Plug-In . SVG Version: 6.00 Build 0)  -->
<!DOCTYPE svg PUBLIC "-//W3C//DTD SVG 1.1//EN" "http://www.w3.org/Graphics/SVG/1.1/DTD/svg11.dtd">
<svg version="1.1" id="Layer_1" xmlns="http://www.w3.org/2000/svg" xmlns:xlink="http://www.w3.org/1999/xlink" x="0px" y="0px"
	 viewBox="0 0 1440 1000" enable-background="new 0 0 1440 1000" xml:space="preserve">
<g>
	<path fill="#99CC33" d="M586.736,525.503l-22.491-41.965C569.719,498.676,577.34,512.783,586.736,525.503z"/>
	<path fill="#99CC33" d="M864.486,346.35c-28.352-50.54-82.414-84.714-144.486-84.714s-116.134,34.174-144.486,84.714
		c-13.42,23.923-21.106,51.496-21.106,80.878c0,19.773,3.479,38.73,9.836,56.31l22.491,41.965l105.021,195.954
		c12.082,22.542,44.405,22.542,56.486,0l105.021-195.954c9.396-12.72,17.017-26.826,22.491-41.965
		c6.357-17.58,9.836-36.537,9.836-56.31C885.592,397.846,877.906,370.273,864.486,346.35z M720,345.472
		c45.153,0,81.756,36.603,81.756,81.756c0,45.152-36.603,81.756-81.756,81.756s-81.756-36.604-81.756-81.756
		C638.244,382.075,674.847,345.472,720,345.472z"/>
</g>
</svg>
