<?xml version="1.0" encoding="utf-8"?>
<!-- Generator: Adobe Illustrator 17.1.0, SVG Export Plug-In . SVG Version: 6.00 Build 0)  -->
<!DOCTYPE svg PUBLIC "-//W3C//DTD SVG 1.1//EN" "http://www.w3.org/Graphics/SVG/1.1/DTD/svg11.dtd">
<svg version="1.1" id="Layer_1" xmlns="http://www.w3.org/2000/svg" xmlns:xlink="http://www.w3.org/1999/xlink" x="0px" y="0px"
	 viewBox="0 0 1440 1000" enable-background="new 0 0 1440 1000" xml:space="preserve">
<g>
	<path fill="#282828" d="M738.463,570.105c-0.093,1.297-0.167,2.598-0.167,3.918c0,0.087,0.01,0.172,0.011,0.258
		c0,0.085-0.011,0.169-0.011,0.254c0,1.287,0.072,2.556,0.16,3.82c-2.406,49.138-43,88.242-92.735,88.242
		c-30.919,0-55.983,25.065-55.983,55.984s25.065,55.983,55.983,55.983c29.473,0,53.609-22.78,55.803-51.691
		c0.108-1.419,0.18-2.847,0.18-4.293s-0.073-2.875-0.18-4.293c2.14-47.02,39.271-84.836,85.953-88.228
		c2.234,0.271,4.494,0.458,6.802,0.458c30.919,0,55.983-25.065,55.983-55.983c0-0.084-0.012-0.165-0.012-0.25
		c0-0.088,0.012-0.174,0.012-0.262c0-29.472-22.78-53.608-51.69-55.803c-1.419-0.108-2.847-0.18-4.293-0.18
		c-1.446,0-2.875,0.073-4.294,0.18c-47.805-2.176-86.175-40.499-88.444-88.28c0.094-1.311,0.163-2.628,0.163-3.963
		c0-0.085-0.011-0.168-0.011-0.254c0.001-0.087,0.011-0.171,0.011-0.258c0-1.368-0.072-2.718-0.17-4.062
		c2.151-47.22,39.556-85.243,86.52-88.353c2.045,0.226,4.12,0.353,6.225,0.353s4.18-0.126,6.225-0.353
		c27.987-3.098,49.758-26.817,49.758-55.631c0-30.919-25.064-55.984-55.983-55.984c-29.473,0-53.608,22.78-55.803,51.691
		c-0.108,1.419-0.18,2.847-0.18,4.293c0,1.446,0.072,2.874,0.18,4.293c-2.14,47.02-39.27,84.836-85.953,88.228
		c-2.234-0.271-4.494-0.458-6.802-0.458c-30.919,0-55.983,25.065-55.983,55.983c0,0.087,0.012,0.171,0.012,0.259
		c0,0.086-0.012,0.168-0.012,0.253c0,29.473,22.78,53.608,51.691,55.803c1.419,0.108,2.847,0.18,4.293,0.18
		c1.446,0,2.875-0.072,4.293-0.18C697.834,483.957,736.216,522.303,738.463,570.105z"/>
</g>
</svg>
