<?xml version="1.0" encoding="utf-8"?>
<!-- Generator: Adobe Illustrator 17.1.0, SVG Export Plug-In . SVG Version: 6.00 Build 0)  -->
<!DOCTYPE svg PUBLIC "-//W3C//DTD SVG 1.1//EN" "http://www.w3.org/Graphics/SVG/1.1/DTD/svg11.dtd">
<svg version="1.1" id="Layer_1" xmlns="http://www.w3.org/2000/svg" xmlns:xlink="http://www.w3.org/1999/xlink" x="0px" y="0px"
	 viewBox="0 0 1440 1000" enable-background="new 0 0 1440 1000" xml:space="preserve">
<g>
	<path fill="#282828" d="M988.068,264.945c-51.993,0-94.794,39.285-100.384,89.788c-0.408,3.69-0.636,7.434-0.636,11.233
		s0.228,7.543,0.636,11.233c-5.619,84.858-74.402,152.438-159.767,156.153c-2.615-0.203-5.25-0.338-7.917-0.338
		c-2.552,0-5.073,0.126-7.577,0.312c-88.783-4.22-159.47-77.532-159.47-167.36c0-55.792-45.229-101.021-101.021-101.021
		c-55.792,0-101.021,45.229-101.021,101.021c0,53.183,41.106,96.735,93.274,100.695c2.56,0.194,5.137,0.325,7.746,0.325
		s5.187-0.131,7.746-0.325c86.375,3.932,155.695,73.252,159.627,159.627c-0.194,2.56-0.325,5.137-0.325,7.746
		s0.131,5.187,0.325,7.746c3.96,52.169,47.513,93.274,100.695,93.274c53.182,0,96.734-41.105,100.695-93.273
		c0.194-2.56,0.325-5.138,0.325-7.747s-0.131-5.187-0.325-7.747c3.932-86.374,73.252-155.694,159.627-159.626
		c2.56,0.194,5.137,0.325,7.746,0.325s5.187-0.131,7.746-0.325c52.169-3.96,93.274-47.513,93.274-100.695
		C1089.089,310.174,1043.86,264.945,988.068,264.945z"/>
	<path fill="#282828" d="M720,273.332c-55.792,0-101.021,45.229-101.021,101.021S664.208,475.373,720,475.373
		s101.021-45.229,101.021-101.021S775.792,273.332,720,273.332z M761.221,446.82c-12.115,7.092-26.17,11.228-41.221,11.228
		c-15.051,0-29.106-4.135-41.221-11.228c-15.236-8.92-27.339-22.605-34.236-39.016h150.914
		C788.56,424.215,776.457,437.9,761.221,446.82z"/>
</g>
</svg>
