<?xml version="1.0" encoding="utf-8"?>
<!-- Generator: Adobe Illustrator 17.1.0, SVG Export Plug-In . SVG Version: 6.00 Build 0)  -->
<!DOCTYPE svg PUBLIC "-//W3C//DTD SVG 1.1//EN" "http://www.w3.org/Graphics/SVG/1.1/DTD/svg11.dtd">
<svg version="1.1" id="Layer_1" xmlns="http://www.w3.org/2000/svg" xmlns:xlink="http://www.w3.org/1999/xlink" x="0px" y="0px"
	 viewBox="0 0 1440 1000" enable-background="new 0 0 1440 1000" xml:space="preserve">
<g>
	<radialGradient id="SVGID_1_" cx="720" cy="500" r="765.3091" gradientUnits="userSpaceOnUse">
		<stop  offset="0" style="stop-color:#65DAEB"/>
		<stop  offset="1" style="stop-color:#18B7CF"/>
	</radialGradient>
	<path fill="url(#SVGID_1_)" d="M1700.963,403.008c-23.073,0-44.264,8.057-60.914,21.511
		c-51.866,41.91-116.154,65.443-182.837,65.443h-2.975c-66.342,0-130.893-22.599-182.068-64.817
		c-0.436-0.36-0.877-0.714-1.319-1.066c-0.161-0.128-0.322-0.256-0.484-0.383c-0.496-0.39-0.995-0.776-1.499-1.156
		c-0.22-0.166-0.443-0.328-0.664-0.492c-0.368-0.273-0.737-0.545-1.109-0.813c-0.25-0.18-0.502-0.357-0.754-0.534
		c-0.351-0.247-0.702-0.494-1.056-0.736c-0.26-0.178-0.521-0.355-0.783-0.531c-0.355-0.239-0.712-0.475-1.071-0.709
		c-0.26-0.17-0.521-0.34-0.783-0.507c-0.375-0.239-0.752-0.475-1.129-0.709c-0.249-0.154-0.496-0.31-0.746-0.462
		c-0.432-0.263-0.868-0.519-1.305-0.775c-0.199-0.117-0.396-0.236-0.596-0.352c-0.63-0.364-1.265-0.721-1.904-1.07
		c-0.171-0.094-0.345-0.183-0.517-0.276c-0.478-0.258-0.957-0.513-1.439-0.763c-0.25-0.129-0.502-0.255-0.752-0.382
		c-0.411-0.208-0.822-0.415-1.236-0.617c-0.272-0.133-0.546-0.263-0.819-0.394c-0.4-0.191-0.801-0.379-1.204-0.565
		c-0.279-0.128-0.559-0.256-0.839-0.382c-0.408-0.183-0.817-0.362-1.228-0.54c-0.275-0.119-0.55-0.238-0.827-0.355
		c-0.44-0.185-0.882-0.365-1.325-0.544c-0.248-0.1-0.494-0.202-0.743-0.3c-0.583-0.23-1.169-0.452-1.756-0.671
		c-0.111-0.041-0.221-0.085-0.332-0.126c-0.698-0.256-1.399-0.504-2.104-0.745c-0.223-0.076-0.448-0.148-0.671-0.222
		c-0.488-0.162-0.976-0.324-1.467-0.479c-0.275-0.087-0.552-0.17-0.828-0.254c-0.446-0.136-0.891-0.271-1.34-0.401
		c-0.292-0.085-0.585-0.167-0.879-0.249c-0.44-0.123-0.881-0.243-1.323-0.36c-0.295-0.078-0.589-0.155-0.885-0.23
		c-0.456-0.116-0.914-0.227-1.373-0.337c-0.281-0.067-0.561-0.135-0.842-0.2c-0.515-0.118-1.032-0.229-1.551-0.339
		c-0.226-0.048-0.451-0.099-0.677-0.145c-0.744-0.152-1.491-0.297-2.241-0.431c-0.115-0.021-0.232-0.038-0.347-0.059
		c-0.636-0.112-1.274-0.219-1.914-0.319c-0.264-0.041-0.53-0.077-0.795-0.116c-0.496-0.073-0.992-0.144-1.491-0.21
		c-0.299-0.039-0.599-0.075-0.899-0.112c-0.47-0.057-0.941-0.112-1.413-0.162c-0.309-0.033-0.619-0.064-0.93-0.095
		c-0.473-0.046-0.948-0.088-1.423-0.127c-0.305-0.025-0.609-0.05-0.914-0.073c-0.502-0.037-1.005-0.067-1.509-0.096
		c-0.278-0.016-0.555-0.034-0.833-0.048c-0.619-0.03-1.24-0.053-1.862-0.071c-0.163-0.005-0.325-0.013-0.488-0.017
		c-0.747-0.019-1.496-0.029-2.248-0.031c-0.035,0-0.07,0.001-0.105,0.001c-0.036,0-0.071-0.001-0.106-0.001
		c-0.005,0-0.009,0-0.009,0c-0.009,0-0.013,0-0.016,0c-1.568,0-3.125,0.04-4.675,0.114c-0.051,0.003-0.102,0.006-0.152,0.008
		c-21.197,1.039-40.606,8.878-56.088,21.388c-51.865,41.91-116.154,65.443-182.836,65.443h-2.949
		c-66.342,0-130.893-22.599-182.068-64.817c-13.73-11.327-30.631-18.944-49.17-21.332c-0.119-0.015-0.239-0.029-0.359-0.044
		c-0.652-0.081-1.306-0.157-1.962-0.225c-0.173-0.018-0.347-0.036-0.52-0.053c-0.613-0.061-1.228-0.115-1.844-0.165
		c-0.191-0.015-0.381-0.031-0.572-0.046c-0.623-0.046-1.249-0.085-1.875-0.119c-0.173-0.01-0.346-0.021-0.519-0.03
		c-0.749-0.037-1.5-0.066-2.254-0.086c-0.044-0.001-0.088-0.004-0.132-0.005c-0.752-0.019-1.506-0.03-2.262-0.031
		c0,0-0.01,0-0.014,0l-0.011,0c-0.035,0-0.07,0.001-0.105,0.001c-0.036,0-0.071-0.001-0.106-0.001c-0.748,0-1.495,0.009-2.239,0.026
		c-0.087,0.002-0.174,0.006-0.261,0.009c-0.71,0.018-1.419,0.043-2.125,0.077c-0.144,0.007-0.287,0.016-0.431,0.023
		c-0.677,0.035-1.352,0.076-2.025,0.125c-0.093,0.007-0.186,0.014-0.279,0.021c-20.209,1.517-38.692,9.22-53.555,21.23
		c-51.865,41.91-116.154,65.443-182.836,65.443h-2.975c-66.342,0-130.893-22.599-182.068-64.817c-0.436-0.36-0.877-0.714-1.32-1.066
		c-0.161-0.128-0.322-0.256-0.484-0.383c-0.496-0.39-0.995-0.776-1.499-1.156c-0.22-0.166-0.443-0.328-0.664-0.492
		c-0.368-0.273-0.737-0.545-1.109-0.813c-0.25-0.18-0.502-0.357-0.753-0.534c-0.351-0.247-0.702-0.494-1.056-0.736
		c-0.26-0.178-0.521-0.355-0.783-0.531c-0.355-0.239-0.712-0.475-1.07-0.709c-0.26-0.17-0.521-0.34-0.783-0.507
		c-0.374-0.239-0.751-0.475-1.129-0.709c-0.249-0.154-0.496-0.31-0.746-0.462c-0.432-0.263-0.868-0.519-1.304-0.775
		c-0.199-0.117-0.396-0.236-0.596-0.352c-0.63-0.364-1.265-0.721-1.904-1.07c-0.172-0.094-0.345-0.183-0.517-0.276
		c-0.478-0.258-0.957-0.513-1.439-0.763c-0.25-0.129-0.502-0.255-0.752-0.382c-0.411-0.208-0.822-0.415-1.237-0.617
		c-0.272-0.133-0.545-0.263-0.819-0.394c-0.4-0.191-0.801-0.379-1.204-0.565c-0.279-0.128-0.559-0.256-0.839-0.382
		c-0.408-0.183-0.817-0.362-1.228-0.54c-0.275-0.119-0.55-0.238-0.827-0.355c-0.44-0.185-0.882-0.365-1.325-0.544
		c-0.248-0.1-0.494-0.202-0.743-0.3c-0.583-0.23-1.169-0.452-1.757-0.671c-0.111-0.041-0.22-0.085-0.331-0.126
		c-0.698-0.256-1.399-0.504-2.104-0.745c-0.223-0.076-0.448-0.148-0.671-0.222c-0.488-0.162-0.976-0.324-1.467-0.479
		c-0.275-0.087-0.552-0.17-0.828-0.254c-0.446-0.136-0.892-0.271-1.34-0.401c-0.292-0.085-0.585-0.167-0.879-0.249
		c-0.44-0.123-0.881-0.243-1.324-0.36c-0.295-0.078-0.59-0.155-0.885-0.23c-0.456-0.116-0.914-0.227-1.373-0.337
		c-0.281-0.067-0.561-0.135-0.842-0.2c-0.515-0.118-1.033-0.229-1.551-0.339c-0.226-0.048-0.451-0.099-0.677-0.145
		c-0.744-0.152-1.491-0.297-2.241-0.431c-0.115-0.021-0.231-0.038-0.347-0.059c-0.636-0.112-1.274-0.219-1.914-0.319
		c-0.265-0.041-0.53-0.077-0.795-0.116c-0.496-0.073-0.992-0.144-1.491-0.21c-0.299-0.039-0.6-0.075-0.9-0.112
		c-0.47-0.057-0.941-0.112-1.413-0.162c-0.309-0.033-0.619-0.064-0.93-0.095c-0.473-0.046-0.947-0.088-1.423-0.127
		c-0.305-0.025-0.609-0.05-0.914-0.073c-0.502-0.037-1.005-0.067-1.509-0.096c-0.278-0.016-0.555-0.034-0.833-0.048
		c-0.619-0.03-1.24-0.053-1.862-0.071c-0.163-0.005-0.325-0.013-0.488-0.017c-0.747-0.019-1.496-0.029-2.247-0.031
		c-0.035,0-0.07,0.001-0.105,0.001c-0.036,0-0.071-0.001-0.106-0.001c-0.748,0-1.495,0.009-2.239,0.026
		c-0.087,0.002-0.174,0.006-0.261,0.009c-0.71,0.018-1.419,0.043-2.125,0.077c-0.144,0.007-0.287,0.016-0.431,0.023
		c-0.677,0.035-1.352,0.076-2.025,0.125c-0.093,0.007-0.186,0.014-0.28,0.021c-20.209,1.517-38.692,9.22-53.555,21.23
		c-51.865,41.91-116.154,65.443-182.836,65.443h-2.975c-66.342,0-130.893-22.599-182.068-64.817
		c-16.713-13.788-38.122-22.086-61.469-22.136c-53.151-0.114-96.813,43.118-97.201,96.267c-0.394,53.9,43.181,97.717,96.99,97.717
		c23.073,0,44.265-8.057,60.914-21.511c51.866-41.91,116.154-65.443,182.837-65.443h2.975c66.342,0,130.893,22.598,182.067,64.816
		c0.429,0.354,0.864,0.702,1.299,1.049c0.178,0.142,0.356,0.283,0.535,0.423c0.485,0.381,0.974,0.759,1.466,1.131
		c0.224,0.169,0.451,0.334,0.676,0.501c0.364,0.27,0.729,0.54,1.097,0.805c0.252,0.181,0.505,0.359,0.758,0.538
		c0.349,0.246,0.7,0.492,1.053,0.734c0.261,0.179,0.524,0.357,0.787,0.534c0.353,0.237,0.707,0.471,1.063,0.704
		c0.263,0.172,0.526,0.343,0.791,0.513c0.371,0.237,0.745,0.47,1.12,0.703c0.252,0.156,0.502,0.313,0.755,0.467
		c0.428,0.26,0.861,0.515,1.293,0.769c0.202,0.118,0.402,0.24,0.606,0.357c0.63,0.363,1.263,0.72,1.902,1.069
		c0.177,0.097,0.355,0.189,0.533,0.284c0.473,0.255,0.946,0.508,1.423,0.755c0.253,0.131,0.507,0.257,0.76,0.386
		c0.409,0.207,0.818,0.413,1.23,0.614c0.273,0.133,0.547,0.264,0.822,0.395c0.399,0.19,0.799,0.378,1.201,0.563
		c0.28,0.129,0.561,0.257,0.843,0.383c0.407,0.183,0.816,0.362,1.226,0.539c0.275,0.119,0.55,0.238,0.827,0.355
		c0.439,0.185,0.88,0.364,1.323,0.543c0.249,0.101,0.497,0.203,0.747,0.302c0.576,0.227,1.156,0.447,1.737,0.664
		c0.118,0.044,0.234,0.09,0.352,0.134c0.697,0.256,1.398,0.503,2.102,0.744c0.224,0.076,0.45,0.148,0.675,0.223
		c0.486,0.162,0.973,0.322,1.462,0.477c0.277,0.087,0.555,0.171,0.832,0.255c0.445,0.136,0.891,0.27,1.338,0.4
		c0.292,0.084,0.584,0.167,0.877,0.249c0.441,0.123,0.883,0.243,1.326,0.361c0.294,0.078,0.588,0.155,0.883,0.23
		c0.457,0.116,0.915,0.227,1.374,0.337c0.28,0.067,0.561,0.135,0.842,0.2c0.516,0.118,1.035,0.23,1.554,0.34
		c0.225,0.048,0.448,0.098,0.673,0.144c0.744,0.152,1.491,0.297,2.241,0.432c0.117,0.021,0.235,0.039,0.352,0.059
		c0.635,0.112,1.271,0.219,1.91,0.318c0.265,0.041,0.53,0.078,0.796,0.117c0.496,0.073,0.993,0.144,1.492,0.21
		c0.298,0.039,0.597,0.075,0.895,0.111c0.473,0.057,0.946,0.112,1.421,0.163c0.307,0.033,0.616,0.064,0.924,0.094
		c0.474,0.046,0.948,0.088,1.424,0.127c0.306,0.025,0.611,0.051,0.918,0.073c0.5,0.036,1.001,0.067,1.502,0.096
		c0.28,0.016,0.558,0.034,0.838,0.048c0.615,0.03,1.232,0.052,1.85,0.071c0.167,0.005,0.333,0.014,0.501,0.018
		c0.747,0.018,1.496,0.029,2.247,0.031c0.035,0,0.07-0.001,0.105-0.001c0.036,0,0.071,0.001,0.106,0.001
		c0.749,0,1.495-0.009,2.24-0.026c0.087-0.002,0.173-0.006,0.26-0.008c0.711-0.018,1.419-0.044,2.126-0.077
		c0.144-0.007,0.286-0.016,0.429-0.023c0.677-0.035,1.354-0.076,2.027-0.125c0.092-0.007,0.185-0.014,0.277-0.021
		c20.209-1.517,38.692-9.22,53.554-21.23c51.866-41.91,116.154-65.443,182.837-65.443h2.975c66.342,0,130.893,22.598,182.067,64.816
		c0.429,0.354,0.864,0.702,1.299,1.049c0.178,0.142,0.356,0.283,0.535,0.423c0.485,0.381,0.974,0.759,1.466,1.131
		c0.224,0.169,0.451,0.334,0.676,0.501c0.364,0.27,0.729,0.54,1.097,0.805c0.252,0.181,0.505,0.359,0.758,0.538
		c0.349,0.246,0.7,0.492,1.053,0.734c0.261,0.179,0.524,0.357,0.787,0.534c0.353,0.237,0.707,0.471,1.063,0.704
		c0.263,0.172,0.526,0.343,0.791,0.513c0.371,0.237,0.745,0.47,1.12,0.703c0.252,0.156,0.502,0.313,0.755,0.467
		c0.428,0.26,0.861,0.515,1.293,0.769c0.202,0.118,0.402,0.24,0.606,0.357c0.63,0.363,1.263,0.72,1.902,1.069
		c0.177,0.097,0.355,0.189,0.533,0.284c0.473,0.255,0.946,0.508,1.423,0.755c0.253,0.131,0.507,0.257,0.76,0.386
		c0.409,0.207,0.818,0.413,1.23,0.614c0.273,0.133,0.547,0.264,0.822,0.395c0.399,0.19,0.799,0.378,1.201,0.563
		c0.28,0.129,0.561,0.257,0.843,0.383c0.407,0.183,0.816,0.362,1.226,0.539c0.275,0.119,0.55,0.238,0.827,0.355
		c0.439,0.185,0.88,0.364,1.323,0.543c0.249,0.101,0.497,0.203,0.747,0.302c0.576,0.227,1.156,0.447,1.737,0.664
		c0.117,0.044,0.234,0.09,0.352,0.134c0.697,0.256,1.398,0.503,2.102,0.744c0.224,0.076,0.45,0.148,0.675,0.223
		c0.486,0.162,0.973,0.322,1.462,0.477c0.277,0.087,0.555,0.171,0.832,0.255c0.445,0.136,0.891,0.27,1.338,0.4
		c0.292,0.084,0.584,0.167,0.877,0.249c0.441,0.123,0.883,0.243,1.326,0.361c0.294,0.078,0.588,0.155,0.883,0.23
		c0.457,0.116,0.915,0.227,1.374,0.337c0.281,0.067,0.561,0.135,0.842,0.2c0.516,0.118,1.035,0.23,1.554,0.34
		c0.225,0.048,0.448,0.098,0.673,0.144c0.744,0.152,1.491,0.297,2.242,0.432c0.117,0.021,0.235,0.039,0.352,0.059
		c0.635,0.112,1.271,0.219,1.91,0.318c0.265,0.041,0.53,0.078,0.796,0.117c0.496,0.073,0.993,0.144,1.492,0.21
		c0.298,0.039,0.596,0.075,0.895,0.111c0.473,0.057,0.946,0.112,1.421,0.163c0.307,0.033,0.616,0.064,0.924,0.094
		c0.474,0.046,0.948,0.088,1.424,0.127c0.306,0.025,0.611,0.051,0.918,0.073c0.5,0.036,1.001,0.067,1.502,0.096
		c0.279,0.016,0.558,0.034,0.838,0.048c0.615,0.03,1.232,0.052,1.85,0.071c0.167,0.005,0.333,0.014,0.501,0.018
		c0.747,0.018,1.496,0.029,2.247,0.031c0.035,0,0.07-0.001,0.104-0.001c0.036,0,0.07,0.001,0.106,0.001c0.004,0,0.009,0,0.014,0
		c0.004,0,0.008,0,0.012,0c1.568,0,3.127-0.04,4.676-0.114c0.05-0.003,0.101-0.006,0.151-0.008
		c21.196-1.039,40.606-8.879,56.087-21.388c51.866-41.91,116.154-65.443,182.836-65.443h2.949
		c66.342,0,130.893,22.598,182.067,64.816c13.731,11.328,30.633,18.946,49.173,21.333c0.118,0.015,0.236,0.029,0.354,0.044
		c0.654,0.082,1.31,0.157,1.968,0.226c0.171,0.018,0.342,0.035,0.514,0.052c0.613,0.061,1.228,0.115,1.845,0.164
		c0.192,0.015,0.384,0.032,0.576,0.046c0.621,0.046,1.244,0.085,1.868,0.119c0.175,0.01,0.349,0.021,0.525,0.03
		c0.745,0.037,1.491,0.066,2.24,0.085c0.049,0.001,0.098,0.004,0.147,0.005c0.752,0.019,1.505,0.03,2.261,0.032c0,0,0.01,0,0.014,0
		c0,0,0.008,0,0.011,0c0.035,0,0.07-0.001,0.105-0.001c0.035,0,0.071,0.001,0.106,0.001c0.749,0,1.495-0.009,2.24-0.026
		c0.087-0.002,0.174-0.006,0.261-0.008c0.71-0.018,1.419-0.044,2.126-0.077c0.143-0.007,0.286-0.016,0.429-0.023
		c0.678-0.035,1.354-0.076,2.028-0.125c0.092-0.007,0.185-0.014,0.277-0.021c20.209-1.517,38.692-9.22,53.555-21.23
		c51.866-41.91,116.154-65.443,182.836-65.443h2.976c66.341,0,130.893,22.598,182.067,64.816
		c16.714,13.789,38.124,22.088,61.471,22.137c53.151,0.113,96.813-43.12,97.2-96.269
		C1798.346,446.824,1754.771,403.008,1700.963,403.008z M-206.179,554.785c-14.634,14.633-34.09,22.693-54.785,22.693
		s-40.151-8.059-54.785-22.693c-14.634-14.634-22.693-34.09-22.693-54.785c0-20.695,8.059-40.151,22.693-54.785
		c14.633-14.634,34.09-22.693,54.785-22.693s40.151,8.059,54.785,22.693c14.634,14.633,22.692,34.09,22.692,54.785
		C-183.486,520.695-191.545,540.151-206.179,554.785z M284.296,554.785c-14.634,14.633-34.09,22.693-54.785,22.693
		s-40.151-8.059-54.785-22.693c-14.634-14.634-22.693-34.09-22.693-54.785c0-20.695,8.059-40.151,22.693-54.785
		c14.633-14.634,34.09-22.693,54.785-22.693s40.151,8.059,54.785,22.693c14.634,14.633,22.692,34.09,22.692,54.785
		C306.989,520.695,298.93,540.151,284.296,554.785z M774.772,554.785c-14.63,14.63-34.082,22.689-54.772,22.692
		c-20.69-0.003-40.141-8.062-54.772-22.692c-14.634-14.634-22.693-34.09-22.693-54.785c0-20.695,8.059-40.151,22.693-54.785
		c14.63-14.63,34.082-22.689,54.772-22.693c20.69,0.003,40.142,8.062,54.772,22.693c14.634,14.633,22.692,34.09,22.692,54.785
		C797.464,520.695,789.405,540.151,774.772,554.785z M1265.247,554.785c-14.63,14.63-34.082,22.689-54.772,22.692
		c-20.69-0.003-40.141-8.062-54.772-22.692c-14.634-14.634-22.693-34.09-22.693-54.785c0-20.695,8.059-40.151,22.693-54.785
		c14.63-14.63,34.082-22.689,54.772-22.693c20.69,0.003,40.142,8.062,54.772,22.693c14.634,14.633,22.693,34.09,22.693,54.785
		C1287.939,520.695,1279.881,540.151,1265.247,554.785z M1755.748,554.785c-14.634,14.633-34.09,22.693-54.785,22.693
		c-20.695,0-40.151-8.059-54.784-22.693c-14.634-14.634-22.693-34.09-22.693-54.785c0-20.695,8.059-40.151,22.693-54.785
		c14.633-14.634,34.089-22.693,54.784-22.693c20.695,0,40.152,8.059,54.785,22.693c14.633,14.633,22.693,34.09,22.693,54.785
		C1778.441,520.695,1770.381,540.151,1755.748,554.785z"/>
</g>
</svg>
