<?xml version="1.0" encoding="utf-8"?>
<!-- Generator: Adobe Illustrator 17.1.0, SVG Export Plug-In . SVG Version: 6.00 Build 0)  -->
<!DOCTYPE svg PUBLIC "-//W3C//DTD SVG 1.1//EN" "http://www.w3.org/Graphics/SVG/1.1/DTD/svg11.dtd">
<svg version="1.1" id="Layer_1" xmlns="http://www.w3.org/2000/svg" xmlns:xlink="http://www.w3.org/1999/xlink" x="0px" y="0px"
	 viewBox="0 0 1440 1000" enable-background="new 0 0 1440 1000" xml:space="preserve">
<g>
	<ellipse fill="#99CC33" cx="720" cy="286.01" rx="302.137" ry="66.762"/>
	<path fill="#99CC33" d="M720,680.001c-165.026,0-299.13-29.236-302.067-65.546c-0.033,0.405-0.07,0.809-0.07,1.216v98.319
		c0,36.872,135.271,66.762,302.137,66.762c166.865,0,302.137-29.89,302.137-66.762v-98.319c0-0.406-0.037-0.811-0.07-1.216
		C1019.13,650.765,885.026,680.001,720,680.001z"/>
	<path fill="#99CC33" d="M720,537.708c-165.026,0-299.13-29.236-302.067-65.546c-0.033,0.405-0.07,0.809-0.07,1.216v98.319
		c0,36.872,135.271,66.762,302.137,66.762c166.865,0,302.137-29.89,302.137-66.762v-98.319c0-0.406-0.037-0.811-0.07-1.216
		C1019.13,508.472,885.026,537.708,720,537.708z"/>
	<path fill="#99CC33" d="M720,396.527c-165.026,0-299.13-29.236-302.067-65.546c-0.033,0.405-0.07,0.809-0.07,1.216v98.319
		c0,36.872,135.271,66.762,302.137,66.762c166.865,0,302.137-29.89,302.137-66.762v-98.319c0-0.406-0.037-0.811-0.07-1.216
		C1019.13,367.291,885.026,396.527,720,396.527z"/>
</g>
</svg>
