<?xml version="1.0" encoding="utf-8"?>
<!-- Generator: Adobe Illustrator 17.1.0, SVG Export Plug-In . SVG Version: 6.00 Build 0)  -->
<!DOCTYPE svg PUBLIC "-//W3C//DTD SVG 1.1//EN" "http://www.w3.org/Graphics/SVG/1.1/DTD/svg11.dtd">
<svg version="1.1" id="Layer_1" xmlns="http://www.w3.org/2000/svg" xmlns:xlink="http://www.w3.org/1999/xlink" x="0px" y="0px"
	 viewBox="0 0 1440 1000" enable-background="new 0 0 1440 1000" xml:space="preserve">
<g>
	<path fill="#99CC33" d="M1059.222,676.635l-292.49-418.579c-22.692-32.475-70.772-32.475-93.464,0l-292.49,418.579
		c-26.406,37.79,0.631,89.666,46.732,89.666h584.979C1058.591,766.3,1085.628,714.424,1059.222,676.635z M760.773,367.378
		l-10.524,216.685c-0.237,4.873-4.256,8.702-9.135,8.702h-41.73c-4.871,0-8.887-3.817-9.134-8.682L679.25,367.398
		c-0.265-5.226,3.901-9.609,9.134-9.609h63.255C756.863,357.789,761.026,362.159,760.773,367.378z M720.259,713.109
		c-28.011,0-46.684-20.23-46.684-47.202c0-27.495,19.192-47.206,46.684-47.206c27.491,0,45.646,19.711,46.166,47.206
		C766.425,692.88,748.27,713.109,720.259,713.109z"/>
</g>
</svg>
