<?xml version="1.0" encoding="UTF-8"?>
<!DOCTYPE svg PUBLIC "-//W3C//DTD SVG 1.1//EN" "http://www.w3.org/Graphics/SVG/1.1/DTD/svg11.dtd">
<!-- Creator: CorelDRAW X5 -->
<svg xmlns="http://www.w3.org/2000/svg" xml:space="preserve" width="100%" height="100%" style="shape-rendering:geometricPrecision; text-rendering:geometricPrecision; image-rendering:optimizeQuality; fill-rule:evenodd; clip-rule:evenodd"
viewBox="0 0 12.192 1.65704"
 xmlns:xlink="http://www.w3.org/1999/xlink"
 version="1.1"
 enable-background="new 0 0 1440 1000">
 <defs>
  <style type="text/css">
   <![CDATA[
    .fil1 {fill:#99CC33}
    .fil0 {fill:url(#id0)}
   ]]>
  </style>
  <radialGradient id="id0" gradientUnits="userSpaceOnUse" cx="6.096" cy="0.82852" r="4.2672" fx="6.096" fy="0.82852">
   <stop offset="0" style="stop-color:#65DAEB"/>
   <stop offset="1" style="stop-color:#18B7CF"/>
   <stop offset="1" style="stop-color:#18B7CF"/>
  </radialGradient>
 </defs>
 <g id="Layer_x0020_1">
  <metadata id="CorelCorpID_0Corel-Layer"/>
  <path class="fil0" d="M12.192 0.73405c-0.49245,-0.04126 -0.96378,-0.22862 -1.34721,-0.54494 -0.00373,-0.00307 -0.00749,-0.0061 -0.01127,-0.0091 -0.00137,-0.0011 -0.00275,-0.00219 -0.00413,-0.00327 -0.00424,-0.00334 -0.0085,-0.00663 -0.01281,-0.00988 -0.00188,-0.00142 -0.00378,-0.00281 -0.00566,-0.0042 -0.00315,-0.00234 -0.00631,-0.00466 -0.00947,-0.00695 -0.00214,-0.00153 -0.0043,-0.00304 -0.00645,-0.00456 -0.003,-0.00211 -0.006,-0.00422 -0.00902,-0.00629 -0.00222,-0.00151 -0.00445,-0.00302 -0.00669,-0.00453 -0.00303,-0.00204 -0.00609,-0.00405 -0.00915,-0.00605 -0.00222,-0.00146 -0.00445,-0.00291 -0.00668,-0.00434 -0.0032,-0.00203 -0.00642,-0.00406 -0.00965,-0.00605 -0.00213,-0.00132 -0.00424,-0.00265 -0.00637,-0.00395 -0.0037,-0.00225 -0.00742,-0.00443 -0.01115,-0.00661 -0.0017,-0.001 -0.00339,-0.00203 -0.0051,-0.00301 -0.00538,-0.00311 -0.0108,-0.00616 -0.01626,-0.00914 -0.00145,-0.0008 -0.00295,-0.00156 -0.00441,-0.00236 -0.00409,-0.0022 -0.00818,-0.00438 -0.01229,-0.00652 -0.00214,-0.0011 -0.00428,-0.00218 -0.00642,-0.00326 -0.00352,-0.00177 -0.00703,-0.00354 -0.01057,-0.00527 -0.00231,-0.00114 -0.00466,-0.00225 -0.00699,-0.00337 -0.00342,-0.00163 -0.00684,-0.00324 -0.01028,-0.00482 -0.00238,-0.00109 -0.00477,-0.00219 -0.00716,-0.00327 -0.00349,-0.00156 -0.00698,-0.00309 -0.01049,-0.00461 -0.00235,-0.00102 -0.0047,-0.00203 -0.00707,-0.00303 -0.00376,-0.00159 -0.00753,-0.00312 -0.01132,-0.00465 -0.00211,-0.00085 -0.00422,-0.00173 -0.00635,-0.00257 -0.00497,-0.00195 -0.00998,-0.00386 -0.01499,-0.00573 -0.00095,-0.00035 -0.00189,-0.00071 -0.00284,-0.00107 -0.00596,-0.00219 -0.01195,-0.00431 -0.01797,-0.00637 -0.00191,-0.00065 -0.00383,-0.00126 -0.00574,-0.00189 -0.00417,-0.00138 -0.00833,-0.00277 -0.01252,-0.0041 -0.00236,-0.00074 -0.00472,-0.00145 -0.00708,-0.00216 -0.00381,-0.00117 -0.00761,-0.00232 -0.01144,-0.00343 -0.0025,-0.00073 -0.00501,-0.00142 -0.00751,-0.00212 -0.00376,-0.00106 -0.00753,-0.00208 -0.01131,-0.00309 -0.00252,-0.00066 -0.00503,-0.00132 -0.00756,-0.00196 -0.00389,-0.00099 -0.0078,-0.00193 -0.01172,-0.00287 -0.00241,-0.00058 -0.0048,-0.00116 -0.0072,-0.00171 -0.00439,-0.00102 -0.00882,-0.00196 -0.01325,-0.00289 -0.00193,-0.00043 -0.00385,-0.00086 -0.00578,-0.00125 -0.00636,-0.0013 -0.01273,-0.00254 -0.01914,-0.00368 -0.00098,-0.00018 -0.00198,-0.00032 -0.00296,-0.00051 -0.00543,-0.00096 -0.01089,-0.00187 -0.01636,-0.00272 -0.00225,-0.00036 -0.00452,-0.00066 -0.00679,-0.00099 -0.00423,-0.00062 -0.00847,-0.00123 -0.01273,-0.00179 -0.00256,-0.00033 -0.00512,-0.00065 -0.00768,-0.00096 -0.00401,-0.00049 -0.00804,-0.00096 -0.01207,-0.00139 -0.00264,-0.00028 -0.00529,-0.00054 -0.00794,-0.00081 -0.00404,-0.00039 -0.0081,-0.00075 -0.01215,-0.00109 -0.00261,-0.00021 -0.00521,-0.00042 -0.00781,-0.00061 -0.00428,-0.00032 -0.00859,-0.00058 -0.01289,-0.00083 -0.00237,-0.00013 -0.00474,-0.00029 -0.00711,-0.00041 -0.00529,-0.00025 -0.0106,-0.00045 -0.01591,-0.0006 -0.00139,-4e-005 -0.00278,-0.00012 -0.00416,-0.00015 -0.00639,-0.00015 -0.01279,-0.00024 -0.01921,-0.00026 -0.0003,0 -0.0006,1e-005 -0.0009,1e-005 -0.0003,0 -0.00061,-1e-005 -0.00091,-1e-005 -4e-005,0 -8e-005,0 -8e-005,0 -7e-005,0 -0.00011,0 -0.00014,0 -0.01339,0 -0.02668,0.00034 -0.03993,0.00097 -0.00043,2e-005 -0.00087,5e-005 -0.0013,7e-005 -0.18106,0.00888 -0.34684,0.07583 -0.47908,0.1827 -0.44301,0.35797 -0.99215,0.55898 -1.56171,0.55898l-0.02518 0c-0.56667,0 -1.11804,-0.19303 -1.55516,-0.55364 -0.11727,-0.09675 -0.26164,-0.16181 -0.41999,-0.18221 -0.00101,-0.00013 -0.00204,-0.00025 -0.00307,-0.00037 -0.00557,-0.00069 -0.01115,-0.00134 -0.01675,-0.00193 -0.00148,-0.00015 -0.00297,-0.0003 -0.00444,-0.00045 -0.00524,-0.00052 -0.0105,-0.00098 -0.01576,-0.00141 -0.00163,-0.00012 -0.00325,-0.00026 -0.00489,-0.00038 -0.00531,-0.0004 -0.01067,-0.00074 -0.01601,-0.00102 -0.00148,-8e-005 -0.00296,-0.00018 -0.00443,-0.00025 -0.0064,-0.00033 -0.01281,-0.00057 -0.01926,-0.00074 -0.00037,-2e-005 -0.00075,-3e-005 -0.00112,-4e-005 -0.00642,-0.00016 -0.01286,-0.00026 -0.01932,-0.00026 0,0 -8e-005,0 -0.00012,0l-0.0001 0c-0.00029,0 -0.00059,0 -0.00089,0 -0.00031,0 -0.00061,0 -0.00091,0 -0.00639,0 -0.01277,7e-005 -0.01913,0.00021 -0.00074,2e-005 -0.00148,6e-005 -0.00222,8e-005 -0.00607,0.00015 -0.01212,0.00037 -0.01816,0.00066 -0.00122,6e-005 -0.00245,0.00014 -0.00368,0.00019 -0.00578,0.00031 -0.01154,0.00066 -0.01729,0.00108 -0.0008,5e-005 -0.00159,0.00011 -0.00239,0.00018 -0.17261,0.01296 -0.33049,0.07874 -0.45744,0.18133 -0.44302,0.35798 -0.99215,0.55899 -1.56172,0.55899l-0.02541 0c-0.56667,0 -1.11804,-0.19303 -1.55515,-0.55364 -0.00373,-0.00308 -0.0075,-0.00611 -0.01128,-0.00911 -0.00137,-0.0011 -0.00275,-0.00219 -0.00414,-0.00328 -0.00423,-0.00332 -0.00849,-0.00662 -0.0128,-0.00986 -0.00188,-0.00143 -0.00379,-0.00282 -0.00567,-0.00421 -0.00315,-0.00233 -0.0063,-0.00466 -0.00948,-0.00695 -0.00213,-0.00154 -0.00428,-0.00304 -0.00642,-0.00455 -0.00301,-0.00212 -0.006,-0.00422 -0.00903,-0.00629 -0.00222,-0.00152 -0.00445,-0.00303 -0.00669,-0.00454 -0.00303,-0.00204 -0.00608,-0.00406 -0.00913,-0.00606 -0.00223,-0.00145 -0.00446,-0.0029 -0.0067,-0.00432 -0.00319,-0.00205 -0.00641,-0.00406 -0.00964,-0.00606 -0.00213,-0.00132 -0.00423,-0.00264 -0.00637,-0.00395 -0.00369,-0.00224 -0.00741,-0.00442 -0.01115,-0.00661 -0.00169,-0.00101 -0.00338,-0.00202 -0.00508,-0.00301 -0.00538,-0.00312 -0.01081,-0.00616 -0.01627,-0.00914 -0.00146,-0.00081 -0.00295,-0.00156 -0.00441,-0.00235 -0.00409,-0.00221 -0.00818,-0.00439 -0.01229,-0.00652 -0.00214,-0.0011 -0.0043,-0.00219 -0.00643,-0.00327 -0.00351,-0.00178 -0.00701,-0.00354 -0.01056,-0.00527 -0.00233,-0.00113 -0.00465,-0.00225 -0.007,-0.00337 -0.00342,-0.00163 -0.00684,-0.00324 -0.01028,-0.00482 -0.00238,-0.00109 -0.00478,-0.00219 -0.00717,-0.00327 -0.00349,-0.00156 -0.00697,-0.00309 -0.01049,-0.00461 -0.00234,-0.00101 -0.00469,-0.00203 -0.00706,-0.00302 -0.00376,-0.00159 -0.00753,-0.00313 -0.01131,-0.00466 -0.00213,-0.00085 -0.00423,-0.00173 -0.00636,-0.00256 -0.00497,-0.00196 -0.00998,-0.00386 -0.015,-0.00573 -0.00095,-0.00036 -0.00188,-0.00073 -0.00283,-0.00108 -0.00596,-0.00219 -0.01194,-0.00431 -0.01798,-0.00637 -0.0019,-0.00064 -0.00383,-0.00126 -0.00572,-0.00189 -0.00418,-0.00139 -0.00834,-0.00277 -0.01254,-0.00409 -0.00235,-0.00074 -0.00471,-0.00145 -0.00707,-0.00217 -0.00381,-0.00116 -0.00762,-0.00232 -0.01145,-0.00343 -0.00249,-0.00072 -0.00499,-0.00142 -0.00751,-0.00213 -0.00376,-0.00105 -0.00753,-0.00208 -0.0113,-0.00307 -0.00253,-0.00067 -0.00504,-0.00133 -0.00757,-0.00197 -0.00389,-0.00099 -0.00779,-0.00193 -0.01172,-0.00287 -0.0024,-0.00058 -0.00479,-0.00116 -0.00719,-0.00171 -0.00441,-0.00101 -0.00883,-0.00196 -0.01326,-0.0029 -0.00192,-0.00041 -0.00385,-0.00084 -0.00578,-0.00124 -0.00636,-0.0013 -0.01273,-0.00254 -0.01914,-0.00368 -0.00098,-0.00018 -0.00197,-0.00032 -0.00296,-0.00051 -0.00544,-0.00096 -0.01089,-0.00187 -0.01636,-0.00272 -0.00226,-0.00035 -0.00453,-0.00066 -0.00678,-0.00099 -0.00424,-0.00063 -0.00848,-0.00123 -0.01274,-0.00179 -0.00255,-0.00033 -0.00512,-0.00065 -0.00768,-0.00096 -0.00402,-0.00048 -0.00805,-0.00096 -0.01208,-0.00139 -0.00263,-0.00028 -0.00528,-0.00053 -0.00794,-0.0008 -0.00404,-0.0004 -0.00809,-0.00076 -0.01215,-0.00109 -0.00261,-0.00021 -0.0052,-0.00043 -0.00781,-0.00062 -0.00429,-0.00032 -0.00858,-0.00058 -0.01289,-0.00083 -0.00237,-0.00013 -0.00473,-0.00028 -0.00711,-0.00041 -0.00529,-0.00025 -0.01059,-0.00045 -0.0159,-0.0006 -0.00139,-4e-005 -0.00278,-0.00011 -0.00417,-0.00014 -0.00639,-0.00017 -0.01279,-0.00025 -0.0192,-0.00027 -0.0003,0 -0.0006,1e-005 -0.00089,1e-005 -0.00031,0 -0.00061,-1e-005 -0.00091,-1e-005 -0.00639,0 -0.01277,8e-005 -0.01913,0.00022 -0.00074,2e-005 -0.00149,5e-005 -0.00222,8e-005 -0.00607,0.00016 -0.01212,0.00037 -0.01816,0.00066 -0.00123,6e-005 -0.00245,0.00013 -0.00368,0.00019 -0.00578,0.0003 -0.01154,0.00066 -0.0173,0.00107 -0.00079,6e-005 -0.00158,0.00013 -0.00239,0.00018 -0.17262,0.01296 -0.3305,0.07875 -0.45745,0.18135 -0.40577,0.32788 -0.90056,0.52404 -1.41855,0.55471l0 0.1799c0.51583,0.02967 1.01182,0.21932 1.41203,0.5495 0.00366,0.00302 0.00737,0.006 0.0111,0.00896 0.00151,0.00121 0.00303,0.00242 0.00456,0.00361 0.00414,0.00325 0.00832,0.00648 0.01253,0.00966 0.00191,0.00145 0.00384,0.00286 0.00577,0.00428 0.00311,0.00231 0.00623,0.00462 0.00937,0.00687 0.00215,0.00155 0.00432,0.00307 0.00647,0.00461 0.00298,0.00209 0.00598,0.0042 0.00899,0.00626 0.00223,0.00153 0.00448,0.00305 0.00672,0.00456 0.00302,0.00203 0.00605,0.00403 0.00909,0.00601 0.00224,0.00148 0.00449,0.00294 0.00675,0.00439 0.00317,0.00202 0.00636,0.00401 0.00957,0.00601 0.00215,0.00132 0.00429,0.00267 0.00644,0.00398 0.00366,0.00222 0.00736,0.00439 0.01105,0.00657 0.00173,0.001 0.00344,0.00205 0.00517,0.00305 0.00538,0.0031 0.0108,0.00615 0.01625,0.00913 0.00151,0.00083 0.00303,0.00161 0.00456,0.00243 0.00403,0.00217 0.00808,0.00434 0.01215,0.00644 0.00216,0.00112 0.00433,0.0022 0.00649,0.0033 0.00349,0.00177 0.00699,0.00353 0.01051,0.00524 0.00233,0.00114 0.00467,0.00226 0.00702,0.00338 0.00341,0.00163 0.00683,0.00323 0.01026,0.00481 0.0024,0.0011 0.00479,0.0022 0.0072,0.00327 0.00348,0.00156 0.00697,0.0031 0.01048,0.0046 0.00234,0.00102 0.00469,0.00204 0.00706,0.00304 0.00375,0.00158 0.00751,0.00311 0.0113,0.00463 0.00213,0.00087 0.00424,0.00174 0.00638,0.00259 0.00492,0.00193 0.00987,0.00381 0.01484,0.00567 0.001,0.00037 0.002,0.00077 0.00301,0.00114 0.00595,0.00219 0.01194,0.0043 0.01795,0.00636 0.00192,0.00065 0.00384,0.00126 0.00576,0.00191 0.00415,0.00138 0.00832,0.00274 0.0125,0.00407 0.00236,0.00074 0.00473,0.00147 0.00709,0.00218 0.00381,0.00117 0.00762,0.0023 0.01144,0.00341 0.00249,0.00072 0.00499,0.00143 0.00749,0.00213 0.00377,0.00105 0.00754,0.00208 0.01133,0.00309 0.00251,0.00066 0.00502,0.00133 0.00754,0.00196 0.0039,0.00099 0.00781,0.00194 0.01173,0.00288 0.0024,0.00058 0.00479,0.00115 0.0072,0.0017 0.0044,0.00102 0.00884,0.00197 0.01328,0.00291 0.00191,0.00042 0.00382,0.00084 0.00574,0.00123 0.00636,0.00131 0.01273,0.00254 0.01914,0.0037 0.001,0.00017 0.00201,0.00032 0.00301,0.0005 0.00542,0.00096 0.01086,0.00187 0.01632,0.00272 0.00226,0.00035 0.00452,0.00066 0.00679,0.00099 0.00424,0.00063 0.00849,0.00123 0.01275,0.0018 0.00254,0.00033 0.00509,0.00064 0.00764,0.00094 0.00404,0.0005 0.00809,0.00096 0.01214,0.0014 0.00262,0.00028 0.00526,0.00055 0.0079,0.0008 0.00404,0.00039 0.00809,0.00075 0.01215,0.00109 0.00262,0.00021 0.00522,0.00043 0.00784,0.00062 0.00427,0.00031 0.00855,0.00058 0.01283,0.00082 0.0024,0.00014 0.00477,0.00029 0.00716,0.00041 0.00525,0.00026 0.01052,0.00045 0.0158,0.0006 0.00143,5e-005 0.00285,0.00013 0.00428,0.00015 0.00638,0.00016 0.01278,0.00025 0.01919,0.00027 0.0003,0 0.0006,0 0.0009,0 0.00031,0 0.00061,0 0.00091,0 0.0064,0 0.01277,-8e-005 0.01913,-0.00022 0.00074,-1e-005 0.00148,-5e-005 0.00222,-7e-005 0.00608,-0.00016 0.01212,-0.00038 0.01816,-0.00066 0.00123,-6e-005 0.00245,-0.00014 0.00366,-0.00019 0.00579,-0.0003 0.01158,-0.00066 0.01732,-0.00107 0.00079,-6e-005 0.00158,-0.00012 0.00237,-0.00018 0.17262,-0.01296 0.33049,-0.07875 0.45744,-0.18134 0.44301,-0.35798 0.99214,-0.55899 1.56172,-0.55899l0.02541 0c0.56667,0 1.11804,0.19302 1.55515,0.55364 0.00366,0.00302 0.00738,0.006 0.01109,0.00895 0.00152,0.00122 0.00305,0.00243 0.00457,0.00362 0.00414,0.00326 0.00832,0.00648 0.01253,0.00966 0.00191,0.00145 0.00385,0.00285 0.00576,0.00427 0.00312,0.00231 0.00623,0.00462 0.00939,0.00689 0.00214,0.00154 0.0043,0.00306 0.00647,0.00459 0.00298,0.0021 0.00598,0.00421 0.00899,0.00627 0.00222,0.00153 0.00448,0.00305 0.00672,0.00456 0.00301,0.00202 0.00604,0.00402 0.00907,0.00602 0.00225,0.00147 0.00451,0.00292 0.00676,0.00437 0.00317,0.00203 0.00637,0.00401 0.00957,0.00601 0.00216,0.00133 0.00429,0.00268 0.00645,0.00398 0.00366,0.00222 0.00735,0.00441 0.01104,0.00657 0.00173,0.00102 0.00344,0.00205 0.00518,0.00306 0.00538,0.00309 0.01078,0.00615 0.01624,0.00913 0.00152,0.00082 0.00304,0.00161 0.00455,0.00242 0.00405,0.00218 0.00808,0.00434 0.01216,0.00645 0.00216,0.00112 0.00434,0.0022 0.0065,0.00329 0.0035,0.00177 0.00699,0.00354 0.0105,0.00525 0.00233,0.00114 0.00468,0.00226 0.00702,0.00337 0.00341,0.00163 0.00682,0.00323 0.01026,0.00481 0.00239,0.0011 0.0048,0.0022 0.0072,0.00328 0.00348,0.00155 0.00697,0.00309 0.01048,0.0046 0.00235,0.00102 0.00469,0.00204 0.00706,0.00303 0.00375,0.00159 0.00752,0.00312 0.01131,0.00464 0.00212,0.00087 0.00424,0.00174 0.00637,0.00259 0.00493,0.00193 0.00988,0.00381 0.01484,0.00566 0.001,0.00039 0.00201,0.00077 0.00301,0.00115 0.00595,0.00218 0.01194,0.00429 0.01796,0.00635 0.0019,0.00066 0.00384,0.00127 0.00576,0.00191 0.00415,0.00139 0.00831,0.00275 0.01248,0.00407 0.00237,0.00075 0.00475,0.00147 0.00712,0.00219 0.00379,0.00116 0.00761,0.0023 0.01142,0.00341 0.0025,0.00071 0.00499,0.00142 0.00749,0.00213 0.00377,0.00105 0.00755,0.00207 0.01133,0.00309 0.00251,0.00066 0.00502,0.00132 0.00754,0.00196 0.0039,0.00099 0.00782,0.00193 0.01174,0.00288 0.00241,0.00057 0.0048,0.00114 0.00719,0.0017 0.00441,0.00101 0.00884,0.00197 0.01327,0.00291 0.00193,0.00041 0.00383,0.00083 0.00576,0.00123 0.00635,0.0013 0.01273,0.00254 0.01914,0.00369 0.00101,0.00017 0.00201,0.00032 0.00301,0.0005 0.00543,0.00096 0.01086,0.00187 0.01631,0.00272 0.00227,0.00035 0.00453,0.00067 0.0068,0.001 0.00424,0.00062 0.00848,0.00122 0.01274,0.0018 0.00255,0.00032 0.0051,0.00063 0.00766,0.00094 0.00403,0.00049 0.00807,0.00096 0.01213,0.00139 0.00263,0.00028 0.00526,0.00055 0.00789,0.00081 0.00405,0.00039 0.0081,0.00074 0.01216,0.00108 0.00262,0.00022 0.00522,0.00043 0.00785,0.00063 0.00427,0.0003 0.00855,0.00057 0.01282,0.00082 0.00239,0.00014 0.00478,0.00029 0.00717,0.00041 0.00524,0.00026 0.01051,0.00044 0.01579,0.0006 0.00143,4e-005 0.00285,0.00012 0.00428,0.00015 0.00639,0.00016 0.01279,0.00025 0.0192,0.00027 0.00029,0 0.0006,0 0.00089,0 0.0003,0 0.00059,0 0.0009,0 3e-005,0 8e-005,0 0.00012,0 4e-005,0 7e-005,0 0.00011,0 0.01339,0 0.0267,-0.00034 0.03993,-0.00097 0.00043,-3e-005 0.00087,-5e-005 0.00129,-7e-005 0.18105,-0.00888 0.34684,-0.07585 0.47907,-0.18269 0.44303,-0.35798 0.99215,-0.559 1.56172,-0.559l0.02519 0c0.56667,0 1.11804,0.19302 1.55515,0.55364 0.11729,0.09676 0.26166,0.16183 0.42002,0.18222 0.001,0.00013 0.00201,0.00024 0.00302,0.00037 0.00558,0.0007 0.01119,0.00134 0.01681,0.00193 0.00145,0.00015 0.00291,0.00031 0.00438,0.00044 0.00525,0.00053 0.0105,0.00098 0.01576,0.0014 0.00164,0.00013 0.00328,0.00027 0.00492,0.0004 0.00531,0.00038 0.01063,0.00072 0.01596,0.00101 0.00149,9e-005 0.00298,0.00018 0.00448,0.00026 0.00638,0.00031 0.01274,0.00055 0.01914,0.00072 0.00041,0 0.00084,4e-005 0.00126,4e-005 0.00642,0.00017 0.01285,0.00026 0.0193,0.00028 0,0 9e-005,0 0.00013,0 0,0 6e-005,0 9e-005,0 0.00029,0 0.0006,-1e-005 0.0009,-1e-005 0.0003,0 0.0006,1e-005 0.00091,1e-005 0.0064,0 0.01276,-8e-005 0.01914,-0.00023 0.00073,-1e-005 0.00148,-5e-005 0.00222,-7e-005 0.00606,-0.00015 0.01212,-0.00037 0.01816,-0.00065 0.00122,-6e-005 0.00244,-0.00014 0.00366,-0.0002 0.00579,-0.00029 0.01157,-0.00065 0.01733,-0.00107 0.00079,-6e-005 0.00158,-0.00012 0.00236,-0.00017 0.17261,-0.01296 0.33049,-0.07876 0.45745,-0.18135 0.38879,-0.31415 0.8593,-0.5074 1.35363,-0.55l0 -0.18923zm-9.78526 0.56239c-0.125,0.125 -0.29119,0.19384 -0.46795,0.19384 -0.17677,0 -0.34295,-0.06884 -0.46795,-0.19384 -0.12501,-0.125 -0.19384,-0.29118 -0.19384,-0.46794 0,-0.17678 0.06884,-0.34296 0.19384,-0.46796 0.12498,-0.125 0.29118,-0.19384 0.46795,-0.19384 0.17676,0 0.34295,0.06885 0.46795,0.19384 0.125,0.125 0.19382,0.29118 0.19382,0.46796 2e-005,0.17676 -0.06882,0.34294 -0.19382,0.46794zm4.18946 0c-0.12495,0.12497 -0.29111,0.1938 -0.46784,0.19383 -0.17672,-3e-005 -0.34287,-0.06886 -0.46784,-0.19383 -0.125,-0.125 -0.19383,-0.29118 -0.19383,-0.46794 0,-0.17678 0.06884,-0.34296 0.19383,-0.46796 0.12497,-0.12496 0.29112,-0.1938 0.46784,-0.19384 0.17673,3e-005 0.34289,0.06887 0.46784,0.19384 0.12501,0.125 0.19383,0.29118 0.19383,0.46796 0,0.17676 -0.06883,0.34294 -0.19383,0.46794zm4.18946 0c-0.12497,0.12497 -0.29112,0.1938 -0.46784,0.19383 -0.17673,-3e-005 -0.34287,-0.06886 -0.46784,-0.19383 -0.125,-0.125 -0.19384,-0.29118 -0.19384,-0.46794 0,-0.17678 0.06884,-0.34296 0.19384,-0.46796 0.12496,-0.12496 0.29111,-0.1938 0.46784,-0.19384 0.17672,3e-005 0.34287,0.06887 0.46784,0.19384 0.125,0.125 0.19383,0.29118 0.19383,0.46796 0,0.17676 -0.06883,0.34294 -0.19383,0.46794z"/>
  <g id="graphic-horizontal-a.svg">
   <path id="_186059976" class="fil1" d="M2.03583 0.86467c0.00209,-0.00016 0.0042,-0.00026 0.00634,-0.00026 0.00214,0 0.00425,0.0001 0.00634,0.00026 0.04271,0.00325 0.07637,0.0389 0.07637,0.08244 0,0.00013 -2e-005,0.00025 -2e-005,0.00038 0,0.00012 2e-005,0.00025 2e-005,0.00038 0,0.04567 -0.03703,0.0827 -0.08271,0.0827 -0.00341,0 -0.00675,-0.00027 -0.01005,-0.00067 -0.06896,0.00501 -0.12381,0.06087 -0.12697,0.13034 0.00015,0.00209 0.00026,0.0042 0.00026,0.00634 0,0.00214 -0.0001,0.00424 -0.00026,0.00634 -0.00325,0.04271 -0.0389,0.07636 -0.08244,0.07636 -0.04568,0 -0.08271,-0.03702 -0.08271,-0.0827 0,-0.04257 0.03216,-0.07761 0.07351,-0.08218 0.00302,-0.00034 0.00609,-0.00052 0.0092,-0.00052 0.00311,0 0.00617,0.00018 0.00919,0.00052 0.06938,-0.0046 0.12464,-0.06077 0.12782,-0.13053 -0.00015,-0.00198 -0.00025,-0.00398 -0.00025,-0.006 0,-0.00013 1e-005,-0.00025 1e-005,-0.00038 0,-0.00013 -1e-005,-0.00025 -1e-005,-0.00038 0,-0.00197 0.0001,-0.00391 0.00024,-0.00585 -0.00335,-0.07059 -0.06004,-0.1272 -0.13066,-0.13042 -0.0021,0.00016 -0.00421,0.00027 -0.00635,0.00027 -0.00213,0 -0.00424,-0.00011 -0.00634,-0.00027 -0.04271,-0.00324 -0.07636,-0.0389 -0.07636,-0.08244 0,-0.00013 2e-005,-0.00025 2e-005,-0.00038 0,-0.00013 -2e-005,-0.00025 -2e-005,-0.00037 0,-0.04568 0.03703,-0.08271 0.0827,-0.08271 0.00341,0 0.00675,0.00028 0.01005,0.00068 0.06897,-0.00501 0.12382,-0.06088 0.12698,-0.13034 -0.00016,-0.00209 -0.00026,-0.0042 -0.00026,-0.00634 0,-0.00214 0.0001,-0.00425 0.00026,-0.00634 0.00324,-0.04271 0.0389,-0.07637 0.08244,-0.07637 0.04568,0 0.08271,0.03703 0.08271,0.08271 0,0.04567 -0.03703,0.0827 -0.08271,0.0827 -0.07347,0 -0.13344,0.05777 -0.137,0.13036 0.00013,0.00187 0.00024,0.00374 0.00024,0.00565 0,0.00012 -2e-005,0.00024 -2e-005,0.00037 1e-005,0.00013 2e-005,0.00025 2e-005,0.00038 0,0.00195 -0.00011,0.00388 -0.00025,0.00579 0.00332,0.07062 0.06002,0.12727 0.13067,0.13048z"/>
  </g>
  <g id="graphic-horizontal-b.svg">
   <g>
    <path id="_186709952" class="fil1" d="M6.12002 0.44469c-0.14524,0 -0.26298,0.11774 -0.26298,0.26298 0,0.02219 0.00305,0.04362 0.00822,0.0642 0.01867,0.07427 0.06876,0.1359 0.13549,0.16996 7e-005,-5e-005 0.00015,-0.0001 0.00023,-0.00015l0 0.08186c0.03319,0.02487 0.07423,0.03981 0.11881,0.03981 0.04478,0 0.086,-0.01505 0.11927,-0.04013l0 -0.01309 0 0 0 -0.06845c8e-005,5e-005 0.00015,0.0001 0.00023,0.00015 0.06673,-0.03406 0.11681,-0.09569 0.13548,-0.16996 0.00518,-0.02059 0.00822,-0.04201 0.00822,-0.0642 0,-0.14524 -0.11774,-0.26298 -0.26297,-0.26298zm0.15053 0.2469c-0.00858,-0.07549 -0.07278,-0.13437 -0.15053,-0.13437l0 -0.06138c0.1118,0 0.20331,0.08621 0.21209,0.19575l-0.06156 0z"/>
    <g>
     <path id="_186709976" class="fil1" d="M6.11979 1.16752c-0.04458,0 -0.08562,-0.01494 -0.11881,-0.03981l0 0.04441c0.03319,0.02488 0.07424,0.03982 0.11881,0.03982 0.04478,0 0.086,-0.01506 0.11927,-0.04013l0 -0.04442c-0.03327,0.02507 -0.07449,0.04013 -0.11927,0.04013z"/>
     <path id="_186711488" class="fil1" d="M6.00098 1.05516l0 0.04092c0.03319,0.02488 0.07423,0.03982 0.11881,0.03982 0.04478,0 0.086,-0.01506 0.11927,-0.04013l0 -0.00527 0 -0.00783 0 0 0 -0.02782c-0.03327,0.02507 -0.07449,0.04013 -0.11927,0.04013 -0.04458,0 -0.08562,-0.01494 -0.11881,-0.03982z"/>
    </g>
   </g>
  </g>
  <g id="graphic-horizontal-c.svg">
   <g>
    <g>
     <path id="_185461816" class="fil1" d="M10.1199 0.8558c0.02541,0.01488 0.05488,0.02355 0.08645,0.02355 0.03157,0 0.06104,-0.00867 0.08645,-0.02355 0.05085,-0.02977 0.0851,-0.08482 0.0851,-0.148 0,-0.09475 -0.07681,-0.17156 -0.17155,-0.17156 -0.09475,0 -0.17155,0.07681 -0.17155,0.17156 0,0.06318 0.03425,0.11823 0.0851,0.148z"/>
     <path id="_185461792" class="fil1" d="M10.3292 0.87111c-0.03425,0.02581 -0.07668,0.04131 -0.12277,0.04131 -0.04609,0 -0.08852,-0.0155 -0.12277,-0.04131 -0.06869,0.03506 -0.12025,0.0985 -0.13947,0.17496 0.07107,0.02491 0.14672,0.04007 0.22539,0.04371l0.02327 -0.11202 -0.02588 -0.02588 0.03946 -0.03946 0.03946 0.03946 -0.02588 0.02588 0.02327 0.11202c0.07867,-0.00364 0.15432,-0.0188 0.22539,-0.04371 -0.01922,-0.07646 -0.07078,-0.1399 -0.13947,-0.17496z"/>
    </g>
    <path id="_185463160" class="fil1" d="M10.4779 0.79904c0.01859,0.01089 0.04017,0.01724 0.06328,0.01724 0.02311,0 0.04469,-0.00635 0.06328,-0.01724 0.03723,-0.02179 0.0623,-0.06209 0.0623,-0.10834 0,-0.06936 -0.05622,-0.12558 -0.12558,-0.12558 -0.06936,0 -0.12558,0.05622 -0.12558,0.12558 0,0.04625 0.02507,0.08655 0.0623,0.10834z"/>
    <path id="_185463760" class="fil1" d="M10.631 0.81025c-0.02507,0.01889 -0.05613,0.03024 -0.08987,0.03024 -0.03374,0 -0.0648,-0.01135 -0.08987,-0.03024 -0.02895,0.01477 -0.05353,0.03659 -0.07204,0.06299 0.03396,0.02459 0.06212,0.05594 0.08285,0.09205 0.01716,0.00235 0.03448,0.00421 0.05209,0.00503l0.01703 -0.082 -0.01895 -0.01895 0.02889 -0.02888 0.02889 0.02888 -0.01895 0.01895 0.01704 0.082c0.05758,-0.00267 0.11296,-0.01376 0.16498,-0.032 -0.01406,-0.05597 -0.0518,-0.10241 -0.10209,-0.12807z"/>
   </g>
  </g>
 </g>
</svg>
