<?xml version="1.0" encoding="utf-8"?>
<!-- Generator: Adobe Illustrator 17.1.0, SVG Export Plug-In . SVG Version: 6.00 Build 0)  -->
<!DOCTYPE svg PUBLIC "-//W3C//DTD SVG 1.1//EN" "http://www.w3.org/Graphics/SVG/1.1/DTD/svg11.dtd">
<svg version="1.1" id="Layer_1" xmlns="http://www.w3.org/2000/svg" xmlns:xlink="http://www.w3.org/1999/xlink" x="0px" y="0px"
	 viewBox="0 0 1440 1000" enable-background="new 0 0 1440 1000" xml:space="preserve">
<path fill="#99CC33" d="M801.529,521.225c1.652-0.125,3.316-0.21,5.001-0.21c1.685,0,3.348,0.084,5.001,0.21
	c33.679,2.557,60.216,30.673,60.216,65.007c0,0.099-0.014,0.196-0.014,0.295c0,0.102,0.014,0.2,0.014,0.302
	c0,36.018-29.199,65.217-65.217,65.217c-2.688,0-5.321-0.217-7.924-0.534c-54.382,3.951-97.636,48.005-100.129,102.78
	c0.125,1.652,0.21,3.316,0.21,5.001s-0.084,3.348-0.21,5.001c-2.557,33.679-30.673,60.216-65.007,60.216
	c-36.018,0-65.217-29.198-65.217-65.217c0-33.566,25.362-61.197,57.965-64.806c2.382-0.264,4.799-0.411,7.252-0.411
	c2.452,0,4.87,0.147,7.252,0.411c54.71-3.622,98.285-47.918,100.79-102.925c-0.115-1.565-0.199-3.138-0.199-4.732
	c0-0.101,0.012-0.199,0.013-0.301c0-0.099-0.013-0.196-0.013-0.296c0-1.555,0.081-3.089,0.19-4.616
	c-2.643-55.662-47.342-100.305-103.032-102.84c-1.653,0.125-3.317,0.21-5.002,0.21c-1.685,0-3.349-0.084-5.002-0.21
	c-33.679-2.557-60.215-30.674-60.215-65.007c0-0.103,0.014-0.202,0.015-0.305c0-0.098-0.015-0.193-0.015-0.291
	c0-36.018,29.199-65.217,65.217-65.217c2.688,0,5.321,0.218,7.924,0.534c54.382-3.951,97.637-48.005,100.129-102.78
	c-0.125-1.652-0.21-3.316-0.21-5.001s0.084-3.348,0.21-5.001c2.557-33.679,30.673-60.216,65.007-60.216
	c36.018,0,65.217,29.199,65.217,65.217s-29.199,65.217-65.217,65.217c-57.938,0-105.227,45.553-108.03,102.796
	c0.103,1.473,0.187,2.951,0.187,4.45c0,0.1-0.012,0.196-0.012,0.296c0.001,0.101,0.012,0.199,0.012,0.301
	c0,1.538-0.086,3.054-0.195,4.564C701.109,474.018,745.822,518.689,801.529,521.225z"/>
</svg>
