<?xml version="1.0" encoding="utf-8"?>
<!-- Generator: Adobe Illustrator 17.1.0, SVG Export Plug-In . SVG Version: 6.00 Build 0)  -->
<!DOCTYPE svg PUBLIC "-//W3C//DTD SVG 1.1//EN" "http://www.w3.org/Graphics/SVG/1.1/DTD/svg11.dtd">
<svg version="1.1" id="Layer_1" xmlns="http://www.w3.org/2000/svg" xmlns:xlink="http://www.w3.org/1999/xlink" x="0px" y="0px"
	 viewBox="0 0 1440 1000" enable-background="new 0 0 1440 1000" xml:space="preserve">
<g>
	<g>
		
			<radialGradient id="SVGID_1_" cx="720" cy="499.9999" r="301.5818" gradientTransform="matrix(-1 0 0 1 1440 0)" gradientUnits="userSpaceOnUse">
			<stop  offset="0" style="stop-color:#65DAEB"/>
			<stop  offset="1" style="stop-color:#18B7CF"/>
		</radialGradient>
		<path fill="url(#SVGID_1_)" d="M745.606,597.23c-0.129,1.798-0.232,3.603-0.232,5.434c0,0.121,0.014,0.238,0.015,0.358
			c0,0.118-0.015,0.234-0.015,0.352c0,1.785,0.1,3.544,0.222,5.298c-3.337,68.151-59.637,122.385-128.616,122.385
			c-42.882,0-77.645,34.763-77.645,77.645s34.763,77.645,77.645,77.645c40.877,0,74.351-31.594,77.395-71.691
			c0.149-1.968,0.25-3.948,0.25-5.954s-0.101-3.987-0.25-5.954c2.968-65.213,54.465-117.661,119.21-122.365
			c3.099,0.376,6.233,0.635,9.434,0.635c42.882,0,77.645-34.763,77.645-77.645c0-0.117-0.017-0.229-0.017-0.347
			c0-0.123,0.017-0.241,0.017-0.364c0-40.876-31.594-74.35-71.69-77.395c-1.968-0.149-3.949-0.25-5.955-0.25
			c-2.006,0-3.987,0.101-5.955,0.25c-66.302-3.018-119.518-56.169-122.665-122.437c0.13-1.818,0.226-3.645,0.226-5.496
			c0-0.118-0.015-0.234-0.015-0.352c0.001-0.121,0.015-0.237,0.015-0.358c0-1.898-0.1-3.77-0.236-5.634
			c2.983-65.49,54.861-118.226,119.996-122.539c2.836,0.314,5.714,0.489,8.634,0.489s5.798-0.175,8.634-0.489
			c38.816-4.297,69.011-37.193,69.011-77.156c0-42.882-34.762-77.645-77.645-77.645c-40.876,0-74.351,31.594-77.395,71.691
			c-0.149,1.967-0.25,3.948-0.25,5.954s0.1,3.987,0.25,5.954c-2.969,65.213-54.465,117.661-119.21,122.365
			c-3.099-0.376-6.233-0.635-9.434-0.635c-42.882,0-77.645,34.763-77.645,77.645c0,0.121,0.017,0.238,0.017,0.359
			c0,0.119-0.017,0.233-0.017,0.351c0,40.876,31.594,74.351,71.691,77.395c1.967,0.149,3.948,0.25,5.954,0.25
			c2.006,0,3.987-0.1,5.954-0.25C689.258,477.75,742.491,530.933,745.606,597.23z M760.041,191.298
			c0-34.782,28.196-62.978,62.978-62.978s62.978,28.196,62.978,62.978s-28.196,62.978-62.978,62.978
			S760.041,226.079,760.041,191.298z M679.959,397.033c0,34.782-28.196,62.978-62.978,62.978s-62.978-28.196-62.978-62.978
			s28.196-62.978,62.978-62.978S679.959,362.252,679.959,397.033z M679.959,808.702c0,34.782-28.196,62.978-62.978,62.978
			s-62.978-28.196-62.978-62.978s28.196-62.978,62.978-62.978S679.959,773.92,679.959,808.702z M760.041,603.879
			c0-34.782,28.196-62.978,62.978-62.978s62.978,28.196,62.978,62.978s-28.196,62.978-62.978,62.978
			S760.041,638.661,760.041,603.879z"/>
	</g>
	<g opacity="0.1">
		
			<radialGradient id="SVGID_2_" cx="616.9808" cy="603.879" r="103.8258" gradientTransform="matrix(-1 0 0 1 1440 0)" gradientUnits="userSpaceOnUse">
			<stop  offset="0" style="stop-color:#72D5F7"/>
			<stop  offset="1" style="stop-color:#29ABE2"/>
		</radialGradient>
		<path fill="url(#SVGID_2_)" d="M823.019,699.705c52.839,0,95.826-42.987,95.826-95.826c0-5.239-0.429-10.379-1.242-15.392
			c-2.829-18.996-11.302-36.726-24.578-50.977c-16.439-17.647-38.703-28.368-62.691-30.19c-2.674-0.202-5.067-0.301-7.315-0.301
			c-1.915,0-3.936,0.072-6.145,0.218c-7.52-0.409-14.825-1.556-21.854-3.36c8.907-2.489,18.297-3.824,27.999-3.824
			c57.341,0,103.826,46.484,103.826,103.826c0,57.342-46.484,103.826-103.826,103.826c-11.136,0-21.859-1.76-31.915-5.005
			c6.076-1.819,12.377-3.129,18.851-3.889C814.229,699.396,818.588,699.705,823.019,699.705z"/>
		
			<radialGradient id="SVGID_3_" cx="823.0191" cy="397.0333" r="103.8258" gradientTransform="matrix(-1 0 0 1 1440 0)" gradientUnits="userSpaceOnUse">
			<stop  offset="0" style="stop-color:#72D5F7"/>
			<stop  offset="1" style="stop-color:#29ABE2"/>
		</radialGradient>
		<path fill="url(#SVGID_3_)" d="M616.981,300.981c-37.912,0-70.742,22.172-86.206,54.23c-6.16,12.645-9.62,26.836-9.62,41.822
			c0,17.152,4.534,33.263,12.46,47.205c0.05,0.088,0.098,0.177,0.148,0.265c0.559,0.977,1.139,1.94,1.731,2.895
			c0.562,0.912,1.146,1.81,1.739,2.704c0.12,0.18,0.238,0.363,0.36,0.542c2.798,4.155,5.916,8.125,9.382,11.845
			c16.44,17.647,38.703,28.368,62.692,30.189c2.674,0.203,5.066,0.301,7.314,0.301c1.915,0,3.935-0.072,6.143-0.218
			c8.111,0.441,15.974,1.737,23.506,3.793c-9.396,2.795-19.346,4.303-29.65,4.303c-57.341,0-103.826-46.484-103.826-103.826
			c0-57.342,46.484-103.826,103.826-103.826c10.58,0,20.788,1.587,30.405,4.528c-6.65,1.889-13.557,3.18-20.664,3.799
			C623.196,301.158,620.061,300.981,616.981,300.981z"/>
		
			<radialGradient id="SVGID_4_" cx="616.9808" cy="191.2977" r="103.8258" gradientTransform="matrix(-1 0 0 1 1440 0)" gradientUnits="userSpaceOnUse">
			<stop  offset="0" style="stop-color:#72D5F7"/>
			<stop  offset="1" style="stop-color:#29ABE2"/>
		</radialGradient>
		<path fill="url(#SVGID_4_)" d="M823.019,287.124c52.839,0,95.826-42.987,95.826-95.826s-42.987-95.826-95.826-95.826
			s-95.826,42.987-95.826,95.826c0,2.562,0.104,5.099,0.302,7.611c-0.524,7.729-1.842,15.242-3.874,22.459
			c-2.876-9.519-4.428-19.612-4.428-30.069c0-57.341,46.484-103.826,103.826-103.826s103.826,46.484,103.826,103.826
			s-46.484,103.826-103.826,103.826c-10.717,0-21.054-1.625-30.78-4.64c6.708-1.926,13.683-3.237,20.861-3.871
			C816.361,286.949,819.67,287.124,823.019,287.124z"/>
		
			<radialGradient id="SVGID_5_" cx="823.0191" cy="808.7021" r="103.8259" gradientTransform="matrix(-1 0 0 1 1440 0)" gradientUnits="userSpaceOnUse">
			<stop  offset="0" style="stop-color:#72D5F7"/>
			<stop  offset="1" style="stop-color:#29ABE2"/>
		</radialGradient>
		<path fill="url(#SVGID_5_)" d="M616.981,704.876c10.224,0,20.099,1.485,29.43,4.238c-8.094,2.218-16.555,3.537-25.266,3.858
			c-1.381-0.059-2.769-0.096-4.164-0.096c-52.839,0-95.826,42.987-95.826,95.826s42.987,95.826,95.826,95.826
			c52.839,0,95.826-42.987,95.826-95.826c0-2.562-0.104-5.1-0.302-7.612c0.524-7.73,1.841-15.244,3.873-22.461
			c2.877,9.52,4.429,19.615,4.429,30.073c0,57.342-46.484,103.826-103.826,103.826s-103.826-46.484-103.826-103.826
			C513.155,751.361,559.64,704.876,616.981,704.876z"/>
	</g>
</g>
</svg>
