<?xml version="1.0" encoding="UTF-8"?>
<!DOCTYPE svg PUBLIC "-//W3C//DTD SVG 1.1//EN" "http://www.w3.org/Graphics/SVG/1.1/DTD/svg11.dtd">
<!-- Creator: CorelDRAW X5 -->
<svg xmlns="http://www.w3.org/2000/svg" xml:space="preserve" width="100%" height="100%" style="shape-rendering:geometricPrecision; text-rendering:geometricPrecision; image-rendering:optimizeQuality; fill-rule:evenodd; clip-rule:evenodd"
viewBox="0 0 3.57101 7.01722"
 xmlns:xlink="http://www.w3.org/1999/xlink">
 <defs>
  <style type="text/css">
   <![CDATA[
    .fil5 {fill:#ffffff}
    .fil0 {fill:url(#id0)}
    .fil3 {fill:url(#id1);fill-opacity:0.101961}
    .fil1 {fill:url(#id2);fill-opacity:0.101961}
    .fil2 {fill:url(#id3);fill-opacity:0.101961}
    .fil4 {fill:url(#id4);fill-opacity:0.101961}
   ]]>
  </style>
  <radialGradient id="id0" gradientUnits="userSpaceOnUse" cx="1.76553" cy="3.52443" r="2.55143" fx="1.76553" fy="3.52443">
   <stop offset="0" style="stop-color:#96C9C0"/>
   <stop offset="1" style="stop-color:#96C9C0"/>
   <stop offset="1" style="stop-color:#96C9C0"/>
  </radialGradient>
  <radialGradient id="id1" gradientUnits="userSpaceOnUse" cx="1.97733" cy="1.28468" r="0.86803" fx="1.97733" fy="1.28468">
   <stop offset="0" style="stop-color:#72D5F7"/>
   <stop offset="1" style="stop-color:#29ABE2"/>
   <stop offset="1" style="stop-color:#29ABE2"/>
  </radialGradient>
  <radialGradient id="id2" gradientUnits="userSpaceOnUse" xlink:href="#id1" cx="1.79292" cy="4.40394" r="0.87906" fx="1.79292" fy="4.40394">
  </radialGradient>
  <radialGradient id="id3" gradientUnits="userSpaceOnUse" xlink:href="#id1" cx="1.71896" cy="2.65262" r="0.87906" fx="1.71896" fy="2.65262">
  </radialGradient>
  <radialGradient id="id4" gradientUnits="userSpaceOnUse" xlink:href="#id1" cx="1.59368" cy="5.73254" r="0.86803" fx="1.59368" fy="5.73254">
  </radialGradient>
 </defs>
 <g id="Layer_x0020_1">
  <metadata id="CorelCorpID_0Corel-Layer"/>
  <path class="fil0" d="M1.98233 4.34765c-0.00109,0.01522 -0.00196,0.03051 -0.00196,0.04601 0,0.00102 0.00012,0.00202 0.00013,0.00303 0,0.001 -0.00013,0.00198 -0.00013,0.00298 0,0.01511 0.00085,0.03001 0.00188,0.04486 -0.02825,0.57701 -0.50493,1.03619 -1.08895,1.03619 -0.36307,0 -0.65739,0.29433 -0.65739,0.65739 0,0.36306 0.29433,0.65739 0.65739,0.65739 0.34609,0 0.62951,-0.2675 0.65528,-0.60698 0.00126,-0.01666 0.00212,-0.03343 0.00212,-0.05041 0,-0.01698 -0.00086,-0.03376 -0.00212,-0.05041 0.02513,-0.55214 0.46114,-0.9962 1.00931,-1.03602 0.02624,0.00318 0.05277,0.00538 0.07987,0.00538 0.36307,0 0.65739,-0.29433 0.65739,-0.65739 0,-0.00099 -0.00014,-0.00194 -0.00014,-0.00294 0,-0.00104 0.00014,-0.00204 0.00014,-0.00308 0,-0.34608 -0.2675,-0.6295 -0.60698,-0.65528 -0.01666,-0.00126 -0.03343,-0.00212 -0.05042,-0.00212 -0.01698,0 -0.03376,0.00086 -0.05042,0.00212 -0.56136,-0.02555 -1.01192,-0.47556 -1.03856,-1.03663 0.0011,-0.01539 0.00191,-0.03086 0.00191,-0.04653 0,-0.001 -0.00013,-0.00198 -0.00013,-0.00298 1e-005,-0.00102 0.00013,-0.00201 0.00013,-0.00303 0,-0.01607 -0.00085,-0.03192 -0.002,-0.0477 0.02526,-0.55448 0.46449,-1.00098 1.01597,-1.0375 0.02401,0.00266 0.04838,0.00414 0.0731,0.00414 0.02472,0 0.04909,-0.00148 0.0731,-0.00414 0.32864,-0.03638 0.58429,-0.3149 0.58429,-0.65325 0,-0.36307 -0.29432,-0.65739 -0.65739,-0.65739 -0.34608,0 -0.62951,0.2675 -0.65528,0.60698 -0.00126,0.01665 -0.00212,0.03343 -0.00212,0.05041 0,0.01698 0.00085,0.03376 0.00212,0.05041 -0.02514,0.55214 -0.46114,0.9962 -1.00931,1.03602 -0.02624,-0.00318 -0.05277,-0.00538 -0.07987,-0.00538 -0.36307,0 -0.65739,0.29433 -0.65739,0.65739 0,0.00102 0.00014,0.00202 0.00014,0.00304 0,0.00101 -0.00014,0.00197 -0.00014,0.00297 0,0.34608 0.2675,0.62951 0.60698,0.65528 0.01665,0.00126 0.03343,0.00212 0.05041,0.00212 0.01698,0 0.03376,-0.00085 0.05041,-0.00212 0.56155,0.02558 1.01225,0.47586 1.03863,1.03717zm0.12221 -3.43689c0,-0.29449 0.23873,-0.53321 0.53321,-0.53321 0.29448,0 0.53321,0.23873 0.53321,0.53321 0,0.29448 -0.23873,0.53321 -0.53321,0.53321 -0.29448,0 -0.53321,-0.23873 -0.53321,-0.53321zm-0.67802 1.74189c0,0.29449 -0.23873,0.53321 -0.53321,0.53321 -0.29448,0 -0.53321,-0.23873 -0.53321,-0.53321 0,-0.29448 0.23873,-0.53321 0.53321,-0.53321 0.29448,0 0.53321,0.23873 0.53321,0.53321zm0 3.48547c0,0.29449 -0.23873,0.53321 -0.53321,0.53321 -0.29448,0 -0.53321,-0.23873 -0.53321,-0.53321 0,-0.29448 0.23873,-0.53321 0.53321,-0.53321 0.29448,0 0.53321,0.23872 0.53321,0.53321zm0.67802 -1.73417c0,-0.29449 0.23873,-0.53321 0.53321,-0.53321 0.29448,0 0.53321,0.23873 0.53321,0.53321 0,0.29448 -0.23873,0.53321 -0.53321,0.53321 -0.29448,0 -0.53321,-0.23872 -0.53321,-0.53321z"/>
  <path class="fil1" d="M2.63776 5.21528c0.44737,0 0.81133,-0.36396 0.81133,-0.81133 0,-0.04436 -0.00363,-0.08788 -0.01052,-0.13032 -0.02395,-0.16083 -0.09569,-0.31095 -0.20809,-0.43161 -0.13918,-0.14941 -0.32769,-0.24018 -0.53078,-0.25561 -0.02264,-0.00171 -0.0429,-0.00255 -0.06193,-0.00255 -0.01621,0 -0.03332,0.00061 -0.05203,0.00185 -0.06367,-0.00346 -0.12552,-0.01317 -0.18503,-0.02845 0.07541,-0.02107 0.15491,-0.03238 0.23706,-0.03238 0.48549,0 0.87906,0.39356 0.87906,0.87906 0,0.4855 -0.39356,0.87906 -0.87906,0.87906 -0.09428,0 -0.18507,-0.0149 -0.27021,-0.04238 0.05144,-0.0154 0.10479,-0.02649 0.15961,-0.03293 0.03617,0.00497 0.07307,0.00759 0.11059,0.00759z"/>
  <path class="fil2" d="M0.8933 1.83941c-0.32099,0 -0.59895,0.18772 -0.72988,0.45915 -0.05215,0.10706 -0.08145,0.22721 -0.08145,0.35409 0,0.14522 0.03839,0.28163 0.10549,0.39967 0.00042,0.00075 0.00083,0.0015 0.00125,0.00224 0.00473,0.00827 0.00964,0.01643 0.01466,0.02451 0.00476,0.00772 0.0097,0.01532 0.01472,0.02289 0.00102,0.00152 0.00202,0.00307 0.00305,0.00459 0.02369,0.03518 0.05009,0.06879 0.07943,0.10029 0.13919,0.14941 0.32769,0.24018 0.53079,0.2556 0.02264,0.00172 0.04289,0.00255 0.06193,0.00255 0.01621,0 0.03332,-0.00061 0.05201,-0.00185 0.06867,0.00373 0.13525,0.01471 0.19902,0.03211 -0.07955,0.02366 -0.1638,0.03643 -0.25104,0.03643 -0.48549,0 -0.87906,-0.39356 -0.87906,-0.87906 0,-0.4855 0.39356,-0.87906 0.87906,-0.87906 0.08958,0 0.17601,0.01344 0.25743,0.03834 -0.0563,0.01599 -0.11478,0.02692 -0.17496,0.03216 -0.02983,-0.00315 -0.05637,-0.00465 -0.08245,-0.00465z"/>
  <path class="fil3" d="M3.09821 1.58358c0.27803,-0.16042 0.42496,-0.46194 0.40271,-0.76247 -0.00834,-0.1188 -0.04301,-0.23751 -0.10643,-0.34741 -0.07258,-0.12578 -0.174,-0.22474 -0.29112,-0.29345 -0.00074,-0.00044 -0.00147,-0.00088 -0.0022,-0.00131 -0.00823,-0.0048 -0.01656,-0.00941 -0.02495,-0.0139 -0.00798,-0.00431 -0.01606,-0.00843 -0.02419,-0.01247 -0.00164,-0.00081 -0.00328,-0.00165 -0.00493,-0.00245 -0.03811,-0.01864 -0.07777,-0.03455 -0.11893,-0.04717 -0.19523,-0.05985 -0.40386,-0.04426 -0.58748,0.0439 -0.02047,0.00982 -0.03843,0.01922 -0.05492,0.02874 -0.01404,0.0081 -0.02855,0.01718 -0.04412,0.0276 -0.06135,0.03108 -0.1245,0.05485 -0.18843,0.07165 0.05708,-0.06025 0.12367,-0.11342 0.19923,-0.15702 0.4205,-0.24264 0.95809,-0.09846 1.20074,0.32205 0.24265,0.42051 0.09846,0.95809 -0.32205,1.20074 -0.07759,0.04477 -0.15917,0.07633 -0.24213,0.09545 0.04077,-0.04199 0.08596,-0.08068 0.13546,-0.1153 0.02742,-0.01218 0.05115,-0.02414 0.07374,-0.03718z"/>
  <path class="fil4" d="M0.4728 5.43364c-0.27803,0.16042 -0.42496,0.46194 -0.40271,0.76247 0.00834,0.1188 0.04301,0.23751 0.10643,0.34741 0.07258,0.12578 0.174,0.22474 0.29112,0.29345 0.00074,0.00044 0.00147,0.00088 0.0022,0.00131 0.00823,0.0048 0.01656,0.00941 0.02495,0.0139 0.00798,0.00431 0.01606,0.00843 0.02419,0.01247 0.00164,0.00081 0.00328,0.00165 0.00493,0.00245 0.03811,0.01864 0.07777,0.03455 0.11893,0.04717 0.19523,0.05985 0.40386,0.04426 0.58748,-0.0439 0.02047,-0.00982 0.03843,-0.01922 0.05492,-0.02874 0.01404,-0.0081 0.02855,-0.01718 0.04412,-0.0276 0.06135,-0.03108 0.1245,-0.05485 0.18843,-0.07165 -0.05708,0.06025 -0.12367,0.11342 -0.19923,0.15702 -0.4205,0.24264 -0.95809,0.09846 -1.20074,-0.32205 -0.24265,-0.42051 -0.09846,-0.95809 0.32205,-1.20074 0.07759,-0.04477 0.15917,-0.07633 0.24213,-0.09545 -0.04077,0.04199 -0.08596,0.08068 -0.13546,0.1153 -0.02742,0.01218 -0.05115,0.02414 -0.07374,0.03718z"/>
  <g id="_189082976">
   <rect id="_189083000" class="fil5" x="2.58339" y="0.6539" width="0.106896" height="0.45009"/>
   <rect id="_189083096" class="fil5" x="2.41179" y="0.845255" width="0.107892" height="0.258735"/>
   <rect id="_187881184" class="fil5" x="2.7541" y="0.759592" width="0.107777" height="0.344397"/>
  </g>
  <g id="_187216152">
   <path id="_187245240" class="fil5" d="M1.0957 2.7145l-0.18816 -0.26927c-0.0146,-0.02089 -0.04552,-0.02089 -0.06012,0l-0.18816 0.26927c-0.01699,0.02431 0.0004,0.05769 0.03006,0.05769l0.37632 0c0.02966,-1e-005 0.04705,-0.03338 0.03006,-0.05769zm-0.19199 -0.19894l-0.00677 0.13939c-0.00015,0.00314 -0.00274,0.0056 -0.00588,0.0056l-0.02684 0c-0.00314,0 -0.00572,-0.00246 -0.00588,-0.00559l-0.00707 -0.13939c-0.00017,-0.00336 0.00251,-0.00618 0.00587,-0.00618l0.04069 0c0.00336,0 0.00604,0.00281 0.00588,0.00617zm-0.02606 0.22241c-0.01802,0 -0.03004,-0.01302 -0.03004,-0.03037 0,-0.01769 0.01235,-0.03037 0.03004,-0.03037 0.01768,0 0.02936,0.01268 0.0297,0.03037 0,0.01735 -0.01168,0.03037 -0.0297,0.03037z"/>
  </g>
  <g id="_188300624">
   <path id="_188300360" class="fil5" d="M2.39886 4.40946l0.23722 0.00357 -0.00458 -0.23721c-0.1239,0.01065 -0.22252,0.1096 -0.23264,0.23364z"/>
   <path id="_188300312" class="fil5" d="M2.87513 4.42577c-0.00367,-0.11472 -0.09711,-0.20817 -0.21184,-0.21183 -0.00177,-5e-005 -0.00351,-1e-005 -0.00527,-3e-005l0.00436 0.22529 -0.22529 -0.00339c2e-005,0.00144 -2e-005,0.00286 3e-005,0.00431 0.00366,0.11472 0.0971,0.20817 0.21183,0.21183 0.12669,0.00404 0.23022,-0.09949 0.22618,-0.22618z"/>
  </g>
  <g id="_188843440">
   <ellipse id="_188842936" class="fil5" cx="0.87528" cy="5.95065" rx="0.249145" ry="0.0550525"/>
   <path id="_188842912" class="fil5" d="M0.87528 6.27554c-0.13608,0 -0.24667,-0.02411 -0.24909,-0.05405 -2e-005,0.00033 -5e-005,0.00067 -5e-005,0.001l0 0.08108c0,0.0304 0.11154,0.05505 0.24914,0.05505 0.1376,0 0.24914,-0.02465 0.24914,-0.05505l0 -0.08108c0,-0.00033 -3e-005,-0.00067 -5e-005,-0.001 -0.00242,0.02994 -0.11301,0.05405 -0.24909,0.05405z"/>
   <path id="_188845096" class="fil5" d="M0.87528 6.1582c-0.13608,0 -0.24667,-0.0241 -0.24909,-0.05405 -2e-005,0.00034 -5e-005,0.00067 -5e-005,0.00101l0 0.08107c0,0.03041 0.11154,0.05505 0.24914,0.05505 0.1376,0 0.24914,-0.02464 0.24914,-0.05505l0 -0.08107c0,-0.00034 -3e-005,-0.00067 -5e-005,-0.00101 -0.00242,0.02995 -0.11301,0.05405 -0.24909,0.05405z"/>
   <path id="_188845288" class="fil5" d="M0.87528 6.04179c-0.13608,0 -0.24667,-0.02411 -0.24909,-0.05406 -2e-005,0.00034 -5e-005,0.00067 -5e-005,0.00101l0 0.08107c0,0.03041 0.11154,0.05506 0.24914,0.05506 0.1376,0 0.24914,-0.02465 0.24914,-0.05506l0 -0.08107c0,-0.00034 -3e-005,-0.00067 -5e-005,-0.00101 -0.00242,0.02995 -0.11301,0.05406 -0.24909,0.05406z"/>
  </g>
 </g>
</svg>
