<?xml version="1.0" encoding="utf-8"?>
<!-- Generator: Adobe Illustrator 17.1.0, SVG Export Plug-In . SVG Version: 6.00 Build 0)  -->
<!DOCTYPE svg PUBLIC "-//W3C//DTD SVG 1.1//EN" "http://www.w3.org/Graphics/SVG/1.1/DTD/svg11.dtd">
<svg version="1.1" id="Layer_1" xmlns="http://www.w3.org/2000/svg" xmlns:xlink="http://www.w3.org/1999/xlink" x="0px" y="0px"
	 viewBox="0 0 1440 1000" enable-background="new 0 0 1440 1000" xml:space="preserve">
<g>
	<path fill="#99CC33" d="M720,175.08c-123.012,0-222.735,99.722-222.735,222.735c0,18.795,2.581,36.943,6.964,54.377
		c15.814,62.904,58.234,115.107,114.754,143.957c0.063-0.047,0.129-0.087,0.193-0.133v69.331
		c28.113,21.07,62.877,33.726,100.634,33.726c37.922,0,72.836-12.755,101.015-33.991l0.002-11.091h-0.002v-57.976
		c0.066,0.043,0.129,0.087,0.193,0.133c56.522-28.849,98.94-81.052,114.754-143.957c4.383-17.435,6.964-35.582,6.964-54.377
		C942.735,274.803,843.012,175.08,720,175.08z M847.499,384.201C840.229,320.255,785.858,270.39,720,270.39v-51.987
		c94.698,0,172.199,73.016,179.639,165.798H847.499z"/>
	<g>
		<path fill="#99CC33" d="M719.809,787.301c-37.756,0-72.519-12.654-100.632-33.724v37.618
			c28.113,21.069,62.878,33.725,100.632,33.725c37.923,0,72.838-12.754,101.016-33.99v-37.62
			C792.647,774.547,757.732,787.301,719.809,787.301z"/>
		<path fill="#99CC33" d="M619.177,692.135v34.654c28.113,21.071,62.876,33.727,100.632,33.727
			c37.923,0,72.836-12.755,101.016-33.991v-4.463v-6.629l0,0v-23.565c-28.178,21.239-63.093,33.991-101.016,33.991
			C682.052,725.859,647.29,713.205,619.177,692.135z"/>
	</g>
</g>
</svg>
