<?xml version="1.0" encoding="utf-8"?>
<!-- Generator: Adobe Illustrator 17.1.0, SVG Export Plug-In . SVG Version: 6.00 Build 0)  -->
<!DOCTYPE svg PUBLIC "-//W3C//DTD SVG 1.1//EN" "http://www.w3.org/Graphics/SVG/1.1/DTD/svg11.dtd">
<svg version="1.1" id="Layer_1" xmlns="http://www.w3.org/2000/svg" xmlns:xlink="http://www.w3.org/1999/xlink" x="0px" y="0px"
	 viewBox="0 0 1440 1000" enable-background="new 0 0 1440 1000" xml:space="preserve">
<g>
	<g>
		<path fill="#99CC33" d="M517.249,539.673c23.556,13.791,50.885,21.832,80.151,21.832c29.267,0,56.597-8.041,80.152-21.832
			c47.145-27.602,78.901-78.645,78.901-137.221c0-87.843-71.211-159.054-159.054-159.054c-87.842,0-159.053,71.211-159.053,159.054
			C438.347,461.028,470.104,512.071,517.249,539.673z"/>
		<path fill="#99CC33" d="M711.226,553.864c-31.751,23.93-71.094,38.301-113.826,38.301s-82.073-14.371-113.825-38.301
			c-63.689,32.507-111.487,91.329-129.306,162.211c65.891,23.099,136.027,37.153,208.966,40.526l21.578-103.853l-23.997-23.997
			l36.585-36.585l36.585,36.585l-23.997,23.997l21.578,103.853c72.939-3.373,143.074-17.427,208.965-40.526
			C822.713,645.194,774.915,586.372,711.226,553.864z"/>
	</g>
	<path fill="#99CC33" d="M849.079,487.048c17.243,10.095,37.249,15.982,58.673,15.982c21.424,0,41.43-5.886,58.673-15.982
		c34.511-20.205,57.758-57.57,57.758-100.449c0-64.303-52.128-116.431-116.431-116.431c-64.302,0-116.43,52.128-116.43,116.431
		C791.322,429.478,814.568,466.843,849.079,487.048z"/>
	<path fill="#99CC33" d="M991.076,497.437c-23.243,17.517-52.043,28.037-83.323,28.037c-31.281,0-60.079-10.52-83.323-28.037
		c-26.839,13.698-49.627,33.931-66.788,58.406c31.486,22.8,57.586,51.865,76.809,85.337c15.912,2.183,31.967,3.909,48.292,4.664
		l15.795-76.023l-17.567-17.567l26.781-26.781l26.781,26.781l-17.566,17.567l15.795,76.023
		c53.393-2.469,104.734-12.757,152.967-29.666C1072.686,564.291,1037.697,521.232,991.076,497.437z"/>
</g>
</svg>
