<?xml version="1.0" encoding="UTF-8" standalone="no"?>
<!-- Created with Inkscape (http://www.inkscape.org/) -->

<svg
   xmlns:dc="http://purl.org/dc/elements/1.1/"
   xmlns:cc="http://creativecommons.org/ns#"
   xmlns:rdf="http://www.w3.org/1999/02/22-rdf-syntax-ns#"
   xmlns:svg="http://www.w3.org/2000/svg"
   xmlns="http://www.w3.org/2000/svg"
   xmlns:sodipodi="http://sodipodi.sourceforge.net/DTD/sodipodi-0.dtd"
   xmlns:inkscape="http://www.inkscape.org/namespaces/inkscape"
   width="210mm"
   height="297mm"
   id="svg5902"
   version="1.1"
   inkscape:version="0.48.5 r10040"
   sodipodi:docname="New document 10">
  <defs
     id="defs3" />
  <sodipodi:namedview
     inkscape:document-units="mm"
     id="base"
     pagecolor="#ffffff"
     bordercolor="#666666"
     borderopacity="1.0"
     inkscape:pageopacity="0.0"
     inkscape:pageshadow="2"
     inkscape:zoom="0.35"
     inkscape:cx="350"
     inkscape:cy="520"
     inkscape:current-layer="layer1"
     showgrid="false"
     units="mm"
     showborder="false"
     inkscape:window-width="1366"
     inkscape:window-height="707"
     inkscape:window-x="-9"
     inkscape:window-y="-9"
     inkscape:window-maximized="1" />
  <metadata
     id="metadata4">
    <rdf:RDF>
      <cc:Work
         rdf:about="">
        <dc:format>image/svg+xml</dc:format>
        <dc:type
           rdf:resource="http://purl.org/dc/dcmitype/StillImage" />
        <dc:title></dc:title>
      </cc:Work>
    </rdf:RDF>
  </metadata>
  <g
     inkscape:label="Layer 1"
     inkscape:groupmode="layer"
     id="layer1">
    <g
       transform="translate(-300.001,78.074468)"
       id="g5882">
      <g
         id="g2997">
        <path
           style="fill:#99cc33"
           inkscape:connector-curvature="0"
           id="path2999"
           d="m 741.705,582.415 c -0.109,1.524 -0.196,3.054 -0.196,4.606 0,0.102 0.012,0.202 0.012,0.304 0,0.1 -0.012,0.198 -0.012,0.299 0,1.513 0.084,3.004 0.188,4.491 -2.829,57.766 -50.55,103.736 -109.018,103.736 -36.347,0 -65.813,29.466 -65.813,65.814 0,36.348 29.466,65.813 65.813,65.813 34.648,0 63.022,-26.78 65.602,-60.767 0.127,-1.668 0.212,-3.347 0.212,-5.047 0,-1.7 -0.085,-3.379 -0.212,-5.047 2.516,-55.276 46.166,-99.732 101.045,-103.719 2.626,0.319 5.283,0.539 7.996,0.539 36.348,0 65.813,-29.466 65.813,-65.813 0,-0.099 -0.014,-0.195 -0.015,-0.294 0,-0.104 0.015,-0.204 0.015,-0.308 0,-34.647 -26.779,-63.021 -60.766,-65.602 -1.668,-0.126 -3.347,-0.212 -5.047,-0.212 -1.7,0 -3.38,0.085 -5.047,0.212 -56.199,-2.558 -101.306,-47.61 -103.974,-103.78 0.11,-1.541 0.192,-3.089 0.192,-4.659 0,-0.1 -0.013,-0.198 -0.013,-0.299 10e-4,-0.102 0.013,-0.201 0.013,-0.303 0,-1.609 -0.085,-3.196 -0.2,-4.775 2.528,-55.511 46.501,-100.211 101.712,-103.866 2.404,0.266 4.843,0.414 7.318,0.414 2.475,0 4.914,-0.148 7.318,-0.414 32.902,-3.642 58.495,-31.526 58.495,-65.399 0,-36.348 -29.465,-65.813 -65.813,-65.813 -34.648,0 -63.021,26.78 -65.602,60.767 -0.127,1.668 -0.212,3.347 -0.212,5.047 0,1.7 0.085,3.379 0.212,5.047 -2.516,55.276 -46.165,99.732 -101.045,103.719 -2.627,-0.319 -5.283,-0.538 -7.996,-0.538 -36.347,0 -65.813,29.466 -65.813,65.813 0,0.103 0.014,0.202 0.014,0.304 0,0.101 -0.014,0.197 -0.014,0.298 0,34.648 26.78,63.021 60.767,65.602 1.668,0.127 3.347,0.212 5.047,0.212 1.7,0 3.379,-0.085 5.047,-0.212 56.214,2.555 101.336,47.634 103.977,103.83 z m 23.982,-344.078 c 0,-22.994 18.641,-41.635 41.635,-41.635 22.994,0 41.635,18.641 41.635,41.635 0,22.994 -18.641,41.635 -41.635,41.635 -22.995,0 -41.635,-18.641 -41.635,-41.635 z m -91.373,174.386 c 0,22.994 -18.641,41.635 -41.635,41.635 -22.994,0 -41.635,-18.64 -41.635,-41.635 0,-22.995 18.641,-41.635 41.635,-41.635 22.994,0 41.635,18.641 41.635,41.635 z m 0,348.94 c 0,22.994 -18.641,41.635 -41.635,41.635 -22.994,0 -41.635,-18.641 -41.635,-41.635 0,-22.994 18.641,-41.635 41.635,-41.635 22.994,0 41.635,18.641 41.635,41.635 z M 765.687,588.05 c 0,-22.994 18.641,-41.635 41.635,-41.635 22.994,0 41.635,18.64 41.635,41.635 0,22.994 -18.641,41.635 -41.635,41.635 -22.995,0 -41.635,-18.641 -41.635,-41.635 z" />
      </g>
      <path
         inkscape:connector-curvature="0"
         id="path3007"
         d="m 608.69164,821.47158 c -15.12136,-5.97 -30.05309,-21.24198 -35.88539,-36.7031 -3.64104,-9.65223 -4.32979,-14.75632 -3.62777,-26.88425 2.01457,-34.80329 26.36601,-57.86052 64.39437,-60.97193 34.28735,-2.80533 57.10066,-12.78919 77.82017,-34.05663 21.93997,-22.52018 32.29833,-50.37775 30.34829,-81.61815 -1.80287,-28.88285 -11.64869,-51.18483 -31.25086,-70.78698 -20.10966,-20.10966 -40.33466,-28.96854 -73.33318,-32.1211 -11.56034,-1.10443 -24.26505,-3.61645 -29.38064,-5.80924 -12.03903,-5.16054 -26.2508,-18.57705 -32.75605,-30.92309 -4.6591,-8.84232 -5.3008,-12.35569 -5.3008,-29.02226 0,-16.69515 0.63445,-20.15519 5.30698,-28.94212 11.68227,-21.9691 31.53441,-34.04675 58.65258,-35.6831 18.41297,-1.11106 23.65915,-2.13103 38.58834,-7.50237 14.55691,-5.2374 30.23223,-15.95624 41.24123,-28.20089 18.16264,-20.20123 25.77552,-38.88122 28.78345,-70.62691 2.30492,-24.32618 8.27132,-38.74909 20.65934,-49.94092 32.60459,-29.45629 82.49826,-20.34071 102.27235,18.68518 5.04617,9.95906 5.87353,13.84219 5.87216,27.56043 -0.002,19.0644 -5.70272,33.38021 -18.14461,45.56452 -13.12655,12.85478 -23.98372,17.17073 -49.09188,19.51505 -33.99289,3.17387 -54.04978,12.07056 -74.89135,33.21977 -57.42119,58.26875 -31.82291,156.62609 47.31906,181.81595 3.84231,1.22296 16.11443,3.06681 27.27137,4.09745 12.20904,1.12784 23.8715,3.46024 29.29276,5.8583 12.75391,5.64166 26.25818,18.85098 32.71636,32.0018 7.77911,15.84057 7.90823,38.18193 0.31312,54.17467 -11.48952,24.19307 -30.36463,35.67359 -62.81477,38.20618 -33.00178,2.57565 -58.45982,14.46597 -77.85571,36.36294 -16.95582,19.14225 -25.45364,41.0407 -27.77924,71.58563 -2.15639,28.32243 -14.33069,47.83281 -37.21293,59.6369 -12.78701,6.59635 -36.85478,7.30084 -51.52675,1.50827 l 0,0 z m 46.98974,-24.38074 c 12.39755,-8.26475 17.5942,-17.57747 18.41471,-33.00026 0.87114,-16.37447 -4.6526,-28.16938 -17.39532,-37.14447 -7.69427,-5.4193 -9.98566,-5.98803 -24.12592,-5.98803 -14.14026,0 -16.43165,0.56873 -24.12592,5.98803 -4.67595,3.29341 -10.66962,10.02994 -13.31926,14.97006 -4.0789,7.60491 -4.68231,10.99866 -3.93565,22.13509 1.00195,14.94409 6.48694,25.02864 17.79093,32.7099 8.99184,6.1101 12.47042,6.91377 26.73635,6.17698 9.04129,-0.46696 14.12195,-1.95533 19.96008,-5.8473 l 0,0 z M 825.18962,626.35557 c 14.24992,-6.59751 24.97084,-22.88331 24.93896,-37.88397 -0.0495,-23.29964 -19.25341,-42.16421 -42.92263,-42.16421 -32.38954,0 -51.89185,32.62343 -36.93415,61.78341 9.98982,19.47511 34.61451,27.66489 54.91782,18.26477 z M 656.78669,447.44461 c 23.82657,-16.78213 23.84625,-52.25744 0.0386,-69.50365 -7.93071,-5.74497 -9.98585,-6.28427 -23.94782,-6.28427 -13.2737,0 -16.27684,0.69389 -22.94513,5.30155 -4.21987,2.91585 -10.05393,8.75418 -12.96458,12.97406 -4.59405,6.66049 -5.29332,9.68916 -5.30155,22.96189 -0.009,13.77449 0.58382,16.13254 5.97854,23.79886 9.01326,12.80855 20.75008,18.27539 37.33913,17.39204 10.94204,-0.58265 14.92409,-1.79547 21.80285,-6.64048 l 0,0 z M 830.98721,273.42596 c 11.84772,-8.31779 18.10257,-20.62792 18.03864,-35.50181 -0.10415,-24.23583 -17.45944,-41.44259 -41.8003,-41.44259 -19.56481,0 -34.74415,11.36632 -40.18814,30.09295 -6.38277,21.95595 5.63485,45.62156 26.5853,52.35295 10.60701,3.40803 28.40697,0.78719 37.3645,-5.5015 l 0,0 z"
         style="fill:#c8b7b7" />
      <g
         transform="matrix(0.09752857,0,0,0.1102899,672.75955,378.27519)"
         id="g3808">
        <path
           style="fill:#c8b7b7"
           d="m -725.02338,402.51022 c -12.44803,-4.29962 -23.27732,-12.5365 -30.71005,-23.35846 -15.99638,-23.29052 -10.99518,-59.75459 10.5343,-76.80625 20.87711,-16.53499 40.04106,-18.1677 68.83695,-5.86475 22.55449,9.63633 31.76894,11.89346 48.81374,11.95717 26.93587,0.1008 51.47409,-9.96851 70.897,-29.09242 19.89248,-19.58622 28.68378,-41.5671 28.77495,-71.94594 0.10497,-34.96963 -15.50331,-63.40695 -45.73269,-83.32216 -7.48867,-4.93356 -16.41199,-12.36241 -19.8296,-16.50857 -15.72994,-19.083146 -16.79276,-50.151124 -2.39554,-70.025908 12.2325,-16.886478 28.09805,-25.01318 48.63564,-24.912314 32.31193,0.158692 57.89339,25.921324 57.87469,58.284583 -0.006,10.826368 -1.24699,15.664717 -7.36244,28.710487 -4.04521,8.629422 -8.66493,20.719332 -10.26604,26.866462 -10.53216,40.43568 7.11006,84.45181 43.63187,108.85855 22.35996,14.9427 32.16288,31.15016 32.16288,53.17595 0,15.99669 -5.60056,29.42393 -17.22689,41.30118 -19.53639,19.958 -45.62441,22.25593 -76.85277,6.76948 -27.10352,-13.44092 -59.62622,-13.43152 -87.82256,0.0254 -16.40912,7.83136 -26.15095,16.56513 -40.96702,36.7279 -12.89689,17.55098 -22.9589,25.4513 -38.1677,29.96783 -12.93724,3.84195 -19.85931,3.67153 -32.82872,-0.80817 l 0,0 z"
           id="path3802"
           inkscape:connector-curvature="0" />
        <path
           style="fill:#c8b7b7"
           d="m -134.62321,403.71144 c -14.09188,-3.98479 -26.31465,-13.69635 -36.88176,-29.30433 -12.0289,-17.76709 -24.9105,-29.4381 -41.51245,-37.61122 -27.92202,-13.74597 -59.47535,-13.85094 -88.26336,-0.29363 -19.62718,9.24315 -23.36327,10.27184 -36.70408,10.10611 -22.29706,-0.27699 -42.29613,-13.13753 -52.33854,-33.65663 -6.48502,-13.25048 -6.61867,-35.64347 -0.28938,-48.48639 5.23731,-10.62714 14.27777,-20.38674 25.39968,-27.42014 11.81585,-7.47223 28.2292,-23.69515 34.0881,-33.6926 12.31627,-21.01612 17.44955,-49.49528 12.88991,-71.51259 -1.36408,-6.58682 -6.13075,-20.05988 -10.5926,-29.94012 -6.76805,-14.987052 -8.1215,-20.114136 -8.16709,-30.93812 -0.17945,-42.607693 44.7151,-71.21184197 83.19591,-53.007505 20.32827,9.616811 33.03761,29.576651 33.24489,52.210653 0.20892,22.811976 -7.37083,36.004222 -30.36346,52.846362 -35.79369,26.21893 -49.09796,52.86277 -46.84176,93.8078 0.90889,16.49431 2.05326,21.33876 8.16606,34.56912 9.66404,20.91654 26.45707,37.72712 48.07354,48.12379 14.14966,6.80545 17.90696,7.72186 35.04278,8.54701 23.39397,1.12648 35.6277,-1.3097 55.59804,-11.07166 14.02686,-6.85665 16.64447,-7.45914 32.23273,-7.41892 19.256849,0.0497 27.560861,3.30121 40.435911,15.83315 12.755808,12.41589 16.403014,21.53687 16.398363,41.0093 -0.004,14.51751 -0.773692,18.43234 -5.336886,27.12579 -12.810699,24.40601 -41.888618,37.40972 -67.474548,30.17477 l 0,0 z"
           id="path3804"
           inkscape:connector-curvature="0" />
        <path
           style="fill:#c8b7b7"
           d="m -581.87869,637.61641 c -33.93067,-5.03387 -56.6813,-40.76263 -47.05068,-73.8908 7.58737,-26.09963 33.02256,-43.66203 63.23462,-43.66203 20.31303,0 46.98979,-11.9651 63.66863,-28.55674 18.3709,-18.27485 26.7371,-37.5144 29.95991,-68.89809 2.98918,-29.1086 13.5652,-45.65731 35.63656,-55.76192 9.35684,-4.2837 12.89518,-4.83242 26.08101,-4.04465 17.64349,1.05409 27.76575,5.43805 38.81002,16.80869 10.92181,11.24455 15.41928,22.6114 17.59353,44.46568 1.04737,10.52739 2.8796,22.28443 4.07166,26.12675 4.19998,13.53781 14.1808,29.76473 25.04086,40.71175 18.32604,18.47279 35.92133,26.26661 65.97928,29.22547 22.35678,2.20077 35.03106,7.29887 45.99762,18.50212 23.24292,23.74453 23.24292,58.85782 0,82.60235 -16.58762,16.94561 -42.67441,21.85028 -64.02114,12.03683 -23.51487,-10.8102 -32.18491,-24.36906 -36.2995,-56.76792 -4.24694,-33.44109 -10.84435,-48.35899 -29.66934,-67.08764 -20.23383,-20.13029 -42.17896,-29.28284 -70.21157,-29.28284 -56.32811,0 -100.70896,44.57269 -100.78685,101.22253 -0.0148,10.80613 -6.31054,27.57142 -13.7324,36.56912 -11.73446,14.22597 -34.77804,22.57791 -54.30222,19.68134 l 0,0 z"
           id="path3806"
           inkscape:connector-curvature="0" />
      </g>
      <path
         inkscape:connector-curvature="0"
         id="path3837"
         d="m 779.28224,256.17735 c -0.66702,-0.15845 -1.94816,-0.68923 -2.84697,-1.17949 -1.351,-0.73692 -1.87784,-1.16732 -3.04004,-2.48352 -1.147,-1.29901 -1.55437,-1.93428 -2.21271,-3.45052 -1.02627,-2.36369 -1.42775,-4.49511 -1.29207,-6.85966 0.34698,-6.04722 4.24842,-11.04578 9.66881,-12.38777 0.43255,-0.1071 0.45453,-0.17937 0.55874,-1.83701 0.34633,-5.509 3.16119,-10.86771 7.34824,-13.98899 4.04321,-3.01406 9.22627,-3.85101 13.9057,-2.24546 3.18152,1.0916 6.48645,3.81548 8.59518,7.08401 l 0.35679,0.55303 1.02479,-0.44288 c 1.42075,-0.61401 4.06373,-0.75436 5.61598,-0.29821 2.34118,0.68797 4.51152,2.41623 5.88769,4.6884 0.72101,1.19047 1.55673,3.83503 1.55985,4.93604 0.003,1.05143 0.34177,1.43221 1.27426,1.43221 1.03898,0 3.12308,0.69615 4.46149,1.49026 2.90634,1.7244 5.17114,4.96703 5.99553,8.58412 0.47822,2.0982 0.40115,5.22148 -0.17858,7.23791 -1.05942,3.6849 -3.17078,6.41935 -6.26618,8.11538 -2.61999,1.43555 -1.4118,1.37402 -26.63028,1.35621 -19.17645,-0.0135 -22.75596,-0.0593 -23.78622,-0.30406 z m 26.39512,-6.85068 c 1.63613,-2.00725 2.95361,-3.67343 2.92774,-3.70264 -0.0471,-0.0532 -8.53141,-2.23316 -8.69117,-2.23316 -0.0465,0 0.0257,0.41402 0.16055,0.92006 0.13488,0.50604 0.2117,0.95793 0.17071,1.00422 -0.1936,0.21859 -2.17349,-1.12843 -2.95532,-2.01067 -2.38185,-2.68772 -2.70576,-7.01474 -0.75646,-10.10567 0.20447,-0.32424 0.34377,-0.61287 0.30956,-0.6414 -2.33905,-1.95063 -3.16485,-2.51425 -3.41997,-2.33418 -0.50458,0.35615 -1.7356,3.41374 -2.03297,5.04945 -0.75869,4.17315 0.28921,8.12155 2.96323,11.16515 0.76338,0.8689 1.7778,1.82233 2.25424,2.11876 1.09537,0.68149 3.02312,1.40826 4.1964,1.5821 l 0.9046,0.13402 0.38558,1.35175 c 0.21208,0.74346 0.43574,1.35175 0.49704,1.35175 0.0613,0 1.45011,-1.6423 3.08624,-3.64954 l 0,0 z m 5.89703,-5.10442 c 1.00325,-1.92258 1.43629,-3.54169 1.537,-5.74668 0.22615,-4.95187 -2.00836,-9.46782 -5.76223,-11.64547 -1.39462,-0.80904 -3.21875,-1.43619 -4.17723,-1.43619 -0.49103,0 -0.53822,-0.0746 -0.94668,-1.49595 l -0.42987,-1.49594 -2.98376,3.62976 c -1.64106,1.99637 -2.98376,3.70754 -2.98376,3.8026 0,0.13996 8.48669,2.42706 8.61296,2.32113 0.0203,-0.017 -0.0734,-0.44502 -0.20828,-0.95106 -0.29372,-1.10197 -0.19811,-1.13967 1.03897,-0.40976 1.88409,1.11169 3.34149,3.34996 3.71847,5.7108 0.30514,1.91095 -0.0276,3.69876 -1.03128,5.54046 l -0.51268,0.94078 1.59747,1.27088 c 0.87861,0.69899 1.65246,1.27407 1.71967,1.27798 0.0673,0.004 0.43227,-0.58711 0.81123,-1.31334 l 0,0 z"
         style="fill:#c8b7b7" />
      <g
         transform="matrix(0.14669171,0,0,0.10268446,760.24825,550.88757)"
         id="g4165">
        <path
           style="fill:#c8b7b7"
           d="m 304.50765,558.73563 c -23.81226,-2.81421 -53.35085,-13.54026 -74.28753,-26.97529 l -9.54481,-6.12489 0,-34.63792 0,-34.63793 -9.48104,-5.45536 C 122.85803,400.07573 80.53203,294.14927 109.2249,195.71228 129.73137,125.36045 189.60077,66.342896 260.95955,46.136567 360.70451,17.892254 467.32695,63.24597 516.67184,154.90827 c 33.07261,61.43516 34.35173,137.32575 3.37916,200.48465 -18.34587,37.41068 -43.68445,65.99714 -79.33471,89.50379 l -20.44018,13.47761 0,33.69377 0,33.69377 -5.38529,4.23607 c -9.40681,7.3994 -36.99557,19.89473 -52.61385,23.82956 -15.36358,3.87064 -45.14118,6.40058 -57.76932,4.90814 z M 500.91505,236.13144 C 490.35647,153.2446 420.01206,86.00785 337.19258,79.64184 l -16.71687,-1.28496 0,26.95194 0,26.95194 12.86786,1.20162 c 54.53944,5.09297 101.56264,47.65157 112.87889,102.1616 l 2.28079,10.9865 26.87334,0 26.87335,0 -1.33489,-10.47904 0,0 z"
           id="path4159"
           inkscape:connector-curvature="0" />
        <path
           style="fill:#c8b7b7"
           d="M 282.16711,615.90653 C 264.37038,611.40596 245.41454,603.18952 230.8875,593.6793 l -10.21219,-6.68548 0,-15.50105 c 0,-8.52558 0.40407,-15.50105 0.89794,-15.50105 0.49387,0 4.92381,2.71703 9.84433,6.03784 31.49786,21.25766 79.98613,30.54914 119.99625,22.99407 19.79242,-3.73738 40.41012,-11.60768 57.72927,-22.03672 l 11.29129,-6.79926 -0.57814,16.32179 -0.57815,16.3218 -13.97205,8.58735 c -7.68463,4.72305 -22.50499,11.40319 -32.93413,14.84476 -16.94612,5.59216 -21.93296,6.32486 -46.90619,6.89178 -22.62129,0.51353 -30.86886,-0.10527 -43.29862,-3.2486 z"
           id="path4161"
           inkscape:connector-curvature="0" />
        <path
           style="fill:#c8b7b7"
           d="m 297.98839,683.68617 c -22.76693,-3.58129 -44.53545,-11.79362 -64.83803,-24.46061 l -12.47505,-7.78331 0,-16.78714 c 0,-9.23293 0.535,-16.78714 1.18888,-16.78714 0.65389,0 3.7857,1.84909 6.95958,4.1091 9.66769,6.884 37.97012,19.12981 52.2278,22.59775 42.34661,10.30012 92.07401,2.65311 127.29326,-19.57499 l 10.93327,-6.90037 0.57992,17.07011 c 0.66811,19.66583 1.75807,18.13225 -21.63649,30.44273 -29.38805,15.46433 -70.125,22.80995 -100.23314,18.07387 l 0,0 z"
           id="path4163"
           inkscape:connector-curvature="0" />
      </g>
      <g
         transform="matrix(0.08772563,0,0,0.11735599,721.19594,687.05852)"
         id="g5875">
        <g
           transform="translate(-1773.8922,176.6467)"
           id="g5833">
          <path
             style="fill:#99cc33"
             inkscape:connector-curvature="0"
             d="M 1029.874,248.985 H 410.126 c -11.325,0 -20.506,9.181 -20.506,20.506 v 356.378 c 0,11.325 9.181,20.506 20.506,20.506 h 269.506 v 70.646 h -95.608 v 33.994 h 271.953 v -33.994 h -95.608 v -70.646 h 269.505 c 11.325,0 20.506,-9.181 20.506,-20.506 V 269.491 c 0,-11.325 -9.181,-20.506 -20.506,-20.506 z m -28.172,353.958 H 438.298 V 291.914 h 563.404 v 311.029 z"
             id="path5835" />
          <path
             style="fill:#99cc33"
             inkscape:connector-curvature="0"
             d="m 886.777,375.19 c -3.206,-23.112 -23.281,-40.836 -46.612,-41.169 -26.88,-0.383 -48.2,21.048 -48.64,47.008 -0.021,1.216 -0.011,2.439 0.062,3.673 0.073,1.234 0.206,2.45 0.369,3.655 0.534,40.062 -28.993,74.071 -68.402,79.548 -0.146,0.02 -0.29,0.046 -0.435,0.068 -0.104,-0.007 -0.205,-0.028 -0.31,-0.034 -0.797,-0.047 -1.584,-0.052 -2.371,-0.051 -0.146,-0.003 -0.291,-0.008 -0.438,-0.009 -0.146,10e-4 -0.292,0.007 -0.438,0.009 -0.787,0 -1.574,0.004 -2.37,0.051 -0.105,0.006 -0.205,0.027 -0.31,0.034 -0.145,-0.022 -0.289,-0.048 -0.435,-0.068 -39.409,-5.477 -68.936,-39.486 -68.402,-79.548 0.163,-1.205 0.297,-2.421 0.37,-3.655 0.073,-1.234 0.082,-2.457 0.062,-3.673 -0.44,-25.96 -21.759,-47.39 -48.64,-47.008 -23.331,0.332 -43.407,18.055 -46.613,41.168 -3.635,26.2 14.317,49.61 39.294,53.873 1.734,0.296 3.499,0.508 5.296,0.614 1.797,0.106 3.575,0.102 5.331,0.012 39.247,4.929 68.895,38.186 69.392,77.696 0.008,0.69 0.031,1.377 0.021,2.071 -0.151,1.142 -0.281,2.291 -0.35,3.459 -0.005,0.074 10e-4,0.147 -0.003,0.221 -0.005,0.073 -0.018,0.143 -0.022,0.216 -0.067,1.14 -0.074,2.268 -0.06,3.391 -0.075,0.708 -0.182,1.405 -0.275,2.107 1.313,22.448 18.094,41.138 40.354,44.747 0.434,-10e-4 0.865,-0.019 1.3,-0.014 0.224,0.03 0.454,0.041 0.678,0.069 0.354,0.043 0.711,0.073 1.068,0.108 0.636,0.067 1.265,0.155 1.909,0.193 0.482,0.028 0.955,0.013 1.434,0.024 0.195,0.006 0.386,0.034 0.582,0.038 0.275,0.005 0.554,-0.015 0.829,-0.014 0.275,-10e-4 0.555,0.019 0.829,0.014 0.196,-0.003 0.386,-0.032 0.583,-0.038 0.478,-0.011 0.951,0.004 1.433,-0.024 0.645,-0.038 1.274,-0.126 1.91,-0.193 0.356,-0.035 0.713,-0.065 1.067,-0.108 0.225,-0.028 0.455,-0.038 0.679,-0.069 0.436,-0.006 0.866,0.012 1.3,0.014 22.26,-3.609 39.041,-22.3 40.354,-44.747 -0.094,-0.702 -0.2,-1.399 -0.275,-2.107 0.014,-1.123 0.007,-2.251 -0.06,-3.391 -0.004,-0.073 -0.017,-0.143 -0.022,-0.216 -0.004,-0.074 0.001,-0.147 -0.004,-0.221 -0.068,-1.168 -0.198,-2.317 -0.35,-3.459 -0.009,-0.694 0.013,-1.381 0.021,-2.071 0.497,-39.509 30.145,-72.767 69.392,-77.696 1.757,0.091 3.534,0.094 5.332,-0.012 1.797,-0.106 3.562,-0.318 5.296,-0.614 24.972,-4.263 42.925,-27.672 39.29,-53.872 z m -256.039,3.333 c 2.177,20.89 -16.494,37.486 -36.985,32.876 -12.409,-2.792 -21.92,-13.491 -23.238,-26.142 -2.178,-20.891 16.495,-37.489 36.986,-32.877 12.408,2.792 21.919,13.492 23.237,26.143 z M 735.333,542.08 c -0.791,0.466 -1.604,0.897 -2.438,1.292 -0.117,0.055 -0.239,0.102 -0.357,0.155 -0.75,0.343 -1.513,0.662 -2.294,0.943 -0.244,0.087 -0.497,0.157 -0.744,0.239 -0.667,0.221 -1.338,0.433 -2.024,0.609 -0.393,0.099 -0.796,0.171 -1.195,0.255 -0.562,0.119 -1.122,0.243 -1.694,0.331 -0.515,0.078 -1.042,0.12 -1.566,0.172 -0.487,0.049 -0.97,0.111 -1.463,0.136 -0.523,0.027 -1.039,0.013 -1.557,0.013 -0.518,0 -1.034,0.014 -1.557,-0.013 -0.493,-0.025 -0.976,-0.087 -1.463,-0.136 -0.524,-0.052 -1.051,-0.094 -1.566,-0.172 -0.572,-0.088 -1.133,-0.211 -1.694,-0.331 -0.399,-0.084 -0.803,-0.156 -1.195,-0.255 -0.686,-0.175 -1.357,-0.387 -2.024,-0.609 -0.247,-0.081 -0.5,-0.151 -0.744,-0.239 -0.781,-0.282 -1.544,-0.6 -2.294,-0.943 -0.118,-0.054 -0.24,-0.1 -0.357,-0.155 -0.834,-0.394 -1.647,-0.826 -2.439,-1.292 -0.03,-0.018 -0.062,-0.033 -0.093,-0.052 -8.351,-4.962 -14.172,-13.844 -14.786,-24.271 -0.613,-10.409 4.11,-19.897 11.797,-25.806 0.025,-0.019 0.048,-0.04 0.073,-0.059 0.703,-0.537 1.436,-1.036 2.186,-1.511 0.088,-0.056 0.172,-0.117 0.26,-0.172 0.707,-0.438 1.44,-0.836 2.186,-1.216 0.139,-0.071 0.272,-0.15 0.412,-0.218 0.721,-0.353 1.465,-0.666 2.217,-0.963 0.173,-0.068 0.341,-0.147 0.516,-0.212 0.746,-0.278 1.514,-0.514 2.288,-0.734 0.19,-0.054 0.375,-0.12 0.567,-0.17 0.76,-0.2 1.538,-0.354 2.321,-0.496 0.222,-0.04 0.439,-0.094 0.663,-0.129 0.716,-0.113 1.447,-0.177 2.18,-0.239 0.314,-0.026 0.624,-0.071 0.941,-0.087 0.54,-0.029 1.07,-0.013 1.604,-0.013 0.534,10e-4 1.065,-0.016 1.605,0.013 0.317,0.016 0.626,0.061 0.941,0.087 0.732,0.062 1.465,0.126 2.18,0.239 0.223,0.035 0.441,0.09 0.663,0.129 0.783,0.141 1.562,0.296 2.322,0.496 0.192,0.05 0.376,0.116 0.567,0.17 0.774,0.22 1.541,0.456 2.288,0.734 0.175,0.065 0.343,0.144 0.516,0.212 0.753,0.297 1.496,0.61 2.216,0.963 0.14,0.068 0.273,0.148 0.412,0.218 0.745,0.38 1.479,0.778 2.186,1.216 0.088,0.055 0.172,0.116 0.26,0.172 0.75,0.475 1.484,0.974 2.186,1.511 0.024,0.019 0.047,0.039 0.072,0.058 7.688,5.909 12.411,15.398 11.798,25.807 -0.614,10.427 -6.435,19.309 -14.785,24.271 -0.032,0.019 -0.064,0.034 -0.094,0.052 z M 846.248,411.398 c -20.491,4.612 -39.163,-11.985 -36.986,-32.875 1.318,-12.65 10.829,-23.35 23.237,-26.143 20.491,-4.612 39.163,11.985 36.986,32.875 -1.318,12.651 -10.828,23.351 -23.237,26.143 z"
             id="path5837" />
        </g>
        <path
           style="fill:#c8b7b7"
           d="m -1188.5063,911.28114 0,-15.96806 47.9042,0 47.9042,0 0,-36.92615 0,-36.92615 -138.6911,0 -138.6911,0 -6.5185,-5.82377 -6.5185,-5.82377 -0.54,-180.52046 c -0.5968,-199.48036 -0.9526,-193.31567 11.518,-199.54546 6.5611,-3.27762 25.8788,-3.4901 317.5665,-3.49302 216.32719,-0.002 312.44799,0.64796 316.73452,2.14226 13.1608,4.58788 12.40561,-7.37667 12.40561,196.54075 l 0,184.85451 -5.8345,5.83447 -5.83447,5.83449 -138.8761,0 -138.87606,0 0,36.92615 0,36.92615 47.90416,0 47.90419,0 0,15.96806 0,15.96807 -134.73055,0 -134.7305,0 0,-15.96807 z m 416.6788,-286.92615 0.51117,-156.18762 -282.44727,0 -282.4473,0 0,156.69351 0,156.69351 281.9361,-0.50588 281.93614,-0.50589 0.51116,-156.18763 0,0 z"
           id="path5871"
           inkscape:connector-curvature="0" />
        <path
           style="fill:#c8b7b7"
           d="m -1074.2907,734.58102 c -17.7635,-9.01982 -26.3762,-24.11267 -26.415,-46.28966 -0.077,-44.10752 -28.4545,-77.02617 -71.0562,-82.42754 -22.0354,-2.79382 -34.8311,-10.69869 -42.9855,-26.55552 -15.4333,-30.01086 7.0812,-67.22876 40.6691,-67.22876 28.2225,0 47.3433,20.90333 47.4708,51.89621 0.1519,36.90499 22.5043,67.84809 56.4625,78.16257 12.1997,3.70553 15.6722,4.01606 24.4115,2.18296 38.9252,-8.16464 64.6159,-40.79371 64.83214,-82.34154 0.1139,-21.88177 8.93164,-36.66912 26.92597,-45.15484 17.7486,-8.36984 36.74094,-5.42908 50.57411,7.83085 13.80677,13.23462 18.41914,28.9858 13.47154,46.00498 -6.04804,20.80455 -20.62156,32.00317 -45.80265,35.19582 -29.29322,3.71402 -51.57104,19.56895 -63.5925,45.25822 -5.27581,11.27405 -6.38911,16.45175 -7.46641,34.7226 -1.1293,19.15496 -1.9078,22.51092 -7.2119,31.09014 -12.7655,20.64766 -39.1661,28.37836 -60.2875,17.65351 l 0,0 z m 35.712,-15.28409 c 20.8712,-11.73024 20.2802,-44.18411 -0.9884,-54.27669 -20.0286,-9.50422 -42.2539,2.41628 -44.6828,23.9656 -2.8945,25.67933 23.1534,42.9668 45.6712,30.31109 z m -120.9851,-133.36527 c 28.0437,-13.57573 18.4991,-57.88405 -12.469,-57.88405 -27.4716,0 -42.2279,29.60344 -24.9761,50.106 9.9583,11.83477 23.3281,14.61194 37.4451,7.77805 z m 237.32554,1.20997 c 3.66233,-1.53022 9.0203,-5.87832 11.90658,-9.66243 15.85479,-20.7867 1.56094,-49.44583 -24.6505,-49.42413 -31.47554,0.0261 -41.91654,43.0278 -13.93157,57.37777 10.09643,5.17719 17.27403,5.63697 26.67549,1.70879 z"
           id="path5873"
           inkscape:connector-curvature="0" />
      </g>
    </g>
  </g>
</svg>
