<svg width="640" height="480" xmlns="http://www.w3.org/2000/svg">
 <!-- Created with SVG-edit - http://svg-edit.googlecode.com/ -->
 <g>
  <title>Layer 1</title>
  <g id="svg_1">
   <g>
    <rect x="185.624387" y="36.737113" fill="#ffffff" width="7.751285" height="29.636998"/>
    <rect x="173.181551" y="49.33718" fill="#ffffff" width="7.823471" height="17.036886"/>
    <rect x="198.003442" y="43.696602" fill="#ffffff" width="7.815118" height="22.677463"/>
   </g>
  </g>
  <g id="svg_7">
   <g>
    <g>
     <path fill="#96c9c0" d="m143.539001,295.350861c-0.07579,1.078094 -0.136261,2.160156 -0.136261,3.258148c0,0.072479 0.008209,0.142639 0.00882,0.214508c0,0.070801 -0.00882,0.140289 -0.00882,0.21109c0,1.070251 0.058701,2.124847 0.130386,3.176392c-1.959854,40.860779 -35.025528,73.377563 -75.537712,73.377563c-25.18512,0 -45.601826,20.842804 -45.601826,46.553162s20.416706,46.553101 45.601826,46.553101c24.007538,0 43.667152,-18.942566 45.454994,-42.983276c0.08754,-1.179932 0.146835,-2.367004 0.146835,-3.569824s-0.059296,-2.390472 -0.146835,-3.569855c1.743134,-39.099243 31.987915,-70.545074 70.013458,-73.365417c1.820053,0.225372 3.660675,0.380676 5.54071,0.380676c25.185104,0 45.601837,-20.842621 45.601837,-46.553131c0,-0.07019 -0.009995,-0.13736 -0.009995,-0.208038c0,-0.0737 0.009995,-0.14447 0.009995,-0.218231c0,-24.507782 -18.555588,-44.577606 -42.104431,-46.403259c-1.155838,-0.089386 -2.31926,-0.149872 -3.497421,-0.149872c-1.178162,0 -2.341644,0.060486 -3.497452,0.149872c-38.939941,-1.809448 -70.194351,-33.676849 -72.042633,-73.408813c0.07637,-1.08992 0.132767,-2.185349 0.132767,-3.295074c0,-0.070755 -0.008865,-0.14032 -0.008865,-0.21109c0.000641,-0.072495 0.008865,-0.14212 0.008865,-0.214645c0,-1.137955 -0.058762,-2.260284 -0.138626,-3.377945c1.751953,-39.265366 32.220505,-70.883934 70.475052,-73.46991c1.665665,0.188293 3.355911,0.29319 5.070892,0.29319s3.405243,-0.104897 5.070831,-0.29319c22.797104,-2.576279 40.531021,-22.299545 40.531021,-46.259842c0,-25.71048 -20.416122,-46.553145 -45.601837,-46.553145c-24.006989,0 -43.667206,18.942585 -45.455017,42.983305c-0.087509,1.17934 -0.14682,2.367046 -0.14682,3.569843s0.058701,2.390411 0.14682,3.569717c-1.743729,39.099384 -31.987915,70.545322 -70.013466,73.365597c-1.820068,-0.225403 -3.660706,-0.380692 -5.54068,-0.380692c-25.18512,0 -45.601828,20.842621 -45.601828,46.55307c0,0.072525 0.009922,0.142715 0.009922,0.21524c0,0.071335 -0.009922,0.13974 -0.009922,0.210495c0,24.507721 18.555487,44.578064 42.104948,46.403183c1.155281,0.08934 2.318764,0.149826 3.49688,0.149826c1.178108,0 2.341614,-0.059952 3.496849,-0.149826c38.95285,1.811249 70.217239,33.69783 72.046738,73.447098zm8.477844,-243.381927c0,-20.854004 16.559799,-37.759296 36.987732,-37.759296s36.987747,16.905293 36.987747,37.759296s-16.559891,37.759277 -36.987747,37.759277s-36.987732,-16.905899 -36.987732,-37.759277zm-47.033127,123.351135c0,20.854034 -16.55986,37.759308 -36.987747,37.759308s-36.987686,-16.905273 -36.987686,-37.759308s16.559807,-37.759338 36.987686,-37.759338s36.987747,16.905945 36.987747,37.759338zm0,246.821655c0,20.853882 -16.55986,37.759308 -36.987747,37.759308s-36.987686,-16.905426 -36.987686,-37.759308s16.559807,-37.759308 36.987686,-37.759308s36.987747,16.905334 36.987747,37.759308zm47.033127,-122.804443c0,-20.853943 16.559799,-37.759186 36.987732,-37.759186s36.987747,16.905243 36.987747,37.759186s-16.559891,37.759521 -36.987747,37.759521s-36.987732,-16.905426 -36.987732,-37.759521z"/>
    </g>
    <g opacity="0.1">
     <path fill="#96c9c0" d="m189.004562,356.791138c31.032913,0 56.27977,-25.773499 56.27977,-57.453857c0,-3.140961 -0.252045,-6.222778 -0.729492,-9.228394c-1.661499,-11.389282 -6.637848,-22.019592 -14.434937,-30.563934c-9.654816,-10.580444 -22.730789,-17.008408 -36.819199,-18.1008c-1.57045,-0.121094 -2.975937,-0.18045 -4.296143,-0.18045c-1.12468,0 -2.311646,0.043137 -3.609085,0.130661c-4.416565,-0.245209 -8.706879,-0.932922 -12.835129,-2.014557c5.231232,-1.49231 10.746063,-2.292694 16.444214,-2.292694c33.677078,0 60.978195,27.870132 60.978195,62.250168c0,34.380219 -27.300568,62.250305 -60.978195,62.250305c-6.540344,0 -12.838074,-1.055206 -18.744064,-3.000732c3.568481,-1.090576 7.26915,-1.876038 11.071381,-2.331787c2.510193,0.350769 5.070313,0.536072 7.672684,0.536072z"/>
     <path fill="#96c9c0" d="m67.995972,117.73085c-22.266151,0 -41.547565,13.293457 -50.629768,32.514328c-3.617855,7.581451 -5.649925,16.089844 -5.649925,25.07489c0,10.283707 2.662865,19.943329 7.317875,28.302383c0.029404,0.052765 0.057541,0.106125 0.086895,0.15889c0.328354,0.585754 0.668949,1.163193 1.016663,1.735733c0.330078,0.546844 0.673023,1.08522 1.021328,1.621246c0.070457,0.107864 0.139774,0.217621 0.211449,0.324921c1.643267,2.491165 3.474537,4.87149 5.510185,7.101883c9.655392,10.580414 22.730709,17.008347 36.819706,18.100235c1.570457,0.121674 2.975349,0.180466 4.295593,0.180466c1.124695,0 2.311089,-0.043228 3.607864,-0.130768c4.763718,0.264435 9.381752,1.041519 13.805351,2.274155c-5.518364,1.675766 -11.362152,2.57988 -17.413773,2.57988c-33.677029,0 -60.978298,-27.870102 -60.978298,-62.250259c0,-34.380096 27.300643,-62.250183 60.978298,-62.250183c6.213745,0 12.209023,0.951485 17.857216,2.714821c-3.905586,1.132545 -7.962219,1.906609 -12.13623,2.277718c-2.070313,-0.224228 -3.911499,-0.330338 -5.720428,-0.330338z"/>
     <path fill="#96c9c0" d="m189.004562,109.422646c31.032913,0 56.27977,-25.773438 56.27977,-57.453712s-25.246857,-57.45377 -56.27977,-57.45377s-56.279755,25.773442 -56.279755,57.45377c0,1.536102 0.061066,3.057129 0.177368,4.56324c-0.307724,4.634041 -1.081833,9.138565 -2.275269,13.465622c-1.689087,-5.707291 -2.600601,-11.758682 -2.600601,-18.028282c0,-34.379581 27.300613,-62.250263 60.978256,-62.250263s60.978195,27.870092 60.978195,62.250263s-27.300568,62.250298 -60.978195,62.250298c-6.29425,0 -12.365326,-0.974304 -18.077484,-2.782036c3.939713,-1.154701 8.036224,-1.940758 12.251907,-2.3209c1.915253,0.200874 3.858612,0.305771 5.825577,0.305771z"/>
     <path fill="#96c9c0" d="m67.995972,359.89151c6.004677,0 11.80439,0.890289 17.284615,2.540863c-4.753731,1.329926 -9.722961,2.120697 -14.839027,2.313202c-0.811073,-0.035461 -1.626244,-0.057648 -2.445587,-0.057648c-31.032936,0 -56.279694,25.773438 -56.279694,57.453796s25.246758,57.453705 56.279694,57.453705c31.03299,0 56.2798,-25.773376 56.2798,-57.453705c0,-1.536133 -0.061111,-3.057861 -0.177399,-4.563873c0.307724,-4.634583 1.081223,-9.13974 2.274643,-13.466736c1.689682,5.707825 2.601196,11.760406 2.601196,18.030609c0,34.380219 -27.300583,62.250305 -60.978241,62.250305s-60.978219,-27.870087 -60.978219,-62.250305c0,-34.379547 27.301178,-62.250214 60.978219,-62.250214z"/>
    </g>
   </g>
  </g>
  <g id="svg_8">
   <g>
    <path fill="#99CC33"/>
   </g>
  </g>
  <g id="svg_21">
   <metadata id="svg_20">image/svg+xml</metadata>
   <g id="svg_16">
    <path d="m4781.540039,31.2635c-0.330078,0.5222 -0.169922,1.179798 0.339844,1.528801c0.040039,0.025497 0.080078,0.0495 0.120117,0.071499c0.040039,0.022099 0.080078,0.0415 0.120117,0.0588c0.889648,0.548401 1.189941,1.6311 0.689941,2.509899c-0.010254,0.025101 -0.030273,0.0508 -0.050293,0.077602c-0.009766,0.0256 -0.029785,0.051697 -0.039551,0.0779c-0.600098,0.867199 -1.840332,1.152 -2.810059,0.6311c-0.600098,-0.323502 -1.370117,-0.1315 -1.720215,0.428799c-0.350098,0.560402 -0.140137,1.276802 0.459961,1.6003c0.580078,0.308399 1.300293,0.148102 1.669922,-0.352898c0.02002,-0.024502 0.040039,-0.049702 0.050293,-0.075901c0.02002,-0.026199 0.029785,-0.052799 0.049805,-0.0797c0.580078,-0.844601 1.760254,-1.138802 2.720215,-0.677502c0.029785,0.0168 0.060059,0.033001 0.080078,0.048203c0.029785,0.015099 0.05957,0.028698 0.089844,0.041599c0.589844,0.262699 1.299805,0.063698 1.640137,-0.470402c0.32959,-0.5341 0.159668,-1.2099 -0.380371,-1.552097c-0.029785,-0.0168 -0.060059,-0.0331 -0.089844,-0.048203c-0.02002,-0.015198 -0.049805,-0.028797 -0.080078,-0.041698c-0.909668,-0.540302 -1.22998,-1.638401 -0.72998,-2.528599c0.02002,-0.024601 0.040039,-0.049801 0.050293,-0.076c0.02002,-0.026203 0.029785,-0.052803 0.049805,-0.079601c0.279785,-0.5469 0.060059,-1.212299 -0.510254,-1.5207c-0.599609,-0.3234 -1.379883,-0.1315 -1.719727,0.4289l0,0l0,-0.000099l0,0l0,0l0,0l0,0l0,0l0,0z" id="svg_19" fill="#99cc33"/>
    <path d="m4782.109863,42.950901c0.649902,0 1.180176,-0.455601 1.25,-1.041203c0.010254,-0.042797 0.010254,-0.086197 0.010254,-0.130299c0,-0.044102 0,-0.087502 -0.010254,-0.130299c0.070313,-0.984001 0.930176,-1.7677 2,-1.810802c0.030273,0.002399 0.060059,0.003902 0.090332,0.003902c0.040039,0 0.069824,-0.0014 0.099609,-0.003601c1.110352,0.048901 1.990234,0.899101 1.990234,1.9408c0,0.646999 0.560059,1.171501 1.259766,1.171501c0.700195,0 1.260254,-0.524502 1.260254,-1.171501c0,-0.616699 -0.510254,-1.121799 -1.160156,-1.167702c-0.029785,-0.002296 -0.069824,-0.003799 -0.100098,-0.003799c-0.029785,0 -0.05957,0.001503 -0.089844,0.003799c-1.080078,-0.045597 -1.950195,-0.849499 -2,-1.851097c0,-0.029701 0.010254,-0.059601 0.010254,-0.089901c0,-0.030201 -0.010254,-0.060101 -0.010254,-0.089802c-0.049805,-0.605 -0.589844,-1.081699 -1.259766,-1.081699c-0.660156,0 -1.200195,0.4767 -1.25,1.081699c-0.010254,0.029701 -0.010254,0.059601 -0.010254,0.089802c0,0.0303 0,0.0602 0.010254,0.089901c-0.050293,1.001598 -0.92041,1.8055 -2,1.851097c-0.030273,-0.002296 -0.060059,-0.003799 -0.090332,-0.003799c-0.040039,0 -0.069824,0.001503 -0.100098,0.003799c-0.649902,0.045902 -1.159668,0.551003 -1.159668,1.167702c0,0.646999 0.560059,1.171501 1.259766,1.171501l0,0z" id="svg_18" fill="#99cc33"/>
    <path d="m4792.719727,36.647919c-0.324219,-0.52216 -1.016602,-0.724228 -1.597168,-0.487526c-0.04248,0.017284 -0.084473,0.036716 -0.125488,0.058746c-0.041016,0.022026 -0.080566,0.046024 -0.117676,0.071526c-0.952637,0.435608 -2.112793,0.136669 -2.686035,-0.69912c-0.01416,-0.027451 -0.029297,-0.054688 -0.045898,-0.081478c-0.015625,-0.025635 -0.032715,-0.05022 -0.050293,-0.074295c-0.508789,-0.916115 -0.157227,-2.051098 0.813965,-2.571953c0.603027,-0.323505 0.810059,-1.039968 0.461426,-1.60029c-0.348145,-0.560322 -1.119629,-0.752287 -1.722656,-0.428802c-0.575195,0.308365 -0.789551,0.973711 -0.506836,1.520609c0.01416,0.026829 0.028809,0.053478 0.044922,0.079681c0.016113,0.026203 0.033691,0.051334 0.051758,0.075916c0.49707,0.890244 0.180176,1.988373 -0.729492,2.528679c-0.028809,0.012897 -0.057617,0.026516 -0.085449,0.041653c-0.02832,0.015121 -0.055664,0.031395 -0.082031,0.048172c-0.539063,0.342255 -0.711914,1.018002 -0.379883,1.552101c0.332031,0.5341 1.04834,0.733147 1.637207,0.470455c0.028809,-0.012894 0.057617,-0.026512 0.085938,-0.041653c0.02832,-0.015141 0.055176,-0.031395 0.081543,-0.048191c0.958496,-0.461327 2.141113,-0.167088 2.722656,0.677559c0.01416,0.026829 0.028809,0.053478 0.044922,0.079681c0.016113,0.026203 0.033691,0.051331 0.051758,0.075916c0.368652,0.50095 1.096191,0.661251 1.671387,0.352886c0.603027,-0.323483 0.810059,-1.039948 0.461426,-1.600273z" id="svg_17" fill="#99cc33"/>
   </g>
   <g id="svg_11">
    <g id="svg_12">
     <path id="svg_15" d="m4600.59668,80.281776c-0.147461,0.189377 -0.075684,0.427887 0.156738,0.554451c0.016602,0.009247 0.034668,0.017952 0.053223,0.02594c0.018555,0.007988 0.037598,0.01503 0.057129,0.021301c0.400879,0.198914 0.537598,0.591553 0.313965,0.910301c-0.008301,0.009094 -0.016602,0.01841 -0.024414,0.028122c-0.006836,0.0093 -0.013672,0.018745 -0.019531,0.028259c-0.272949,0.314499 -0.833496,0.417801 -1.274902,0.228897c-0.273926,-0.117325 -0.624512,-0.047699 -0.783203,0.155518c-0.158203,0.203217 -0.063965,0.463058 0.209961,0.580383c0.26123,0.111839 0.591797,0.053711 0.759277,-0.127983c0.008301,-0.008911 0.016113,-0.018028 0.023926,-0.027534c0.007324,-0.009499 0.013672,-0.019165 0.02002,-0.028893c0.264648,-0.306335 0.801758,-0.413048 1.237305,-0.245735c0.012207,0.006088 0.024414,0.011986 0.037109,0.017471c0.012695,0.005478 0.025879,0.010429 0.039063,0.015106c0.267578,0.095276 0.593262,0.023087 0.744141,-0.170616c0.150391,-0.193703 0.072266,-0.438774 -0.172852,-0.562912c-0.012207,-0.006088 -0.024414,-0.011986 -0.037109,-0.017479c-0.012695,-0.005486 -0.025879,-0.010429 -0.039063,-0.015106c-0.413086,-0.195953 -0.557129,-0.594215 -0.331543,-0.917084c0.008301,-0.008919 0.016113,-0.018036 0.023438,-0.027534c0.007813,-0.009506 0.01416,-0.019173 0.020508,-0.0289c0.128418,-0.198341 0.03125,-0.439644 -0.22998,-0.551483c-0.274414,-0.117325 -0.625,-0.047699 -0.783203,0.15551l0,0z" fill="#99cc33"/>
     <path id="svg_14" d="m4600.856445,84.520485c0.294922,0 0.537598,-0.165222 0.569336,-0.377625c0.002441,-0.015511 0.003906,-0.031265 0.003906,-0.047241c0,-0.015976 -0.001465,-0.031723 -0.003906,-0.047249c0.031738,-0.356895 0.422363,-0.641121 0.906738,-0.656738c0.014648,0.000854 0.029785,0.001419 0.044922,0.001419c0.01416,0 0.02832,-0.000534 0.042969,-0.00132c0.503418,0.017754 0.904785,0.326088 0.904785,0.703888c0,0.234642 0.256348,0.424866 0.572754,0.424866c0.316895,0 0.573242,-0.190224 0.573242,-0.424866c0,-0.223671 -0.23291,-0.406853 -0.529297,-0.423508c-0.01416,-0.000809 -0.028809,-0.001366 -0.043945,-0.001366c-0.014648,0 -0.029297,0.000557 -0.043945,0.001366c-0.489746,-0.016533 -0.883301,-0.308083 -0.905273,-0.671356c0.000977,-0.010757 0.001465,-0.021599 0.001465,-0.032578c0,-0.010971 -0.000488,-0.021812 -0.001465,-0.032578c-0.022461,-0.219406 -0.269531,-0.392288 -0.571289,-0.392288c-0.301758,0 -0.548828,0.172882 -0.571289,0.392281c-0.001465,0.010773 -0.001953,0.021614 -0.001953,0.032585c0,0.010979 0.000488,0.02182 0.001953,0.032585c-0.022461,0.363274 -0.416016,0.654823 -0.905762,0.671349c-0.014648,-0.000809 -0.029297,-0.001366 -0.043945,-0.001366c-0.015137,0 -0.029785,0.000557 -0.043945,0.001366c-0.295898,0.016655 -0.529297,0.199829 -0.529297,0.423508c0,0.234642 0.256348,0.424866 0.573242,0.424866z" fill="#99cc33"/>
     <path id="svg_13" d="m4605.678711,82.234558c-0.147949,-0.189377 -0.461914,-0.262657 -0.726074,-0.176819c-0.019531,0.006271 -0.038574,0.013321 -0.057129,0.021309c-0.018555,0.007988 -0.036133,0.016693 -0.053223,0.02594c-0.433105,0.15799 -0.959961,0.049568 -1.220703,-0.253555c-0.006348,-0.009956 -0.013184,-0.019829 -0.020508,-0.029549c-0.007324,-0.009293 -0.015137,-0.018211 -0.023438,-0.026939c-0.230957,-0.332253 -0.071289,-0.743889 0.370117,-0.932785c0.274414,-0.117332 0.368164,-0.377174 0.209961,-0.580391c-0.158203,-0.203209 -0.508789,-0.272835 -0.783203,-0.15551c-0.26123,0.111832 -0.358398,0.353134 -0.22998,0.551483c0.006348,0.009727 0.012695,0.019394 0.020508,0.0289c0.007324,0.009506 0.015137,0.018616 0.023438,0.027534c0.225586,0.322868 0.081543,0.72113 -0.331543,0.917084c-0.013184,0.004677 -0.026367,0.009621 -0.039063,0.015114c-0.012695,0.005478 -0.024902,0.011383 -0.037109,0.017464c-0.245117,0.12413 -0.323242,0.369209 -0.172363,0.562912c0.150879,0.193703 0.476074,0.265892 0.743652,0.170624c0.013184,-0.004677 0.026367,-0.009621 0.039063,-0.015106c0.012695,-0.005493 0.024902,-0.011391 0.037109,-0.017479c0.435547,-0.167313 0.972656,-0.0606 1.237305,0.245735c0.006348,0.009727 0.012695,0.019394 0.02002,0.0289c0.007813,0.009499 0.015625,0.018616 0.023926,0.027527c0.16748,0.181686 0.498047,0.239822 0.759277,0.127983c0.273926,-0.117317 0.368164,-0.377159 0.209961,-0.580376z" fill="#99cc33"/>
    </g>
   </g>
  </g>
  <g id="svg_23">
   <g>
    <g>
     <path fill="#ffffff" d="m201.856628,295.252747c0,-4.893921 -2.584518,-8.861237 -5.772629,-8.861237c-0.875031,0 -1.701279,0.307465 -2.444397,0.842255c-1.705734,-3.99884 -4.648193,-6.642426 -7.994431,-6.642426c-5.274918,0 -9.551102,6.564148 -9.551102,14.661407c0,0.045044 0.001953,0.089417 0.002182,0.134399c-3.327469,0.776733 -5.879807,5.17453 -5.879807,10.499207c0,5.872681 3.101379,10.633545 6.927155,10.633545c0,0 24.318802,0 24.713089,0c3.825775,0 6.927185,-4.760864 6.927185,-10.633545s-3.101471,-10.633606 -6.927246,-10.633606m-12.712067,18.424042l-0.451965,-2.222443c-3.383759,-0.178864 -6.100525,-4.460205 -6.100525,-9.697235c0,-2.016968 0.400955,-3.952301 1.159348,-5.597626l0.205185,-0.445129l1.840408,1.99881l-0.20517,0.444519c-0.487686,1.058014 -0.745392,2.302856 -0.745392,3.599304c0,2.929535 1.302429,5.405334 3.108154,6.068756l-0.323792,-1.592529l4.955887,1.709595l-3.442139,5.733978zm4.930038,-6.322205l-0.205154,0.44516l-1.840439,-1.99884l0.205185,-0.445099c0.487488,-1.057434 0.745209,-2.301758 0.745209,-3.598816c0,-2.929504 -1.302444,-5.404785 -3.108017,-6.068207l0.323776,1.592529l-4.955719,-1.710175l3.442017,-5.734436l0.452011,2.223541c3.383591,0.178864 6.10051,4.460297 6.10051,9.696747c0,2.016937 -0.401001,3.952332 -1.159378,5.597595z"/>
    </g>
   </g>
  </g>
  <g id="svg_24">
   <g>
    <ellipse fill="#ffffff" cx="66.499999" cy="165.093034" rx="15.070778" ry="3.732145"/>
    <path fill="#ffffff" d="m66.5,187.118011c-8.231602,0 -14.920788,-1.634354 -15.067299,-3.664154c-0.00164,0.022644 -0.003471,0.045212 -0.003471,0.067963v5.496246c0,2.061249 6.747391,3.732147 15.07077,3.732147c8.323326,0 15.07077,-1.670898 15.07077,-3.732147v-5.496246c0,-0.02269 -0.001831,-0.045319 -0.003487,-0.067963c-0.146492,2.0298 -6.835701,3.664154 -15.067284,3.664154z"/>
    <path fill="#ffffff" d="m66.5,179.163513c-8.231602,0 -14.920788,-1.634354 -15.067299,-3.664154c-0.00164,0.022629 -0.003471,0.045212 -0.003471,0.067963v5.496246c0,2.061249 6.747391,3.732147 15.07077,3.732147c8.323326,0 15.07077,-1.670898 15.07077,-3.732147v-5.496246c0,-0.02269 -0.001831,-0.045334 -0.003487,-0.067963c-0.146492,2.0298 -6.835701,3.664154 -15.067284,3.664154z"/>
    <path fill="#ffffff" d="m66.5,171.271194c-8.231602,0 -14.920788,-1.634384 -15.067299,-3.664169c-0.00164,0.022629 -0.003471,0.045212 -0.003471,0.067963v5.496262c0,2.061218 6.747391,3.732147 15.07077,3.732147c8.323326,0 15.07077,-1.670929 15.07077,-3.732147v-5.496262c0,-0.02269 -0.001831,-0.045334 -0.003487,-0.067963c-0.146492,2.029785 -6.835701,3.664169 -15.067284,3.664169z"/>
   </g>
  </g>
  <g id="svg_29">
   <g>
    <path fill="#99CC33"/>
   </g>
  </g>
  <g id="svg_40">
   <metadata id="svg_39">image/svg+xml</metadata>
   <g id="svg_35">
    <path d="m4781.540039,31.2635c-0.330078,0.5222 -0.169922,1.179798 0.339844,1.528801c0.040039,0.025497 0.080078,0.0495 0.120117,0.071499c0.040039,0.022099 0.080078,0.0415 0.120117,0.0588c0.889648,0.548401 1.189941,1.6311 0.689941,2.509899c-0.010254,0.025101 -0.030273,0.0508 -0.050293,0.077602c-0.009766,0.0256 -0.029785,0.051697 -0.039551,0.0779c-0.600098,0.867199 -1.840332,1.152 -2.810059,0.6311c-0.600098,-0.323502 -1.370117,-0.1315 -1.720215,0.428799c-0.350098,0.560402 -0.140137,1.276802 0.459961,1.6003c0.580078,0.308399 1.300293,0.148102 1.669922,-0.352898c0.02002,-0.024502 0.040039,-0.049702 0.050293,-0.075901c0.02002,-0.026199 0.029785,-0.052799 0.049805,-0.0797c0.580078,-0.844601 1.760254,-1.138802 2.720215,-0.677502c0.029785,0.0168 0.060059,0.033001 0.080078,0.048203c0.029785,0.015099 0.05957,0.028698 0.089844,0.041599c0.589844,0.262699 1.299805,0.063698 1.640137,-0.470402c0.32959,-0.5341 0.159668,-1.2099 -0.380371,-1.552097c-0.029785,-0.0168 -0.060059,-0.0331 -0.089844,-0.048203c-0.02002,-0.015198 -0.049805,-0.028797 -0.080078,-0.041698c-0.909668,-0.540302 -1.22998,-1.638401 -0.72998,-2.528599c0.02002,-0.024601 0.040039,-0.049801 0.050293,-0.076c0.02002,-0.026203 0.029785,-0.052803 0.049805,-0.079601c0.279785,-0.5469 0.060059,-1.212299 -0.510254,-1.5207c-0.599609,-0.3234 -1.379883,-0.1315 -1.719727,0.4289l0,0l0,-0.000099l0,0l0,0l0,0l0,0l0,0l0,0z" id="svg_38" fill="#99cc33"/>
    <path d="m4782.109863,42.950901c0.649902,0 1.180176,-0.455601 1.25,-1.041203c0.010254,-0.042797 0.010254,-0.086197 0.010254,-0.130299c0,-0.044102 0,-0.087502 -0.010254,-0.130299c0.070313,-0.984001 0.930176,-1.7677 2,-1.810802c0.030273,0.002399 0.060059,0.003902 0.090332,0.003902c0.040039,0 0.069824,-0.0014 0.099609,-0.003601c1.110352,0.048901 1.990234,0.899101 1.990234,1.9408c0,0.646999 0.560059,1.171501 1.259766,1.171501c0.700195,0 1.260254,-0.524502 1.260254,-1.171501c0,-0.616699 -0.510254,-1.121799 -1.160156,-1.167702c-0.029785,-0.002296 -0.069824,-0.003799 -0.100098,-0.003799c-0.029785,0 -0.05957,0.001503 -0.089844,0.003799c-1.080078,-0.045597 -1.950195,-0.849499 -2,-1.851097c0,-0.029701 0.010254,-0.059601 0.010254,-0.089901c0,-0.030201 -0.010254,-0.060101 -0.010254,-0.089802c-0.049805,-0.605 -0.589844,-1.081699 -1.259766,-1.081699c-0.660156,0 -1.200195,0.4767 -1.25,1.081699c-0.010254,0.029701 -0.010254,0.059601 -0.010254,0.089802c0,0.0303 0,0.0602 0.010254,0.089901c-0.050293,1.001598 -0.92041,1.8055 -2,1.851097c-0.030273,-0.002296 -0.060059,-0.003799 -0.090332,-0.003799c-0.040039,0 -0.069824,0.001503 -0.100098,0.003799c-0.649902,0.045902 -1.159668,0.551003 -1.159668,1.167702c0,0.646999 0.560059,1.171501 1.259766,1.171501l0,0z" id="svg_37" fill="#99cc33"/>
    <path d="m4792.719727,36.647919c-0.324219,-0.52216 -1.016602,-0.724228 -1.597168,-0.487526c-0.04248,0.017284 -0.084473,0.036716 -0.125488,0.058746c-0.041016,0.022026 -0.080566,0.046024 -0.117676,0.071526c-0.952637,0.435608 -2.112793,0.136669 -2.686035,-0.69912c-0.01416,-0.027451 -0.029297,-0.054688 -0.045898,-0.081478c-0.015625,-0.025635 -0.032715,-0.05022 -0.050293,-0.074295c-0.508789,-0.916115 -0.157227,-2.051098 0.813965,-2.571953c0.603027,-0.323505 0.810059,-1.039968 0.461426,-1.60029c-0.348145,-0.560322 -1.119629,-0.752287 -1.722656,-0.428802c-0.575195,0.308365 -0.789551,0.973711 -0.506836,1.520609c0.01416,0.026829 0.028809,0.053478 0.044922,0.079681c0.016113,0.026203 0.033691,0.051334 0.051758,0.075916c0.49707,0.890244 0.180176,1.988373 -0.729492,2.528679c-0.028809,0.012897 -0.057617,0.026516 -0.085449,0.041653c-0.02832,0.015121 -0.055664,0.031395 -0.082031,0.048172c-0.539063,0.342255 -0.711914,1.018002 -0.379883,1.552101c0.332031,0.5341 1.04834,0.733147 1.637207,0.470455c0.028809,-0.012894 0.057617,-0.026512 0.085938,-0.041653c0.02832,-0.015141 0.055176,-0.031395 0.081543,-0.048191c0.958496,-0.461327 2.141113,-0.167088 2.722656,0.677559c0.01416,0.026829 0.028809,0.053478 0.044922,0.079681c0.016113,0.026203 0.033691,0.051331 0.051758,0.075916c0.368652,0.50095 1.096191,0.661251 1.671387,0.352886c0.603027,-0.323483 0.810059,-1.039948 0.461426,-1.600273z" id="svg_36" fill="#99cc33"/>
   </g>
   <g id="svg_30">
    <g id="svg_31">
     <path id="svg_34" d="m4600.59668,80.281776c-0.147461,0.189377 -0.075684,0.427887 0.156738,0.554451c0.016602,0.009247 0.034668,0.017952 0.053223,0.02594c0.018555,0.007988 0.037598,0.01503 0.057129,0.021301c0.400879,0.198914 0.537598,0.591553 0.313965,0.910301c-0.008301,0.009094 -0.016602,0.01841 -0.024414,0.028122c-0.006836,0.0093 -0.013672,0.018745 -0.019531,0.028259c-0.272949,0.314499 -0.833496,0.417801 -1.274902,0.228897c-0.273926,-0.117325 -0.624512,-0.047699 -0.783203,0.155518c-0.158203,0.203217 -0.063965,0.463058 0.209961,0.580383c0.26123,0.111839 0.591797,0.053711 0.759277,-0.127983c0.008301,-0.008911 0.016113,-0.018028 0.023926,-0.027534c0.007324,-0.009499 0.013672,-0.019165 0.02002,-0.028893c0.264648,-0.306335 0.801758,-0.413048 1.237305,-0.245735c0.012207,0.006088 0.024414,0.011986 0.037109,0.017471c0.012695,0.005478 0.025879,0.010429 0.039063,0.015106c0.267578,0.095276 0.593262,0.023087 0.744141,-0.170616c0.150391,-0.193703 0.072266,-0.438774 -0.172852,-0.562912c-0.012207,-0.006088 -0.024414,-0.011986 -0.037109,-0.017479c-0.012695,-0.005486 -0.025879,-0.010429 -0.039063,-0.015106c-0.413086,-0.195953 -0.557129,-0.594215 -0.331543,-0.917084c0.008301,-0.008919 0.016113,-0.018036 0.023438,-0.027534c0.007813,-0.009506 0.01416,-0.019173 0.020508,-0.0289c0.128418,-0.198341 0.03125,-0.439644 -0.22998,-0.551483c-0.274414,-0.117325 -0.625,-0.047699 -0.783203,0.15551l0,0z" fill="#99cc33"/>
     <path id="svg_33" d="m4600.856445,84.520485c0.294922,0 0.537598,-0.165222 0.569336,-0.377625c0.002441,-0.015511 0.003906,-0.031265 0.003906,-0.047241c0,-0.015976 -0.001465,-0.031723 -0.003906,-0.047249c0.031738,-0.356895 0.422363,-0.641121 0.906738,-0.656738c0.014648,0.000854 0.029785,0.001419 0.044922,0.001419c0.01416,0 0.02832,-0.000534 0.042969,-0.00132c0.503418,0.017754 0.904785,0.326088 0.904785,0.703888c0,0.234642 0.256348,0.424866 0.572754,0.424866c0.316895,0 0.573242,-0.190224 0.573242,-0.424866c0,-0.223671 -0.23291,-0.406853 -0.529297,-0.423508c-0.01416,-0.000809 -0.028809,-0.001366 -0.043945,-0.001366c-0.014648,0 -0.029297,0.000557 -0.043945,0.001366c-0.489746,-0.016533 -0.883301,-0.308083 -0.905273,-0.671356c0.000977,-0.010757 0.001465,-0.021599 0.001465,-0.032578c0,-0.010971 -0.000488,-0.021812 -0.001465,-0.032578c-0.022461,-0.219406 -0.269531,-0.392288 -0.571289,-0.392288c-0.301758,0 -0.548828,0.172882 -0.571289,0.392281c-0.001465,0.010773 -0.001953,0.021614 -0.001953,0.032585c0,0.010979 0.000488,0.02182 0.001953,0.032585c-0.022461,0.363274 -0.416016,0.654823 -0.905762,0.671349c-0.014648,-0.000809 -0.029297,-0.001366 -0.043945,-0.001366c-0.015137,0 -0.029785,0.000557 -0.043945,0.001366c-0.295898,0.016655 -0.529297,0.199829 -0.529297,0.423508c0,0.234642 0.256348,0.424866 0.573242,0.424866z" fill="#99cc33"/>
     <path id="svg_32" d="m4605.678711,82.234558c-0.147949,-0.189377 -0.461914,-0.262657 -0.726074,-0.176819c-0.019531,0.006271 -0.038574,0.013321 -0.057129,0.021309c-0.018555,0.007988 -0.036133,0.016693 -0.053223,0.02594c-0.433105,0.15799 -0.959961,0.049568 -1.220703,-0.253555c-0.006348,-0.009956 -0.013184,-0.019829 -0.020508,-0.029549c-0.007324,-0.009293 -0.015137,-0.018211 -0.023438,-0.026939c-0.230957,-0.332253 -0.071289,-0.743889 0.370117,-0.932785c0.274414,-0.117332 0.368164,-0.377174 0.209961,-0.580391c-0.158203,-0.203209 -0.508789,-0.272835 -0.783203,-0.15551c-0.26123,0.111832 -0.358398,0.353134 -0.22998,0.551483c0.006348,0.009727 0.012695,0.019394 0.020508,0.0289c0.007324,0.009506 0.015137,0.018616 0.023438,0.027534c0.225586,0.322868 0.081543,0.72113 -0.331543,0.917084c-0.013184,0.004677 -0.026367,0.009621 -0.039063,0.015114c-0.012695,0.005478 -0.024902,0.011383 -0.037109,0.017464c-0.245117,0.12413 -0.323242,0.369209 -0.172363,0.562912c0.150879,0.193703 0.476074,0.265892 0.743652,0.170624c0.013184,-0.004677 0.026367,-0.009621 0.039063,-0.015106c0.012695,-0.005493 0.024902,-0.011391 0.037109,-0.017479c0.435547,-0.167313 0.972656,-0.0606 1.237305,0.245735c0.006348,0.009727 0.012695,0.019394 0.02002,0.0289c0.007813,0.009499 0.015625,0.018616 0.023926,0.027527c0.16748,0.181686 0.498047,0.239822 0.759277,0.127983c0.273926,-0.117317 0.368164,-0.377159 0.209961,-0.580376z" fill="#99cc33"/>
    </g>
   </g>
  </g>
  <g id="svg_41">
   <g>
    <path fill="#ffffff" d="m58.083157,407.948944c-0.821568,1.58847 -0.422699,3.589111 0.871166,4.650696c0.094543,0.077576 0.193428,0.150604 0.297367,0.21759c0.103962,0.067017 0.210087,0.126099 0.317482,0.17868c2.233624,1.668549 2.996334,4.961975 1.749157,7.63562c-0.046902,0.076324 -0.092205,0.154449 -0.134377,0.235901c-0.040291,0.078033 -0.07671,0.157257 -0.11116,0.23703c-1.518349,2.638031 -4.641766,3.504547 -7.100174,1.920013c-1.526958,-0.984131 -3.479435,-0.400116 -4.361019,1.304474c-0.881603,1.70459 -0.358421,3.884186 1.168537,4.868286c1.455509,0.93808 3.297016,0.4505 4.229694,-1.073517c0.04578,-0.074799 0.090069,-0.151215 0.131271,-0.230927c0.041206,-0.079681 0.078377,-0.160797 0.113514,-0.242432c1.472408,-2.56955 4.464977,-3.46463 6.890999,-2.061218c0.067013,0.051117 0.135483,0.100555 0.206902,0.146545s0.144032,0.087494 0.217125,0.12674c1.490334,0.799194 3.303505,0.193665 4.14389,-1.431122c0.840324,-1.624847 0.403557,-3.680511 -0.961609,-4.72171c-0.066994,-0.051117 -0.135483,-0.100555 -0.206894,-0.146606c-0.071396,-0.046051 -0.14402,-0.087494 -0.217194,-0.12674c-2.301773,-1.643616 -3.103615,-4.984283 -1.846397,-7.692535c0.045784,-0.074799 0.090073,-0.151215 0.131271,-0.230957c0.04126,-0.079712 0.078377,-0.160797 0.11351,-0.242401c0.715935,-1.663666 0.1735,-3.687744 -1.281994,-4.625885c-1.527008,-0.9841 -3.479485,-0.400116 -4.361069,1.304474z"/>
    <path fill="#ffffff" d="m59.528442,443.503326c1.643135,0 2.995705,-1.385895 3.172375,-3.16748c0.012924,-0.130188 0.020088,-0.262329 0.020088,-0.396332c0,-0.134033 -0.007225,-0.266083 -0.020088,-0.396301c0.177597,-2.993652 2.351238,-5.377716 5.04903,-5.508759c0.082672,0.007141 0.165886,0.011932 0.250198,0.011932c0.080658,0 0.160316,-0.004456 0.239479,-0.011078c2.805725,0.148895 5.039619,2.735199 5.039619,5.904205c0,1.968201 1.429329,3.563812 3.192467,3.563812c1.763145,0 3.192482,-1.595612 3.192482,-3.563812c0,-1.87616 -1.299042,-3.412659 -2.947678,-3.552368c-0.080887,-0.006836 -0.162331,-0.011444 -0.244804,-0.011444c-0.082458,0 -0.163918,0.004608 -0.244781,0.011444c-2.729637,-0.138702 -4.920303,-2.584167 -5.044571,-5.631348c0.006172,-0.09024 0.010277,-0.181183 0.010277,-0.273254c0,-0.092072 -0.004158,-0.182953 -0.010277,-0.273254c-0.125153,-1.840454 -1.501488,-3.290588 -3.182213,-3.290588c-1.680664,0 -3.056976,1.450134 -3.182205,3.290527c-0.006111,0.090363 -0.010269,0.181244 -0.010269,0.273315c0,0.092072 0.004158,0.183014 0.010269,0.273315c-0.12426,3.04715 -2.314922,5.492645 -5.044559,5.631287c-0.080864,-0.006836 -0.162327,-0.011444 -0.244785,-0.011444c-0.082462,0 -0.163921,0.004608 -0.244785,0.011444c-1.648659,0.139709 -2.947681,1.676117 -2.947681,3.552368c-0.00005,1.968201 1.429279,3.563812 3.192413,3.563812z"/>
    <path fill="#ffffff" d="m86.388397,424.328888c-0.821548,-1.58847 -2.573006,-2.203156 -4.043488,-1.483093c-0.10746,0.052582 -0.213516,0.111664 -0.317459,0.17868c-0.103958,0.067017 -0.20285,0.140045 -0.297386,0.21759c-2.411186,1.325195 -5.347618,0.415802 -6.798157,-2.126801c-0.035789,-0.083527 -0.073692,-0.166351 -0.11586,-0.247864c-0.040314,-0.078003 -0.083641,-0.152802 -0.128296,-0.226013c-1.287376,-2.786957 -0.397873,-6.239685 2.060555,-7.824219c1.526955,-0.984131 2.050087,-3.163696 1.168556,-4.868286c-0.881599,-1.704559 -2.834068,-2.288544 -4.361023,-1.304474c-1.455505,0.93808 -1.997993,2.962158 -1.282013,4.625916c0.035133,0.081604 0.07225,0.162659 0.11351,0.242401c0.041199,0.079681 0.085548,0.156158 0.131271,0.230896c1.257248,2.708282 0.455406,6.04892 -1.846451,7.692596c-0.073097,0.039246 -0.145744,0.080658 -0.217133,0.126709c-0.071419,0.046021 -0.139885,0.09552 -0.206879,0.146545c-1.365173,1.041199 -1.802002,3.096893 -0.961685,4.72171c0.840347,1.624786 2.653526,2.230316 4.143837,1.431183c0.073112,-0.039246 0.145737,-0.080658 0.21714,-0.12674s0.139885,-0.09549 0.206886,-0.146606c2.426048,-1.403381 5.418549,-0.508301 6.890953,2.061249c0.035141,0.081635 0.072258,0.162659 0.113518,0.242371c0.041199,0.079742 0.085541,0.156158 0.131287,0.230957c0.932678,1.523956 2.774178,2.011627 4.229668,1.073547c1.527069,-0.9841 2.050255,-3.163666 1.168648,-4.868256z"/>
   </g>
  </g>
 </g>
</svg>