<svg width="640" height="480" xmlns="http://www.w3.org/2000/svg">
 <!-- Created with SVG-edit - http://svg-edit.googlecode.com/ -->
 <g>
  <title>Layer 1</title>
  <g id="svg_1">
   <g id="svg_2">
    <rect id="svg_3" height="29.637" width="7.75129" fill="#ffffff" y="36.73711" x="185.62439"/>
    <rect id="svg_4" height="17.03689" width="7.82347" fill="#ffffff" y="49.33718" x="173.18155"/>
    <rect id="svg_5" height="22.67746" width="7.81512" fill="#ffffff" y="43.6966" x="198.00344"/>
   </g>
  </g>
  <g id="svg_7">
   <g id="svg_6">
    <g id="svg_9">
     <path id="svg_10" d="m143.539,295.35086c-0.07579,1.07809 -0.13626,2.16016 -0.13626,3.25815c0,0.07248 0.00821,0.14264 0.00882,0.21451c0,0.0708 -0.00882,0.14029 -0.00882,0.21109c0,1.07025 0.0587,2.12485 0.13039,3.17639c-1.95985,40.86078 -35.02553,73.37756 -75.53772,73.37756c-25.18512,0 -45.60182,20.8428 -45.60182,46.55316s20.4167,46.5531 45.60182,46.5531c24.00755,0 43.66716,-18.94257 45.455,-42.98328c0.08754,-1.17993 0.14683,-2.367 0.14683,-3.56982s-0.05929,-2.39047 -0.14683,-3.56985c1.74313,-39.09924 31.98792,-70.54507 70.01346,-73.36542c1.82005,0.22537 3.66068,0.38068 5.54071,0.38068c25.1851,0 45.60184,-20.84262 45.60184,-46.55313c0,-0.07019 -0.00999,-0.13736 -0.00999,-0.20804c0,-0.0737 0.00999,-0.14447 0.00999,-0.21823c0,-24.50778 -18.55559,-44.57761 -42.10443,-46.40326c-1.15584,-0.08939 -2.31926,-0.14987 -3.49742,-0.14987c-1.17816,0 -2.34164,0.06049 -3.49745,0.14987c-38.93994,-1.80945 -70.19435,-33.67685 -72.04263,-73.40881c0.07637,-1.08992 0.13276,-2.18535 0.13276,-3.29507c0,-0.07076 -0.00886,-0.14032 -0.00886,-0.21109c0.00064,-0.07249 0.00886,-0.14212 0.00886,-0.21465c0,-1.13795 -0.05875,-2.26028 -0.13862,-3.37794c1.75195,-39.26537 32.2205,-70.88393 70.47505,-73.46991c1.66566,0.18829 3.35591,0.29319 5.07089,0.29319s3.40524,-0.1049 5.07083,-0.29319c22.7971,-2.57628 40.53102,-22.29954 40.53102,-46.25984c0,-25.71048 -20.41612,-46.55315 -45.60184,-46.55315c-24.00699,0 -43.66721,18.94259 -45.45502,42.98331c-0.08751,1.17934 -0.14682,2.36705 -0.14682,3.56984s0.0587,2.39041 0.14682,3.56972c-1.74373,39.09938 -31.98792,70.54532 -70.01347,73.3656c-1.82006,-0.2254 -3.6607,-0.38069 -5.54068,-0.38069c-25.18512,0 -45.60183,20.84262 -45.60183,46.55307c0,0.07253 0.00993,0.14272 0.00993,0.21524c0,0.07133 -0.00993,0.13974 -0.00993,0.21049c0,24.50772 18.55549,44.57806 42.10495,46.40318c1.15528,0.08934 2.31876,0.14983 3.49688,0.14983c1.17812,0 2.34161,-0.05995 3.49686,-0.14983c38.95284,1.81126 70.21724,33.69783 72.04674,73.4471zm8.47784,-243.38193c0,-20.854 16.5598,-37.75929 36.98773,-37.75929s36.98775,16.90529 36.98775,37.75929s-16.55989,37.75928 -36.98775,37.75928s-36.98773,-16.9059 -36.98773,-37.75928zm-47.03313,123.35114c0,20.85403 -16.55986,37.75931 -36.98775,37.75931s-36.98768,-16.90527 -36.98768,-37.75931s16.5598,-37.75934 36.98768,-37.75934s36.98775,16.90594 36.98775,37.75934zm0,246.82166c0,20.85388 -16.55986,37.75931 -36.98775,37.75931s-36.98768,-16.90543 -36.98768,-37.75931s16.5598,-37.75931 36.98768,-37.75931s36.98775,16.90533 36.98775,37.75931zm47.03313,-122.80444c0,-20.85394 16.5598,-37.75919 36.98773,-37.75919s36.98775,16.90524 36.98775,37.75919s-16.55989,37.75952 -36.98775,37.75952s-36.98773,-16.90543 -36.98773,-37.75952z" fill="#96c9c0"/>
    </g>
    <g id="svg_22" opacity="0.1">
     <path id="svg_25" d="m189.00456,356.79114c31.03291,0 56.27977,-25.7735 56.27977,-57.45386c0,-3.14096 -0.25204,-6.22278 -0.72949,-9.22839c-1.6615,-11.38928 -6.63785,-22.01959 -14.43494,-30.56393c-9.65482,-10.58044 -22.73079,-17.00841 -36.8192,-18.1008c-1.57045,-0.12109 -2.97594,-0.18045 -4.29614,-0.18045c-1.12468,0 -2.31165,0.04314 -3.60909,0.13066c-4.41656,-0.24521 -8.70688,-0.93292 -12.83513,-2.01456c5.23123,-1.49231 10.74606,-2.29269 16.44421,-2.29269c33.67708,0 60.9782,27.87013 60.9782,62.25017c0,34.38022 -27.30057,62.25031 -60.9782,62.25031c-6.54034,0 -12.83807,-1.05521 -18.74406,-3.00073c3.56848,-1.09058 7.26915,-1.87604 11.07138,-2.33179c2.51019,0.35077 5.07031,0.53607 7.67268,0.53607z" fill="#96c9c0"/>
     <path id="svg_26" d="m67.99597,117.73085c-22.26615,0 -41.54756,13.29346 -50.62977,32.51433c-3.61785,7.58145 -5.64992,16.08984 -5.64992,25.07489c0,10.28371 2.66286,19.94333 7.31787,28.30238c0.02941,0.05276 0.05754,0.10612 0.0869,0.15889c0.32835,0.58575 0.66895,1.16319 1.01666,1.73573c0.33008,0.54684 0.67302,1.08522 1.02133,1.62125c0.07046,0.10786 0.13977,0.21762 0.21145,0.32492c1.64326,2.49117 3.47454,4.87149 5.51018,7.10188c9.65539,10.58041 22.73071,17.00835 36.81971,18.10023c1.57047,0.12167 2.97535,0.18047 4.29559,0.18047c1.12469,0 2.31109,-0.04323 3.60787,-0.13077c4.76371,0.26443 9.38174,1.04152 13.80534,2.27415c-5.51836,1.67577 -11.36214,2.57988 -17.41376,2.57988c-33.67703,0 -60.9783,-27.8701 -60.9783,-62.25026c0,-34.3801 27.30064,-62.25018 60.9783,-62.25018c6.21374,0 12.20901,0.95149 17.85721,2.71482c-3.90558,1.13255 -7.96222,1.90661 -12.13623,2.27772c-2.07031,-0.22423 -3.9115,-0.33034 -5.72043,-0.33034z" fill="#96c9c0"/>
     <path id="svg_27" d="m189.00456,109.42265c31.03291,0 56.27977,-25.77345 56.27977,-57.45372s-25.24686,-57.45377 -56.27977,-57.45377s-56.27975,25.77344 -56.27975,57.45377c0,1.53611 0.06107,3.05713 0.17737,4.56324c-0.30772,4.63404 -1.08183,9.13857 -2.27527,13.46563c-1.68909,-5.70731 -2.6006,-11.75869 -2.6006,-18.02829c0,-34.37958 27.30061,-62.25026 60.97826,-62.25026s60.9782,27.87009 60.9782,62.25026s-27.30057,62.2503 -60.9782,62.2503c-6.29425,0 -12.36533,-0.9743 -18.07748,-2.78204c3.93971,-1.15469 8.03622,-1.94075 12.25191,-2.3209c1.91525,0.20088 3.85861,0.30579 5.82558,0.30579z" fill="#96c9c0"/>
     <path id="svg_28" d="m67.99597,359.89151c6.00468,0 11.80439,0.89029 17.28461,2.54086c-4.75372,1.32993 -9.72297,2.1207 -14.83903,2.3132c-0.81107,-0.03546 -1.62625,-0.05765 -2.44559,-0.05765c-31.03293,0 -56.27969,25.77344 -56.27969,57.4538s25.24676,57.4537 56.27969,57.4537c31.03299,0 56.2798,-25.77338 56.2798,-57.4537c0,-1.53613 -0.06111,-3.05786 -0.1774,-4.56387c0.30772,-4.63458 1.08123,-9.13974 2.27464,-13.46674c1.68968,5.70782 2.6012,11.76041 2.6012,18.03061c0,34.38022 -27.30058,62.25031 -60.97824,62.25031s-60.97822,-27.87009 -60.97822,-62.25031c0,-34.37955 27.30118,-62.25021 60.97822,-62.25021z" fill="#96c9c0"/>
    </g>
   </g>
  </g>
  <g id="svg_8">
   <g id="svg_42">
    <path id="svg_43" fill="#99CC33"/>
   </g>
  </g>
  <g id="svg_21">
   <metadata id="svg_20">image/svg+xml</metadata>
   <g id="svg_16">
    <path fill="#99cc33" id="svg_19" d="m4781.54004,31.2635c-0.33008,0.5222 -0.16992,1.1798 0.33984,1.5288c0.04004,0.0255 0.08008,0.0495 0.12012,0.0715c0.04004,0.0221 0.08008,0.0415 0.12012,0.0588c0.88965,0.5484 1.18994,1.6311 0.68994,2.5099c-0.01025,0.0251 -0.03027,0.0508 -0.05029,0.0776c-0.00977,0.0256 -0.02979,0.0517 -0.03955,0.0779c-0.6001,0.8672 -1.84033,1.152 -2.81006,0.6311c-0.6001,-0.3235 -1.37012,-0.1315 -1.72021,0.4288c-0.3501,0.5604 -0.14014,1.2768 0.45996,1.6003c0.58008,0.3084 1.30029,0.1481 1.66992,-0.3529c0.02002,-0.0245 0.04004,-0.0497 0.05029,-0.0759c0.02002,-0.0262 0.02979,-0.0528 0.0498,-0.0797c0.58008,-0.8446 1.76025,-1.1388 2.72021,-0.6775c0.02979,0.0168 0.06006,0.033 0.08008,0.0482c0.02979,0.0151 0.05957,0.0287 0.08984,0.0416c0.58984,0.2627 1.2998,0.0637 1.64014,-0.4704c0.32959,-0.5341 0.15967,-1.2099 -0.38037,-1.5521c-0.02979,-0.0168 -0.06006,-0.0331 -0.08984,-0.0482c-0.02002,-0.0152 -0.0498,-0.0288 -0.08008,-0.0417c-0.90967,-0.5403 -1.22998,-1.6384 -0.72998,-2.5286c0.02002,-0.0246 0.04004,-0.0498 0.05029,-0.076c0.02002,-0.0262 0.02979,-0.0528 0.0498,-0.0796c0.27979,-0.5469 0.06006,-1.2123 -0.51025,-1.5207c-0.59961,-0.3234 -1.37988,-0.1315 -1.71973,0.4289l0,0l0,-0.0001l0,0l0,0l0,0l0,0l0,0l0,0z"/>
    <path fill="#99cc33" id="svg_18" d="m4782.10986,42.9509c0.6499,0 1.18018,-0.4556 1.25,-1.0412c0.01025,-0.0428 0.01025,-0.0862 0.01025,-0.1303c0,-0.0441 0,-0.0875 -0.01025,-0.1303c0.07031,-0.984 0.93018,-1.7677 2,-1.8108c0.03027,0.0024 0.06006,0.0039 0.09033,0.0039c0.04004,0 0.06982,-0.0014 0.09961,-0.0036c1.11035,0.0489 1.99023,0.8991 1.99023,1.9408c0,0.647 0.56006,1.1715 1.25977,1.1715c0.7002,0 1.26025,-0.5245 1.26025,-1.1715c0,-0.6167 -0.51025,-1.1218 -1.16016,-1.1677c-0.02979,-0.0023 -0.06982,-0.0038 -0.1001,-0.0038c-0.02979,0 -0.05957,0.0015 -0.08984,0.0038c-1.08008,-0.0456 -1.9502,-0.8495 -2,-1.8511c0,-0.0297 0.01025,-0.0596 0.01025,-0.0899c0,-0.0302 -0.01025,-0.0601 -0.01025,-0.0898c-0.0498,-0.605 -0.58984,-1.0817 -1.25977,-1.0817c-0.66016,0 -1.2002,0.4767 -1.25,1.0817c-0.01025,0.0297 -0.01025,0.0596 -0.01025,0.0898c0,0.0303 0,0.0602 0.01025,0.0899c-0.05029,1.0016 -0.92041,1.8055 -2,1.8511c-0.03027,-0.0023 -0.06006,-0.0038 -0.09033,-0.0038c-0.04004,0 -0.06982,0.0015 -0.1001,0.0038c-0.6499,0.0459 -1.15967,0.551 -1.15967,1.1677c0,0.647 0.56006,1.1715 1.25977,1.1715l0,0z"/>
    <path fill="#99cc33" id="svg_17" d="m4792.71973,36.64792c-0.32422,-0.52216 -1.0166,-0.72423 -1.59717,-0.48753c-0.04248,0.01729 -0.08447,0.03672 -0.12549,0.05875c-0.04102,0.02202 -0.08057,0.04602 -0.11768,0.07152c-0.95264,0.43561 -2.11279,0.13667 -2.68604,-0.69912c-0.01416,-0.02745 -0.0293,-0.05468 -0.0459,-0.08147c-0.01563,-0.02564 -0.03271,-0.05022 -0.05029,-0.0743c-0.50879,-0.91611 -0.15723,-2.0511 0.81396,-2.57195c0.60303,-0.32351 0.81006,-1.03997 0.46143,-1.60029c-0.34814,-0.56032 -1.11963,-0.75229 -1.72266,-0.4288c-0.5752,0.30836 -0.78955,0.97371 -0.50684,1.52061c0.01416,0.02682 0.02881,0.05347 0.04492,0.07968c0.01611,0.0262 0.03369,0.05133 0.05176,0.07591c0.49707,0.89025 0.18018,1.98838 -0.72949,2.52868c-0.02881,0.0129 -0.05762,0.02652 -0.08545,0.04165c-0.02832,0.01513 -0.05566,0.0314 -0.08203,0.04818c-0.53906,0.34225 -0.71191,1.018 -0.37988,1.5521c0.33203,0.5341 1.04834,0.73314 1.63721,0.47045c0.02881,-0.01289 0.05762,-0.02651 0.08594,-0.04165c0.02832,-0.01514 0.05518,-0.0314 0.08154,-0.04819c0.9585,-0.46133 2.14111,-0.16709 2.72266,0.67756c0.01416,0.02683 0.02881,0.05348 0.04492,0.07968c0.01611,0.0262 0.03369,0.05133 0.05176,0.07591c0.36865,0.50095 1.09619,0.66126 1.67139,0.35289c0.60303,-0.32348 0.81006,-1.03995 0.46143,-1.60027z"/>
   </g>
   <g id="svg_11">
    <g id="svg_12">
     <path fill="#99cc33" d="m4600.59668,80.28178c-0.14746,0.18938 -0.07568,0.42789 0.15674,0.55445c0.0166,0.00924 0.03467,0.01795 0.05322,0.02594c0.01855,0.008 0.0376,0.01503 0.05713,0.0213c0.40088,0.19891 0.5376,0.59155 0.31396,0.9103c-0.0083,0.00909 -0.0166,0.01841 -0.02441,0.02812c-0.00684,0.0093 -0.01367,0.01875 -0.01953,0.02826c-0.27295,0.3145 -0.8335,0.4178 -1.2749,0.2289c-0.27393,-0.11732 -0.62451,-0.0477 -0.7832,0.15553c-0.1582,0.20321 -0.06396,0.46304 0.20996,0.58038c0.26123,0.11184 0.5918,0.05371 0.75928,-0.12798c0.0083,-0.00893 0.01611,-0.01804 0.02393,-0.02754c0.00732,-0.0095 0.01367,-0.01917 0.02002,-0.02889c0.26465,-0.30634 0.80176,-0.41305 1.2373,-0.24574c0.01221,0.00609 0.02441,0.01199 0.03711,0.01746c0.0127,0.00549 0.02588,0.01043 0.03906,0.01511c0.26758,0.09528 0.59326,0.02309 0.74414,-0.17062c0.15039,-0.1937 0.07227,-0.43877 -0.17285,-0.5629c-0.01221,-0.0061 -0.02441,-0.01199 -0.03711,-0.01749c-0.0127,-0.00548 -0.02588,-0.01043 -0.03906,-0.0151c-0.41309,-0.19596 -0.55713,-0.59422 -0.33154,-0.91709c0.0083,-0.00892 0.01611,-0.01803 0.02344,-0.02753c0.00781,-0.00951 0.01416,-0.01917 0.02051,-0.0289c0.12842,-0.19834 0.03125,-0.43964 -0.22998,-0.55148c-0.27441,-0.11732 -0.625,-0.0477 -0.7832,0.15551l0,0z" id="svg_15"/>
     <path fill="#99cc33" d="m4600.85645,84.52048c0.29492,0 0.5376,-0.16521 0.56934,-0.37762c0.00244,-0.01551 0.00391,-0.03127 0.00391,-0.04724c0,-0.01598 -0.00146,-0.03172 -0.00391,-0.04725c0.03174,-0.3569 0.42236,-0.64112 0.90674,-0.65674c0.01465,0.00085 0.02979,0.00142 0.04492,0.00142c0.01416,0 0.02832,-0.00053 0.04297,-0.00132c0.50342,0.01775 0.90479,0.32609 0.90479,0.70389c0,0.23464 0.25635,0.42486 0.57275,0.42486c0.31689,0 0.57324,-0.19022 0.57324,-0.42486c0,-0.22367 -0.23291,-0.40685 -0.5293,-0.42351c-0.01416,-0.00081 -0.02881,-0.00137 -0.04395,-0.00137c-0.01465,0 -0.0293,0.00056 -0.04395,0.00137c-0.48975,-0.01653 -0.8833,-0.30808 -0.90527,-0.67136c0.00098,-0.01075 0.00146,-0.02159 0.00146,-0.03257c0,-0.01097 -0.00049,-0.02182 -0.00146,-0.03258c-0.02246,-0.21941 -0.26953,-0.39229 -0.57129,-0.39229c-0.30176,0 -0.54883,0.17287 -0.57129,0.39228c-0.00146,0.01077 -0.00195,0.02161 -0.00195,0.03259c0,0.01098 0.00049,0.02182 0.00195,0.03259c-0.02246,0.36327 -0.41602,0.65483 -0.90576,0.67135c-0.01465,-0.00081 -0.0293,-0.00137 -0.04395,-0.00137c-0.01514,0 -0.02979,0.00056 -0.04395,0.00137c-0.2959,0.01665 -0.5293,0.19983 -0.5293,0.42351c0,0.23464 0.25635,0.42486 0.57324,0.42486z" id="svg_14"/>
     <path fill="#99cc33" d="m4605.67871,82.23456c-0.14795,-0.18938 -0.46191,-0.26266 -0.72607,-0.17682c-0.01953,0.00627 -0.03857,0.01332 -0.05713,0.02131c-0.01855,0.008 -0.03613,0.01669 -0.05322,0.02594c-0.43311,0.15799 -0.95996,0.04957 -1.2207,-0.25356c-0.00635,-0.00996 -0.01318,-0.01984 -0.02051,-0.02956c-0.00732,-0.00928 -0.01514,-0.0182 -0.02344,-0.02692c-0.23096,-0.33226 -0.07129,-0.74389 0.37012,-0.93279c0.27441,-0.11733 0.36816,-0.37717 0.20996,-0.58039c-0.1582,-0.20321 -0.50879,-0.27284 -0.7832,-0.15551c-0.26123,0.11183 -0.3584,0.35313 -0.22998,0.55148c0.00635,0.00973 0.0127,0.0194 0.02051,0.0289c0.00732,0.00951 0.01514,0.01862 0.02344,0.02753c0.22559,0.32286 0.08154,0.72113 -0.33154,0.91708c-0.01318,0.00468 -0.02637,0.00962 -0.03906,0.01511c-0.0127,0.00549 -0.0249,0.01139 -0.03711,0.01747c-0.24512,0.12413 -0.32324,0.36921 -0.17236,0.56291c0.15088,0.1937 0.47607,0.26589 0.74365,0.17062c0.01318,-0.00468 0.02637,-0.00962 0.03906,-0.01511c0.0127,-0.00549 0.0249,-0.01139 0.03711,-0.01748c0.43555,-0.1673 0.97266,-0.0606 1.2373,0.24574c0.00635,0.00973 0.0127,0.01939 0.02002,0.0289c0.00781,0.0095 0.01563,0.01862 0.02393,0.02753c0.16748,0.18169 0.49805,0.23982 0.75928,0.12798c0.27393,-0.11731 0.36816,-0.37714 0.20996,-0.58037z" id="svg_13"/>
    </g>
   </g>
  </g>
  <g id="svg_23">
   <g id="svg_44">
    <g id="svg_45">
     <path id="svg_46" d="m201.49739,296.58011c0,-3.668 -2.71854,-6.64151 -6.07198,-6.64151c-0.92041,0 -1.78951,0.23044 -2.57115,0.63126c-1.79417,-2.99713 -4.88922,-4.97852 -8.409,-4.97852c-5.54846,0 -10.0464,4.91983 -10.0464,10.98877c0,0.03378 0.00206,0.06702 0.0023,0.10071c-3.50003,0.58218 -6.18472,3.87836 -6.18472,7.8692c0,4.40161 3.26221,7.96988 7.28638,7.96988c0,0 25.57991,0 25.99464,0c4.02417,0 7.28641,-3.56827 7.28641,-7.96988s-3.26231,-7.96991 -7.28648,-7.96991m-13.37128,13.80887l-0.4754,-1.66574c-3.55922,-0.13403 -6.41687,-3.34293 -6.41687,-7.2681c0,-1.51172 0.42174,-2.96228 1.21947,-4.19543l0.21582,-0.33362l1.93585,1.49811l-0.21582,0.33316c-0.51297,0.793 -0.78404,1.72601 -0.78404,2.69772c0,2.19568 1.36998,4.05127 3.26933,4.54852l-0.34056,-1.1936l5.21286,1.28134l-3.62064,4.29764zm5.1857,-4.73849l-0.21579,0.33365l-1.93588,-1.49814l0.21582,-0.33362c0.51279,-0.79254 0.78386,-1.72519 0.78386,-2.6973c0,-2.19568 -1.36998,-4.05093 -3.2692,-4.54816l0.34058,1.1936l-5.21271,-1.2818l3.6205,-4.29797l0.47546,1.66656c3.55905,0.13403 6.41687,3.34302 6.41687,7.26776c0,1.51169 -0.42181,2.96228 -1.21951,4.1954z" fill="#ffffff"/>
    </g>
   </g>
  </g>
  <g id="svg_24">
   <g id="svg_47">
    <ellipse id="svg_48" ry="3.73215" rx="15.07078" cy="165.09303" cx="66.5" fill="#ffffff"/>
    <path id="svg_49" d="m66.5,187.11801c-8.2316,0 -14.92079,-1.63435 -15.0673,-3.66415c-0.00164,0.02264 -0.00347,0.04521 -0.00347,0.06796v5.49625c0,2.06125 6.74739,3.73215 15.07077,3.73215c8.32333,0 15.07077,-1.6709 15.07077,-3.73215v-5.49625c0,-0.02269 -0.00183,-0.04532 -0.00349,-0.06796c-0.14649,2.0298 -6.8357,3.66415 -15.06728,3.66415z" fill="#ffffff"/>
    <path id="svg_50" d="m66.5,179.16351c-8.2316,0 -14.92079,-1.63435 -15.0673,-3.66415c-0.00164,0.02263 -0.00347,0.04521 -0.00347,0.06796v5.49625c0,2.06125 6.74739,3.73215 15.07077,3.73215c8.32333,0 15.07077,-1.6709 15.07077,-3.73215v-5.49625c0,-0.02269 -0.00183,-0.04533 -0.00349,-0.06796c-0.14649,2.0298 -6.8357,3.66415 -15.06728,3.66415z" fill="#ffffff"/>
    <path id="svg_51" d="m66.5,171.27119c-8.2316,0 -14.92079,-1.63438 -15.0673,-3.66417c-0.00164,0.02263 -0.00347,0.04521 -0.00347,0.06796v5.49626c0,2.06122 6.74739,3.73215 15.07077,3.73215c8.32333,0 15.07077,-1.67093 15.07077,-3.73215v-5.49626c0,-0.02269 -0.00183,-0.04533 -0.00349,-0.06796c-0.14649,2.02979 -6.8357,3.66417 -15.06728,3.66417z" fill="#ffffff"/>
   </g>
  </g>
  <g id="svg_29">
   <g id="svg_52">
    <path id="svg_53" fill="#99CC33"/>
   </g>
  </g>
  <g id="svg_40">
   <metadata id="svg_39">image/svg+xml</metadata>
   <g id="svg_35">
    <path fill="#99cc33" id="svg_38" d="m4781.54004,31.2635c-0.33008,0.5222 -0.16992,1.1798 0.33984,1.5288c0.04004,0.0255 0.08008,0.0495 0.12012,0.0715c0.04004,0.0221 0.08008,0.0415 0.12012,0.0588c0.88965,0.5484 1.18994,1.6311 0.68994,2.5099c-0.01025,0.0251 -0.03027,0.0508 -0.05029,0.0776c-0.00977,0.0256 -0.02979,0.0517 -0.03955,0.0779c-0.6001,0.8672 -1.84033,1.152 -2.81006,0.6311c-0.6001,-0.3235 -1.37012,-0.1315 -1.72021,0.4288c-0.3501,0.5604 -0.14014,1.2768 0.45996,1.6003c0.58008,0.3084 1.30029,0.1481 1.66992,-0.3529c0.02002,-0.0245 0.04004,-0.0497 0.05029,-0.0759c0.02002,-0.0262 0.02979,-0.0528 0.0498,-0.0797c0.58008,-0.8446 1.76025,-1.1388 2.72021,-0.6775c0.02979,0.0168 0.06006,0.033 0.08008,0.0482c0.02979,0.0151 0.05957,0.0287 0.08984,0.0416c0.58984,0.2627 1.2998,0.0637 1.64014,-0.4704c0.32959,-0.5341 0.15967,-1.2099 -0.38037,-1.5521c-0.02979,-0.0168 -0.06006,-0.0331 -0.08984,-0.0482c-0.02002,-0.0152 -0.0498,-0.0288 -0.08008,-0.0417c-0.90967,-0.5403 -1.22998,-1.6384 -0.72998,-2.5286c0.02002,-0.0246 0.04004,-0.0498 0.05029,-0.076c0.02002,-0.0262 0.02979,-0.0528 0.0498,-0.0796c0.27979,-0.5469 0.06006,-1.2123 -0.51025,-1.5207c-0.59961,-0.3234 -1.37988,-0.1315 -1.71973,0.4289l0,0l0,-0.0001l0,0l0,0l0,0l0,0l0,0l0,0z"/>
    <path fill="#99cc33" id="svg_37" d="m4782.10986,42.9509c0.6499,0 1.18018,-0.4556 1.25,-1.0412c0.01025,-0.0428 0.01025,-0.0862 0.01025,-0.1303c0,-0.0441 0,-0.0875 -0.01025,-0.1303c0.07031,-0.984 0.93018,-1.7677 2,-1.8108c0.03027,0.0024 0.06006,0.0039 0.09033,0.0039c0.04004,0 0.06982,-0.0014 0.09961,-0.0036c1.11035,0.0489 1.99023,0.8991 1.99023,1.9408c0,0.647 0.56006,1.1715 1.25977,1.1715c0.7002,0 1.26025,-0.5245 1.26025,-1.1715c0,-0.6167 -0.51025,-1.1218 -1.16016,-1.1677c-0.02979,-0.0023 -0.06982,-0.0038 -0.1001,-0.0038c-0.02979,0 -0.05957,0.0015 -0.08984,0.0038c-1.08008,-0.0456 -1.9502,-0.8495 -2,-1.8511c0,-0.0297 0.01025,-0.0596 0.01025,-0.0899c0,-0.0302 -0.01025,-0.0601 -0.01025,-0.0898c-0.0498,-0.605 -0.58984,-1.0817 -1.25977,-1.0817c-0.66016,0 -1.2002,0.4767 -1.25,1.0817c-0.01025,0.0297 -0.01025,0.0596 -0.01025,0.0898c0,0.0303 0,0.0602 0.01025,0.0899c-0.05029,1.0016 -0.92041,1.8055 -2,1.8511c-0.03027,-0.0023 -0.06006,-0.0038 -0.09033,-0.0038c-0.04004,0 -0.06982,0.0015 -0.1001,0.0038c-0.6499,0.0459 -1.15967,0.551 -1.15967,1.1677c0,0.647 0.56006,1.1715 1.25977,1.1715l0,0z"/>
    <path fill="#99cc33" id="svg_36" d="m4792.71973,36.64792c-0.32422,-0.52216 -1.0166,-0.72423 -1.59717,-0.48753c-0.04248,0.01729 -0.08447,0.03672 -0.12549,0.05875c-0.04102,0.02202 -0.08057,0.04602 -0.11768,0.07152c-0.95264,0.43561 -2.11279,0.13667 -2.68604,-0.69912c-0.01416,-0.02745 -0.0293,-0.05468 -0.0459,-0.08147c-0.01563,-0.02564 -0.03271,-0.05022 -0.05029,-0.0743c-0.50879,-0.91611 -0.15723,-2.0511 0.81396,-2.57195c0.60303,-0.32351 0.81006,-1.03997 0.46143,-1.60029c-0.34814,-0.56032 -1.11963,-0.75229 -1.72266,-0.4288c-0.5752,0.30836 -0.78955,0.97371 -0.50684,1.52061c0.01416,0.02682 0.02881,0.05347 0.04492,0.07968c0.01611,0.0262 0.03369,0.05133 0.05176,0.07591c0.49707,0.89025 0.18018,1.98838 -0.72949,2.52868c-0.02881,0.0129 -0.05762,0.02652 -0.08545,0.04165c-0.02832,0.01513 -0.05566,0.0314 -0.08203,0.04818c-0.53906,0.34225 -0.71191,1.018 -0.37988,1.5521c0.33203,0.5341 1.04834,0.73314 1.63721,0.47045c0.02881,-0.01289 0.05762,-0.02651 0.08594,-0.04165c0.02832,-0.01514 0.05518,-0.0314 0.08154,-0.04819c0.9585,-0.46133 2.14111,-0.16709 2.72266,0.67756c0.01416,0.02683 0.02881,0.05348 0.04492,0.07968c0.01611,0.0262 0.03369,0.05133 0.05176,0.07591c0.36865,0.50095 1.09619,0.66126 1.67139,0.35289c0.60303,-0.32348 0.81006,-1.03995 0.46143,-1.60027z"/>
   </g>
   <g id="svg_30">
    <g id="svg_31">
     <path fill="#99cc33" d="m4600.59668,80.28178c-0.14746,0.18938 -0.07568,0.42789 0.15674,0.55445c0.0166,0.00924 0.03467,0.01795 0.05322,0.02594c0.01855,0.008 0.0376,0.01503 0.05713,0.0213c0.40088,0.19891 0.5376,0.59155 0.31396,0.9103c-0.0083,0.00909 -0.0166,0.01841 -0.02441,0.02812c-0.00684,0.0093 -0.01367,0.01875 -0.01953,0.02826c-0.27295,0.3145 -0.8335,0.4178 -1.2749,0.2289c-0.27393,-0.11732 -0.62451,-0.0477 -0.7832,0.15553c-0.1582,0.20321 -0.06396,0.46304 0.20996,0.58038c0.26123,0.11184 0.5918,0.05371 0.75928,-0.12798c0.0083,-0.00893 0.01611,-0.01804 0.02393,-0.02754c0.00732,-0.0095 0.01367,-0.01917 0.02002,-0.02889c0.26465,-0.30634 0.80176,-0.41305 1.2373,-0.24574c0.01221,0.00609 0.02441,0.01199 0.03711,0.01746c0.0127,0.00549 0.02588,0.01043 0.03906,0.01511c0.26758,0.09528 0.59326,0.02309 0.74414,-0.17062c0.15039,-0.1937 0.07227,-0.43877 -0.17285,-0.5629c-0.01221,-0.0061 -0.02441,-0.01199 -0.03711,-0.01749c-0.0127,-0.00548 -0.02588,-0.01043 -0.03906,-0.0151c-0.41309,-0.19596 -0.55713,-0.59422 -0.33154,-0.91709c0.0083,-0.00892 0.01611,-0.01803 0.02344,-0.02753c0.00781,-0.00951 0.01416,-0.01917 0.02051,-0.0289c0.12842,-0.19834 0.03125,-0.43964 -0.22998,-0.55148c-0.27441,-0.11732 -0.625,-0.0477 -0.7832,0.15551l0,0z" id="svg_34"/>
     <path fill="#99cc33" d="m4600.85645,84.52048c0.29492,0 0.5376,-0.16521 0.56934,-0.37762c0.00244,-0.01551 0.00391,-0.03127 0.00391,-0.04724c0,-0.01598 -0.00146,-0.03172 -0.00391,-0.04725c0.03174,-0.3569 0.42236,-0.64112 0.90674,-0.65674c0.01465,0.00085 0.02979,0.00142 0.04492,0.00142c0.01416,0 0.02832,-0.00053 0.04297,-0.00132c0.50342,0.01775 0.90479,0.32609 0.90479,0.70389c0,0.23464 0.25635,0.42486 0.57275,0.42486c0.31689,0 0.57324,-0.19022 0.57324,-0.42486c0,-0.22367 -0.23291,-0.40685 -0.5293,-0.42351c-0.01416,-0.00081 -0.02881,-0.00137 -0.04395,-0.00137c-0.01465,0 -0.0293,0.00056 -0.04395,0.00137c-0.48975,-0.01653 -0.8833,-0.30808 -0.90527,-0.67136c0.00098,-0.01075 0.00146,-0.02159 0.00146,-0.03257c0,-0.01097 -0.00049,-0.02182 -0.00146,-0.03258c-0.02246,-0.21941 -0.26953,-0.39229 -0.57129,-0.39229c-0.30176,0 -0.54883,0.17287 -0.57129,0.39228c-0.00146,0.01077 -0.00195,0.02161 -0.00195,0.03259c0,0.01098 0.00049,0.02182 0.00195,0.03259c-0.02246,0.36327 -0.41602,0.65483 -0.90576,0.67135c-0.01465,-0.00081 -0.0293,-0.00137 -0.04395,-0.00137c-0.01514,0 -0.02979,0.00056 -0.04395,0.00137c-0.2959,0.01665 -0.5293,0.19983 -0.5293,0.42351c0,0.23464 0.25635,0.42486 0.57324,0.42486z" id="svg_33"/>
     <path fill="#99cc33" d="m4605.67871,82.23456c-0.14795,-0.18938 -0.46191,-0.26266 -0.72607,-0.17682c-0.01953,0.00627 -0.03857,0.01332 -0.05713,0.02131c-0.01855,0.008 -0.03613,0.01669 -0.05322,0.02594c-0.43311,0.15799 -0.95996,0.04957 -1.2207,-0.25356c-0.00635,-0.00996 -0.01318,-0.01984 -0.02051,-0.02956c-0.00732,-0.00928 -0.01514,-0.0182 -0.02344,-0.02692c-0.23096,-0.33226 -0.07129,-0.74389 0.37012,-0.93279c0.27441,-0.11733 0.36816,-0.37717 0.20996,-0.58039c-0.1582,-0.20321 -0.50879,-0.27284 -0.7832,-0.15551c-0.26123,0.11183 -0.3584,0.35313 -0.22998,0.55148c0.00635,0.00973 0.0127,0.0194 0.02051,0.0289c0.00732,0.00951 0.01514,0.01862 0.02344,0.02753c0.22559,0.32286 0.08154,0.72113 -0.33154,0.91708c-0.01318,0.00468 -0.02637,0.00962 -0.03906,0.01511c-0.0127,0.00549 -0.0249,0.01139 -0.03711,0.01747c-0.24512,0.12413 -0.32324,0.36921 -0.17236,0.56291c0.15088,0.1937 0.47607,0.26589 0.74365,0.17062c0.01318,-0.00468 0.02637,-0.00962 0.03906,-0.01511c0.0127,-0.00549 0.0249,-0.01139 0.03711,-0.01748c0.43555,-0.1673 0.97266,-0.0606 1.2373,0.24574c0.00635,0.00973 0.0127,0.01939 0.02002,0.0289c0.00781,0.0095 0.01563,0.01862 0.02393,0.02753c0.16748,0.18169 0.49805,0.23982 0.75928,0.12798c0.27393,-0.11731 0.36816,-0.37714 0.20996,-0.58037z" id="svg_32"/>
    </g>
   </g>
  </g>
  <g id="svg_41">
   <g id="svg_54">
    <path id="svg_55" d="m58.0832,407.94901c-0.8216,1.58798 -0.4227,3.58899 0.8711,4.651c0.0946,0.077 0.1935,0.14999 0.2974,0.21698c0.104,0.06702 0.2101,0.12601 0.3175,0.17902c2.2336,1.668 2.9963,4.96201 1.7491,7.63599c-0.0469,0.07602 -0.0922,0.15402 -0.1344,0.23502c-0.0402,0.078 -0.0767,0.15799 -0.1111,0.237c-1.5184,2.638 -4.6418,3.505 -7.1002,1.91998c-1.5269,-0.98398 -3.4794,-0.39999 -4.361,1.30502c-0.8816,1.70499 -0.3584,3.884 1.1685,4.86798c1.4555,0.93802 3.297,0.45102 4.2297,-1.073c0.0458,-0.07498 0.0901,-0.151 0.1313,-0.23099c0.0412,-0.08002 0.0784,-0.16101 0.1135,-0.24301c1.4724,-2.569 4.465,-3.46399 6.891,-2.061c0.067,0.05103 0.1355,0.10101 0.2069,0.147s0.1441,0.08701 0.2171,0.12601c1.4904,0.79999 3.3036,0.194 4.1439,-1.431c0.8403,-1.625 0.4036,-3.67999 -0.9616,-4.72101c-0.067,-0.052 -0.1355,-0.10098 -0.2069,-0.147c-0.0714,-0.04599 -0.144,-0.08798 -0.2172,-0.12698c-2.3017,-1.64301 -3.1036,-4.98401 -1.8464,-7.69202c0.0458,-0.07498 0.0901,-0.15198 0.1313,-0.23099c0.0413,-0.07999 0.0784,-0.16101 0.1135,-0.24301c0.7159,-1.66299 0.1735,-3.68698 -1.282,-4.62598c-1.527,-0.98401 -3.4795,-0.40002 -4.3611,1.30499l0.0001,0z" fill="#ffffff"/>
    <path id="svg_56" d="m59.52844,443.50333c1.64314,0 2.99571,-1.38589 3.17238,-3.16748c0.01292,-0.13019 0.02009,-0.26233 0.02009,-0.39633c0,-0.13403 -0.00723,-0.26608 -0.02009,-0.3963c0.17759,-2.99365 2.35124,-5.37772 5.04903,-5.50876c0.08267,0.00714 0.16589,0.01193 0.25021,0.01193c0.08065,0 0.16031,-0.00446 0.23946,-0.01108c2.80573,0.1489 5.03962,2.7352 5.03962,5.90421c0,1.9682 1.42934,3.56381 3.19247,3.56381c1.76315,0 3.19248,-1.59561 3.19248,-3.56381c0,-1.87616 -1.29904,-3.41266 -2.94769,-3.55237c-0.08088,-0.00684 -0.16233,-0.01144 -0.2448,-0.01144c-0.08246,0 -0.16392,0.00461 -0.24478,0.01144c-2.72964,-0.1387 -4.9203,-2.58417 -5.04457,-5.63135c0.00617,-0.09024 0.01028,-0.18118 0.01028,-0.27325c0,-0.09207 -0.00417,-0.18295 -0.01028,-0.27325c-0.12514,-1.84045 -1.50149,-3.29059 -3.18221,-3.29059c-1.68067,0 -3.05698,1.45013 -3.18221,3.29053c-0.00611,0.09036 -0.01027,0.18124 -0.01027,0.27332c0,0.09207 0.00416,0.18301 0.01027,0.27332c-0.12426,3.04715 -2.31492,5.49265 -5.04456,5.63129c-0.08086,-0.00684 -0.16233,-0.01144 -0.24478,-0.01144c-0.08247,0 -0.16392,0.00461 -0.24479,0.01144c-1.64866,0.13971 -2.94768,1.67612 -2.94768,3.55237c-0.00005,1.9682 1.42928,3.56381 3.19241,3.56381z" fill="#ffffff"/>
    <path id="svg_57" d="m86.3884,424.32889c-0.82155,-1.58847 -2.57301,-2.20316 -4.04349,-1.48309c-0.10746,0.05258 -0.21352,0.11166 -0.31746,0.17868c-0.10396,0.06702 -0.20285,0.14005 -0.29739,0.21759c-2.41118,1.3252 -5.34761,0.4158 -6.79815,-2.1268c-0.03579,-0.08353 -0.07368,-0.16635 -0.11586,-0.24786c-0.04032,-0.078 -0.08364,-0.1528 -0.1283,-0.22601c-1.28737,-2.78696 -0.39787,-6.23969 2.06055,-7.82422c1.52695,-0.98413 2.05009,-3.1637 1.16856,-4.86829c-0.8816,-1.70456 -2.83408,-2.28854 -4.36102,-1.30447c-1.45551,0.93808 -1.99799,2.96216 -1.28201,4.62592c0.03513,0.0816 0.07225,0.16266 0.11351,0.2424c0.04121,0.07968 0.08554,0.15616 0.13127,0.2309c1.25726,2.70828 0.4554,6.04892 -1.84645,7.6926c-0.0731,0.03925 -0.14574,0.08066 -0.21714,0.12671c-0.07142,0.04602 -0.13988,0.09552 -0.20688,0.14655c-1.36517,1.0412 -1.802,3.09689 -0.96168,4.72171c0.84035,1.62479 2.65353,2.23032 4.14384,1.43118c0.07311,-0.03925 0.14573,-0.08066 0.21714,-0.12674s0.13988,-0.09549 0.20688,-0.14661c2.42606,-1.40338 5.41856,-0.5083 6.89096,2.06125c0.03514,0.08163 0.07225,0.16266 0.11351,0.24237c0.0412,0.07974 0.08554,0.15616 0.13129,0.23096c0.93268,1.52396 2.77418,2.01163 4.22967,1.07355c1.52707,-0.9841 2.05025,-3.16367 1.16865,-4.86826z" fill="#ffffff"/>
   </g>
  </g>
 </g>
</svg>