<?xml version="1.0" encoding="utf-8"?>
<!-- Generator: Adobe Illustrator 17.1.0, SVG Export Plug-In . SVG Version: 6.00 Build 0)  -->
<!DOCTYPE svg PUBLIC "-//W3C//DTD SVG 1.1//EN" "http://www.w3.org/Graphics/SVG/1.1/DTD/svg11.dtd">
<svg version="1.1" id="Layer_1" xmlns="http://www.w3.org/2000/svg" xmlns:xlink="http://www.w3.org/1999/xlink" x="0px" y="0px"
	 viewBox="0 0 80 80" enable-background="new 0 0 80 80" xml:space="preserve">
<g>
	<path fill="#99CA3D" d="M51.772,11.913c-4.044,0-7.355,3.125-7.656,7.092c-0.015,0.195-0.025,0.391-0.025,0.589
		c0,0.198,0.01,0.394,0.025,0.589c-0.292,6.422-5.342,11.591-11.706,12.096c-0.029,0.002-0.057,0.006-0.086,0.008
		c-0.307-0.037-0.617-0.063-0.933-0.063c-4.242,0-7.681,3.439-7.681,7.681c0,0.012,0.002,0.024,0.002,0.036
		c0,0.012-0.002,0.023-0.002,0.035c0,4.044,3.125,7.355,7.092,7.656c0.195,0.015,0.391,0.025,0.589,0.025
		c0.198,0,0.394-0.01,0.589-0.025c0.07,0.003,0.139,0.01,0.208,0.014c3.599-0.368,6.464-3.204,6.886-6.787
		c-0.008-0.113-0.019-0.226-0.024-0.34c0.013-0.18,0.022-0.361,0.022-0.544c0-0.012-0.001-0.023-0.002-0.035
		c0-0.012,0.002-0.023,0.002-0.035c0-0.188-0.01-0.373-0.023-0.557c0.005-0.111,0.015-0.221,0.023-0.331
		c0.452-6.324,5.515-11.371,11.847-11.79c0.281,0.031,0.565,0.048,0.854,0.048s0.574-0.017,0.854-0.048
		c3.84-0.425,6.827-3.679,6.827-7.632C59.453,15.351,56.014,11.913,51.772,11.913z M31.391,44.804c-2.684,0-4.859-2.175-4.859-4.859
		s2.175-4.859,4.859-4.859c2.684,0,4.859,2.175,4.859,4.859S34.074,44.804,31.391,44.804z M51.772,24.452
		c-2.684,0-4.859-2.175-4.859-4.859s2.175-4.859,4.859-4.859s4.859,2.175,4.859,4.859S54.456,24.452,51.772,24.452z"/>
	<g>
		<path fill="#99CC33" d="M52.361,52.63c-0.195-0.015-0.391-0.025-0.589-0.025c-0.198,0-0.394,0.01-0.589,0.025
			c-0.046-0.002-0.093-0.004-0.139-0.007c-5.676-0.32-9.705-5.538-8.915-11.168c0.105-0.749,0.129-1.524,0.071-2.315
			c-0.398,0.154-0.812,0.274-1.239,0.361c0.007,0.142,0.011,0.277,0.011,0.404c0,0.003,0,0.006,0,0.009v0v0.061
			c0,0.204-0.009,0.397-0.019,0.549c0.002,0.029,0.004,0.057,0.007,0.086l0.008,0.108l0.014,0.182l-0.021,0.181
			c-0.524,4.445-4.132,8.001-8.58,8.456l-0.155,0.016l-0.156-0.01l-0.088-0.006c-0.212,0.014-0.406,0.02-0.592,0.02
			c-0.226,0-0.466-0.01-0.733-0.03c-3.495-0.265-6.45-2.429-7.896-5.423c-0.014-0.029-0.026-0.059-0.04-0.088
			c-0.115-0.245-0.221-0.495-0.316-0.751c-0.018-0.05-0.035-0.1-0.052-0.151c-0.084-0.24-0.16-0.482-0.225-0.73
			c-0.014-0.055-0.027-0.11-0.041-0.166c-0.059-0.243-0.109-0.488-0.15-0.736c-0.011-0.07-0.021-0.141-0.031-0.212
			c-0.031-0.225-0.055-0.451-0.069-0.68c-0.007-0.111-0.013-0.222-0.016-0.333c-0.003-0.095-0.014-0.187-0.014-0.283
			c0-0.001,0-0.002,0-0.003v0v-0.067c0-5.284,4.299-9.582,9.582-9.582c0.164,0,0.33,0.006,0.502,0.016
			c0.084-0.416,0.21-0.815,0.358-1.204c-6.662-0.516-12.198,5.027-11.669,11.692c0.412,5.182,4.557,9.405,9.731,9.909
			c0.903,0.088,1.787,0.064,2.638-0.06c5.447-0.791,10.602,2.985,11.12,8.465c0.019,0.201,0.033,0.404,0.043,0.607
			c-0.013,0.178-0.023,0.356-0.023,0.537c0,0.012,0.001,0.024,0.001,0.035c0,0.012-0.001,0.023-0.001,0.035
			c0,0.009,0.001,0.018,0.001,0.027c0,0.008-0.001,0.015-0.001,0.023c0,0.082,0.01,0.162,0.012,0.244
			c0.118,3.744,2.909,6.805,6.532,7.344c0.372,0.055,0.749,0.093,1.136,0.093c4.242,0,7.681-3.439,7.681-7.681
			c0-0.008-0.001-0.017-0.001-0.025c0-0.008,0.001-0.017,0.001-0.025c0-0.012-0.002-0.023-0.002-0.034
			c0-0.012,0.002-0.024,0.002-0.036C59.453,56.243,56.328,52.932,52.361,52.63z M51.772,65.266c-2.684,0-4.859-2.175-4.859-4.859
			s2.175-4.859,4.859-4.859s4.859,2.175,4.859,4.859S54.456,65.266,51.772,65.266z"/>
		<path fill="#99CC33" d="M35.105,29.759c-0.01-0.004-0.02-0.006-0.03-0.01c-0.004,0.008-0.008,0.016-0.012,0.024
			C35.077,29.768,35.091,29.764,35.105,29.759z"/>
		<polygon fill="#99CC33" points="41.583,36.26 41.583,36.263 41.584,36.262 		"/>
	</g>
</g>
</svg>
