<?xml version="1.0" encoding="utf-8"?>
<!-- Generator: Adobe Illustrator 17.1.0, SVG Export Plug-In . SVG Version: 6.00 Build 0)  -->
<!DOCTYPE svg PUBLIC "-//W3C//DTD SVG 1.1//EN" "http://www.w3.org/Graphics/SVG/1.1/DTD/svg11.dtd">
<svg version="1.1" id="Layer_1" xmlns="http://www.w3.org/2000/svg" xmlns:xlink="http://www.w3.org/1999/xlink" x="0px" y="0px"
	 viewBox="0 0 80 80" enable-background="new 0 0 80 80" xml:space="preserve">
<g>
	<polygon fill="#99CC33" points="30.499,55.651 28.196,52.583 29.795,49.813 19.284,43.744 17.685,46.515 13.876,46.054 
		11.242,50.617 27.864,60.214 	"/>
	<polygon fill="#99CC33" points="28.64,27.54 39.151,33.609 40.75,30.838 44.559,31.299 47.193,26.736 30.571,17.139 27.936,21.702 
		30.239,24.77 	"/>
	<polygon fill="#99CC33" points="46.16,45.746 46.662,44.877 37.403,38.835 39.08,35.929 26.663,28.76 23.238,34.692 22.777,35.49 
		19.352,41.422 31.77,48.591 33.448,45.685 43.309,50.684 43.811,49.814 66.409,62.861 67.353,61.226 67.814,60.428 68.758,58.793 	
		"/>
</g>
</svg>
