<?xml version="1.0" encoding="utf-8"?>
<!-- Generator: Adobe Illustrator 17.1.0, SVG Export Plug-In . SVG Version: 6.00 Build 0)  -->
<!DOCTYPE svg PUBLIC "-//W3C//DTD SVG 1.1//EN" "http://www.w3.org/Graphics/SVG/1.1/DTD/svg11.dtd">
<svg version="1.1" id="Layer_1" xmlns="http://www.w3.org/2000/svg" xmlns:xlink="http://www.w3.org/1999/xlink" x="0px" y="0px"
	 viewBox="0 0 80 80" enable-background="new 0 0 80 80" xml:space="preserve">
<g>
	<g>
		<g>
			<path fill="#99CC33" d="M30.251,63.621c-5.946-2.498-10.939-7.259-13.564-13.687c-2.613-6.402-2.508-13.411,0.298-19.734
				l2.925,1.297c-2.449,5.52-2.541,11.638-0.26,17.226c4.582,11.224,17.439,16.625,28.661,12.045
				c5.436-2.218,9.684-6.422,11.959-11.835s2.305-11.389,0.086-16.825c-4.58-11.223-17.438-16.627-28.66-12.044l-1.21-2.964
				c12.857-5.247,27.584,0.942,32.834,13.798c2.541,6.228,2.507,13.073-0.099,19.275c-2.606,6.202-7.472,11.016-13.7,13.559
				C43.093,66.355,36.195,66.119,30.251,63.621z"/>
		</g>
	</g>
	<radialGradient id="SVGID_1_" cx="44.4479" cy="35.9724" r="9.6605" gradientUnits="userSpaceOnUse">
		<stop  offset="0" style="stop-color:#B1D85B"/>
		<stop  offset="1" style="stop-color:#8CC63F"/>
	</radialGradient>
	<polygon fill="url(#SVGID_1_)" points="39.482,25.811 35.315,25.811 35.315,46.133 53.581,46.133 53.581,41.967 39.482,41.967 	"/>
	<g>
		<g>
			<path fill="#99CC33" d="M34.989,65.083c-6.32-1.284-12.15-4.974-15.984-10.763c-3.818-5.766-5.089-12.659-3.577-19.409
				l3.123,0.698c-1.319,5.893-0.21,11.911,3.123,16.943c6.693,10.108,20.36,12.884,30.466,6.192
				c4.896-3.241,8.237-8.196,9.406-13.95s0.028-11.62-3.215-16.515c-6.691-10.107-20.359-12.885-30.465-6.192l-1.767-2.669
				C37.678,11.753,53.332,14.935,61,26.512c3.713,5.609,5.021,12.328,3.681,18.92c-1.34,6.593-5.167,12.267-10.776,15.982
				C48.118,65.246,41.308,66.367,34.989,65.083z"/>
		</g>
		<g>
			<g>
				<polygon fill="#99CC33" points="32.063,25.044 19.323,25.825 25.015,14.401 				"/>
			</g>
		</g>
	</g>
</g>
</svg>
