<?xml version="1.0" encoding="utf-8"?>
<!-- Generator: Adobe Illustrator 17.1.0, SVG Export Plug-In . SVG Version: 6.00 Build 0)  -->
<!DOCTYPE svg PUBLIC "-//W3C//DTD SVG 1.1//EN" "http://www.w3.org/Graphics/SVG/1.1/DTD/svg11.dtd">
<svg version="1.1" id="Layer_1" xmlns="http://www.w3.org/2000/svg" xmlns:xlink="http://www.w3.org/1999/xlink" x="0px" y="0px"
	 viewBox="0 0 80 80" enable-background="new 0 0 80 80" xml:space="preserve">
<g>
	<path fill="#99CC33" d="M37.493,52.008l4.125,4.125v5.875h4.375v-7.125c0,0,10.125,1.75,14.875-8.875
		C60.868,46.008,53.514,43.131,37.493,52.008z"/>
	<path fill="#99CC33" d="M65.061,37.268c-0.092-0.973-0.461-1.857-1.038-2.58c-4.536-9.853-14.49-16.696-26.048-16.696
		c-6.01,0-11.586,1.851-16.194,5.011c-0.666,0.457-1.367,0.86-2.065,1.265c-1.656,0.96-2.996,2.401-3.84,4.13
		c-0.624,1.277-0.983,2.706-0.983,4.222c0,3.841,2.251,7.149,5.501,8.7c0.172,5.651,4.795,10.181,10.487,10.181
		c1.326,0,2.589-0.256,3.757-0.704c0.667-0.256,1.302-0.576,1.895-0.954c1.189-0.758,2.381-1.513,3.653-2.122
		c5.338-2.557,11.148-4.285,17.261-5.03c0.911-0.111,1.831-0.065,2.749-0.063c0.004,0,0.007,0,0.011,0
		c0.577,0,1.122-0.118,1.636-0.301c1.897-0.676,3.264-2.47,3.264-4.599C65.107,37.57,65.076,37.421,65.061,37.268z M37.892,45.26
		c-0.197,0.127-0.437,0.29-0.725,0.443c-0.289,0.151-0.603,0.369-0.984,0.492c-0.376,0.138-0.792,0.277-1.239,0.409
		c-0.441,0.152-0.94,0.202-1.457,0.259c-0.259,0.033-0.523,0.05-0.791,0.07c-0.272,0.002-0.553-0.026-0.834-0.051
		c-0.281-0.027-0.568-0.047-0.851-0.089l-0.86-0.238c-0.574-0.143-1.12-0.456-1.642-0.749c-0.264-0.142-0.487-0.364-0.718-0.549
		c-0.232-0.187-0.452-0.38-0.623-0.619c-0.178-0.228-0.37-0.436-0.513-0.67c-0.132-0.242-0.265-0.472-0.376-0.704
		c-0.2-0.471-0.358-0.924-0.42-1.353c-0.085-0.423-0.089-0.818-0.081-1.159c0.004-0.34,0.055-0.635,0.104-0.872
		c0.097-0.476,0.232-0.726,0.232-0.726s0.127,0.252,0.356,0.642c0.237,0.387,0.545,0.924,0.988,1.451
		c0.198,0.274,0.457,0.528,0.704,0.785c0.141,0.116,0.267,0.243,0.4,0.367c0.145,0.106,0.292,0.214,0.443,0.325
		c0.283,0.229,0.637,0.377,0.958,0.566c0.368,0.126,0.688,0.333,1.099,0.408l0.576,0.189c0.21,0.026,0.415,0.073,0.621,0.113
		c0.207,0.036,0.409,0.092,0.616,0.135c0.214,0.02,0.426,0.037,0.636,0.069c0.42,0.049,0.83,0.146,1.24,0.151
		c0.406,0.03,0.797,0.073,1.166,0.123c0.369,0.064,0.713,0.059,1.023,0.101c0.308,0.021,0.586,0.069,0.816,0.101
		c0.461,0.069,0.74,0.141,0.74,0.141S38.285,45.001,37.892,45.26z M53.857,31.046c-1.021-0.34-2.287-0.821-3.545-1.116
		c-0.315-0.054-0.628-0.161-0.938-0.191c-0.311-0.043-0.617-0.115-0.916-0.124c-0.203-0.023-0.4-0.04-0.595-0.049
		c0.096,0.415,0.172,0.779,0.192,1.088c0.062,0.638,0.059,1,0.059,1s-0.247-0.284-0.613-0.778c-0.169-0.253-0.437-0.526-0.681-0.856
		c-0.109-0.151-0.244-0.3-0.383-0.452c-0.169-0.184-0.345-0.374-0.513-0.581c-0.043-0.042-0.088-0.088-0.131-0.131
		c-0.309-0.311-0.622-0.639-0.984-0.943c-0.399-0.358-0.841-0.694-1.308-1.004c-0.155-0.105-0.315-0.205-0.478-0.3
		c-0.645-0.374-1.326-0.683-2.029-0.931c-0.211-0.074-0.426-0.141-0.647-0.193c-2.294-0.662-4.903-0.633-6.921-0.552
		c-1.011,0.042-1.878,0.105-2.495,0.148c-0.626,0.046-0.984,0.072-0.984,0.072s0.261-0.262,0.781-0.63
		c0.518-0.37,1.298-0.84,2.305-1.276c1.008-0.425,2.25-0.802,3.649-0.969c0.699-0.076,1.436-0.117,2.19-0.061
		c0.755,0.043,1.525,0.169,2.283,0.379c1.514,0.418,2.956,1.215,4.021,2.244c0.539,0.505,0.991,1.055,1.354,1.607
		c0.373,0.543,0.632,1.102,0.866,1.609c0.319-0.113,0.663-0.18,1.026-0.217c0.381-0.065,0.772-0.054,1.171-0.03
		c0.405-0.004,0.79,0.113,1.189,0.175c0.774,0.201,1.514,0.5,2.138,0.882c0.635,0.364,1.154,0.809,1.561,1.219
		c0.821,0.821,1.134,1.567,1.134,1.567S54.857,31.415,53.857,31.046z"/>
</g>
</svg>
