<?xml version="1.0" encoding="utf-8"?>
<!-- Generator: Adobe Illustrator 17.1.0, SVG Export Plug-In . SVG Version: 6.00 Build 0)  -->
<!DOCTYPE svg PUBLIC "-//W3C//DTD SVG 1.1//EN" "http://www.w3.org/Graphics/SVG/1.1/DTD/svg11.dtd">
<svg version="1.1" id="Layer_1" xmlns="http://www.w3.org/2000/svg" xmlns:xlink="http://www.w3.org/1999/xlink" x="0px" y="0px"
	 viewBox="0 0 80 80" enable-background="new 0 0 80 80" xml:space="preserve">
<path fill="#99CC33" d="M67.101,59.973c0.037-0.076,0.074-0.152,0.108-0.23c0.013-0.028,0.024-0.057,0.036-0.086
	c0.45-1.032,0.729-2.154,0.802-3.332c0.001-0.018,0.003-0.036,0.004-0.054c0.006-0.098,0.007-0.196,0.01-0.294
	c0.002-0.085,0.006-0.17,0.006-0.255c0-0.068-0.002-0.136-0.004-0.205c-0.002-0.114-0.004-0.228-0.01-0.342
	c-0.003-0.064-0.009-0.128-0.013-0.191c-0.008-0.112-0.017-0.224-0.028-0.336c-0.003-0.027-0.004-0.054-0.007-0.081
	c-0.003-0.031-0.011-0.061-0.014-0.091c-0.028-0.229-0.063-0.458-0.108-0.687c-0.011-0.055-0.022-0.109-0.034-0.164
	c-0.043-0.203-0.094-0.404-0.151-0.605c-0.022-0.077-0.043-0.153-0.066-0.229c-0.066-0.215-0.139-0.428-0.22-0.64
	c-0.024-0.063-0.051-0.124-0.076-0.186c-0.076-0.187-0.158-0.372-0.247-0.556c-0.02-0.042-0.039-0.085-0.06-0.127
	c-0.091-0.182-0.186-0.362-0.289-0.541c-0.018-0.032-0.04-0.06-0.058-0.091c-0.068-0.113-0.142-0.222-0.213-0.333
	c-0.546-0.845-1.2-1.582-1.937-2.202c-0.02-0.017-0.039-0.035-0.059-0.052c-0.155-0.128-0.316-0.248-0.477-0.365
	c-0.082-0.06-0.163-0.122-0.247-0.18c-0.118-0.081-0.239-0.156-0.36-0.231c-0.144-0.09-0.288-0.178-0.436-0.261
	c-0.074-0.041-0.148-0.079-0.222-0.118c-0.207-0.109-0.417-0.21-0.631-0.304c-0.027-0.012-0.053-0.023-0.08-0.034
	c-0.269-0.115-0.543-0.218-0.822-0.309c-3.717-1.225-6.922-3.647-8.88-7.037l-0.952-1.649c-1.955-3.386-2.451-7.367-1.657-11.194
	c0.062-0.291,0.11-0.584,0.146-0.877c0.004-0.031,0.008-0.061,0.011-0.092c0.028-0.252,0.048-0.504,0.056-0.755
	c0.003-0.079,0.003-0.157,0.004-0.236c0.002-0.176-0.001-0.351-0.008-0.526c-0.007-0.172-0.019-0.344-0.035-0.516
	c-0.009-0.093-0.018-0.187-0.03-0.28c-0.034-0.284-0.081-0.566-0.14-0.849c-0.004-0.019-0.007-0.038-0.011-0.056
	c-0.104-0.483-0.245-0.961-0.425-1.432c-0.017-0.045-0.036-0.09-0.054-0.135c-0.095-0.238-0.198-0.474-0.313-0.708
	c-0.058-0.118-0.118-0.234-0.18-0.349c-0.044-0.081-0.08-0.164-0.126-0.244c-0.81-1.403-1.913-2.532-3.187-3.358
	c-0.026-0.017-0.054-0.033-0.08-0.05c-0.116-0.074-0.233-0.146-0.352-0.215c-0.071-0.041-0.145-0.08-0.218-0.12
	c-0.072-0.039-0.143-0.079-0.216-0.116c-0.113-0.058-0.228-0.113-0.343-0.168c-0.026-0.012-0.052-0.025-0.078-0.037
	c-0.061-0.028-0.121-0.059-0.183-0.086c-0.056-0.025-0.114-0.042-0.171-0.066c-0.106-0.043-0.213-0.084-0.32-0.124
	c-0.212-0.079-0.425-0.151-0.639-0.214c-0.04-0.012-0.08-0.023-0.121-0.035c-0.274-0.077-0.549-0.143-0.826-0.195
	c-0.035-0.007-0.069-0.014-0.104-0.02c-0.169-0.03-0.338-0.057-0.508-0.078c-0.154-0.02-0.308-0.037-0.463-0.049
	c-0.107-0.008-0.213-0.014-0.319-0.019c-0.205-0.01-0.411-0.016-0.617-0.013c-0.021,0-0.043,0-0.064,0.001
	c-0.269,0.005-0.537,0.024-0.806,0.051c-0.001,0-0.001,0-0.002,0c-1.325,0.134-2.643,0.539-3.873,1.235
	c-0.031,0.017-0.062,0.034-0.093,0.052c-0.18,0.104-0.359,0.213-0.534,0.33c-0.018,0.012-0.034,0.026-0.051,0.038
	c-0.201,0.135-0.396,0.281-0.587,0.431c-0.032,0.025-0.066,0.048-0.097,0.073c-0.681,0.549-1.297,1.191-1.822,1.926
	c-1.413,1.981-1.987,4.265-1.832,6.472c0.001,0.015,0.002,0.031,0.003,0.046c0.019,0.256,0.046,0.511,0.085,0.764
	c0.012,0.079,0.027,0.157,0.041,0.236c0.012,0.067,0.022,0.135,0.035,0.202c0.79,3.969,0.264,8.085-1.76,11.589l-0.683,1.182
	c-2.016,3.491-5.3,5.998-9.114,7.303c-0.923,0.311-1.789,0.75-2.572,1.305c-0.141,0.099-0.275,0.208-0.41,0.314
	c-0.093,0.074-0.187,0.146-0.278,0.222c-0.149,0.126-0.293,0.259-0.435,0.394c-0.072,0.069-0.143,0.139-0.213,0.21
	c-0.14,0.142-0.277,0.286-0.409,0.437c-0.073,0.083-0.141,0.17-0.211,0.256c-0.119,0.146-0.239,0.289-0.35,0.443
	c-0.172,0.236-0.333,0.479-0.484,0.73c-0.047,0.078-0.088,0.161-0.132,0.241c-0.118,0.208-0.229,0.419-0.332,0.636
	c-0.019,0.04-0.042,0.076-0.061,0.117c-0.034,0.074-0.058,0.149-0.09,0.224c-0.063,0.147-0.124,0.296-0.18,0.446
	c-0.046,0.125-0.089,0.25-0.129,0.376c-0.049,0.15-0.094,0.301-0.136,0.454c-0.034,0.127-0.066,0.253-0.095,0.381
	c-0.036,0.155-0.067,0.311-0.095,0.469c-0.023,0.129-0.043,0.258-0.061,0.388c-0.011,0.078-0.028,0.153-0.036,0.231
	c-0.015,0.131-0.023,0.26-0.033,0.39c-0.002,0.024-0.005,0.048-0.006,0.073c-0.159,2.395,0.536,4.625,1.81,6.417
	c0.027,0.038,0.052,0.076,0.079,0.113c0.123,0.168,0.252,0.33,0.385,0.49c0.08,0.097,0.161,0.193,0.245,0.287
	c0.049,0.055,0.101,0.107,0.151,0.161c0.175,0.188,0.358,0.37,0.549,0.544c0.033,0.03,0.067,0.059,0.1,0.089
	c0.2,0.178,0.408,0.349,0.625,0.511c0.063,0.048,0.127,0.095,0.192,0.141c0.085,0.061,0.165,0.127,0.252,0.185
	c1.379,0.918,2.893,1.442,4.419,1.61c0.027,0.003,0.055,0.005,0.082,0.008c0.143,0.014,0.285,0.027,0.428,0.035
	c0.054,0.003,0.108,0.004,0.162,0.007c0.115,0.005,0.23,0.009,0.344,0.009c0.028,0,0.055,0.002,0.083,0.002
	c0.026,0,0.05-0.003,0.076-0.004c0.265-0.003,0.529-0.014,0.792-0.037c0.071-0.006,0.141-0.015,0.211-0.023
	c0.224-0.025,0.446-0.055,0.667-0.095c0.101-0.018,0.201-0.04,0.301-0.061c0.171-0.036,0.341-0.077,0.51-0.122
	c0.124-0.033,0.247-0.068,0.369-0.106c0.175-0.054,0.348-0.113,0.519-0.176c0.077-0.029,0.154-0.055,0.23-0.085
	c0.225-0.09,0.446-0.19,0.665-0.296c0.046-0.023,0.093-0.045,0.139-0.068c0.244-0.123,0.482-0.256,0.716-0.399
	c0.005-0.003,0.01-0.006,0.016-0.01c0.545-0.335,1.061-0.724,1.539-1.166c2.904-2.555,6.564-4.087,10.435-4.087h1.905
	c3.928,0,7.64,1.574,10.563,4.197c0.002,0.001,0.003,0.003,0.005,0.004c0.204,0.182,0.415,0.355,0.632,0.518
	c0.031,0.024,0.062,0.047,0.093,0.07c0.184,0.135,0.371,0.262,0.563,0.384c0.073,0.047,0.146,0.094,0.221,0.139
	c0.147,0.088,0.297,0.17,0.448,0.25c0.122,0.065,0.244,0.13,0.369,0.191c0.102,0.049,0.205,0.092,0.309,0.137
	c0.172,0.076,0.344,0.15,0.52,0.216c0.049,0.018,0.1,0.033,0.149,0.051c0.688,0.245,1.41,0.416,2.158,0.504
	c0.051,0.006,0.102,0.016,0.154,0.022c0.116,0.012,0.234,0.014,0.35,0.022c0.194,0.013,0.388,0.025,0.582,0.027
	c0.023,0,0.045,0.003,0.068,0.003c0.191,0,0.38-0.006,0.568-0.017c0.104-0.006,0.207-0.016,0.31-0.025
	c0.126-0.011,0.251-0.024,0.375-0.04c0.155-0.019,0.309-0.042,0.463-0.069c0.147-0.026,0.294-0.053,0.439-0.085
	c0.133-0.03,0.266-0.063,0.398-0.099c0.094-0.025,0.187-0.053,0.28-0.08c0.195-0.058,0.389-0.122,0.582-0.193
	c0.112-0.041,0.222-0.083,0.332-0.128c0.068-0.028,0.137-0.049,0.204-0.079c2.204-0.964,3.854-2.597,4.858-4.533
	c0.009-0.017,0.018-0.033,0.027-0.049C67.017,60.152,67.059,60.062,67.101,59.973z M64.73,56.272c-0.01,0.11-0.024,0.22-0.039,0.329
	c-0.014,0.1-0.028,0.2-0.046,0.299c-0.022,0.119-0.049,0.238-0.077,0.356c-0.022,0.09-0.044,0.18-0.069,0.269
	c-0.033,0.114-0.07,0.226-0.108,0.338c-0.033,0.096-0.067,0.191-0.104,0.285c-0.038,0.095-0.079,0.188-0.121,0.282
	c-0.051,0.112-0.103,0.223-0.16,0.331c-0.035,0.068-0.073,0.135-0.11,0.201c-0.074,0.131-0.151,0.259-0.234,0.384
	c-0.027,0.04-0.054,0.08-0.082,0.12c-0.1,0.144-0.203,0.284-0.314,0.419c-0.017,0.021-0.034,0.041-0.051,0.062
	c-0.122,0.146-0.249,0.287-0.383,0.421c-0.013,0.013-0.026,0.025-0.039,0.038c-0.137,0.136-0.279,0.265-0.428,0.389
	c-0.019,0.016-0.038,0.031-0.057,0.046c-0.143,0.116-0.29,0.226-0.442,0.33c-0.035,0.024-0.072,0.046-0.108,0.07
	c-0.141,0.093-0.285,0.181-0.433,0.263c-0.05,0.027-0.1,0.051-0.15,0.077c-0.142,0.074-0.285,0.145-0.432,0.208
	c-0.052,0.022-0.105,0.041-0.158,0.061c-0.148,0.059-0.298,0.117-0.451,0.165c-0.055,0.017-0.11,0.03-0.165,0.046
	c-0.153,0.044-0.306,0.086-0.463,0.119c-0.062,0.013-0.124,0.021-0.185,0.032c-0.151,0.027-0.303,0.053-0.458,0.07
	c-0.073,0.008-0.147,0.011-0.22,0.016c-0.142,0.011-0.285,0.02-0.429,0.022c-0.094,0.001-0.187-0.003-0.281-0.006
	c-0.12-0.004-0.239-0.008-0.357-0.018c-0.118-0.01-0.234-0.026-0.351-0.042c-0.091-0.013-0.182-0.025-0.271-0.042
	c-0.131-0.024-0.261-0.053-0.391-0.085c-0.076-0.019-0.152-0.037-0.227-0.059c-0.13-0.037-0.258-0.079-0.385-0.123
	c-0.077-0.027-0.155-0.055-0.231-0.085c-0.115-0.045-0.228-0.094-0.34-0.146c-0.09-0.041-0.179-0.084-0.267-0.129
	c-0.091-0.047-0.181-0.097-0.27-0.148c-0.106-0.061-0.21-0.123-0.312-0.19c-0.066-0.043-0.132-0.088-0.197-0.134
	c-0.117-0.082-0.231-0.167-0.342-0.256c-0.049-0.039-0.096-0.079-0.144-0.12c-0.117-0.1-0.231-0.202-0.341-0.31
	c-0.042-0.041-0.082-0.083-0.123-0.126c-0.106-0.109-0.209-0.221-0.307-0.337c-0.046-0.054-0.09-0.111-0.134-0.167
	c-0.085-0.108-0.168-0.217-0.247-0.33c-0.055-0.08-0.107-0.163-0.16-0.247c-0.061-0.096-0.122-0.193-0.178-0.292
	c-0.059-0.107-0.112-0.215-0.165-0.323c-0.042-0.086-0.086-0.17-0.124-0.258c-0.053-0.121-0.098-0.245-0.143-0.368
	c-0.029-0.08-0.061-0.158-0.088-0.239c-0.043-0.132-0.077-0.266-0.111-0.399c-0.019-0.076-0.042-0.15-0.058-0.226
	c-0.03-0.139-0.052-0.279-0.073-0.418c-0.011-0.074-0.025-0.147-0.034-0.222c-0.017-0.145-0.025-0.289-0.032-0.434
	c-0.004-0.071-0.009-0.141-0.011-0.212c-0.003-0.158,0.002-0.315,0.011-0.473c0.003-0.054,0.004-0.108,0.008-0.161
	c0.014-0.175,0.035-0.35,0.062-0.523c0.005-0.032,0.009-0.064,0.015-0.095c0.032-0.184,0.072-0.366,0.119-0.547
	c0.006-0.023,0.011-0.046,0.018-0.069c0.049-0.179,0.106-0.356,0.169-0.53c0.01-0.028,0.021-0.057,0.031-0.085
	c0.061-0.161,0.13-0.319,0.203-0.474c0.022-0.045,0.043-0.091,0.065-0.136c0.067-0.133,0.139-0.264,0.215-0.392
	c0.039-0.066,0.078-0.131,0.119-0.196c0.066-0.104,0.137-0.206,0.209-0.307c0.059-0.081,0.118-0.162,0.18-0.24
	c0.064-0.082,0.132-0.161,0.2-0.24c0.075-0.086,0.151-0.172,0.231-0.254c0.068-0.07,0.139-0.138,0.21-0.206
	c0.084-0.079,0.168-0.158,0.256-0.233c0.082-0.07,0.168-0.137,0.254-0.203c0.081-0.063,0.163-0.126,0.247-0.185
	c0.108-0.076,0.221-0.147,0.336-0.217c0.069-0.042,0.137-0.086,0.208-0.126c0.135-0.076,0.273-0.145,0.411-0.21
	c0.058-0.028,0.115-0.058,0.174-0.084c0.148-0.065,0.298-0.121,0.449-0.175c0.054-0.019,0.107-0.041,0.162-0.059
	c0.153-0.05,0.308-0.091,0.463-0.129c0.056-0.014,0.111-0.031,0.167-0.043c0.152-0.033,0.305-0.057,0.458-0.08
	c0.062-0.009,0.124-0.021,0.187-0.029c0.15-0.018,0.299-0.026,0.449-0.033c0.067-0.003,0.134-0.009,0.201-0.01
	c0.156-0.003,0.312,0.003,0.467,0.011c0.057,0.003,0.115,0.004,0.172,0.009c0.168,0.013,0.335,0.034,0.501,0.06
	c0.041,0.006,0.083,0.012,0.124,0.019c0.172,0.03,0.343,0.068,0.512,0.111c0.037,0.009,0.073,0.018,0.11,0.028
	c0.163,0.045,0.324,0.097,0.483,0.154c0.047,0.017,0.093,0.033,0.139,0.051c0.141,0.054,0.279,0.115,0.417,0.179
	c0.067,0.031,0.134,0.063,0.199,0.096c0.11,0.056,0.218,0.116,0.325,0.178c0.09,0.053,0.18,0.106,0.267,0.163
	c0.078,0.05,0.155,0.103,0.231,0.157c0.108,0.077,0.214,0.155,0.317,0.237c0.054,0.043,0.106,0.088,0.158,0.132
	c0.114,0.098,0.226,0.198,0.334,0.304c0.041,0.04,0.081,0.082,0.121,0.123c0.109,0.112,0.214,0.227,0.315,0.346
	c0.04,0.047,0.077,0.096,0.116,0.144c0.093,0.117,0.183,0.236,0.268,0.359c0.044,0.064,0.085,0.131,0.127,0.197
	c0.073,0.114,0.146,0.229,0.212,0.348c0.044,0.078,0.082,0.158,0.122,0.238c0.058,0.115,0.117,0.23,0.168,0.348
	c0.034,0.079,0.062,0.159,0.093,0.239c0.048,0.124,0.097,0.247,0.137,0.374c0.024,0.076,0.042,0.152,0.064,0.229
	c0.037,0.134,0.075,0.267,0.104,0.404c0.016,0.075,0.026,0.15,0.039,0.224c0.025,0.14,0.049,0.28,0.065,0.423
	c0.009,0.078,0.012,0.156,0.017,0.234c0.01,0.139,0.02,0.278,0.021,0.42c0.001,0.092-0.003,0.183-0.006,0.275
	C64.745,56.028,64.74,56.151,64.73,56.272z M39.657,30.899c-0.082-0.004-0.164-0.011-0.246-0.018
	c-0.143-0.013-0.286-0.029-0.427-0.051c-0.056-0.009-0.111-0.019-0.166-0.029c-0.161-0.029-0.32-0.063-0.478-0.104
	c-0.042-0.011-0.083-0.023-0.125-0.035c-0.164-0.046-0.327-0.097-0.487-0.156c-0.042-0.015-0.083-0.032-0.125-0.049
	c-0.155-0.06-0.308-0.125-0.458-0.196c-0.052-0.025-0.104-0.053-0.156-0.08c-0.138-0.071-0.276-0.144-0.409-0.224
	c-0.057-0.034-0.111-0.072-0.166-0.107c-0.128-0.082-0.255-0.166-0.378-0.257c-0.047-0.035-0.09-0.073-0.136-0.109
	c-0.125-0.099-0.25-0.199-0.369-0.308c-0.037-0.034-0.071-0.071-0.107-0.105c-0.121-0.116-0.241-0.234-0.354-0.361
	c-0.032-0.035-0.06-0.073-0.091-0.108c-0.111-0.13-0.22-0.262-0.322-0.402c-0.031-0.043-0.059-0.087-0.089-0.131
	c-0.094-0.136-0.186-0.274-0.271-0.419c-0.035-0.059-0.066-0.12-0.099-0.181c-0.071-0.129-0.139-0.259-0.2-0.391
	c-0.038-0.082-0.072-0.165-0.106-0.248c-0.047-0.113-0.093-0.227-0.133-0.342c-0.034-0.096-0.064-0.193-0.093-0.291
	c-0.033-0.108-0.064-0.217-0.091-0.326c-0.024-0.097-0.044-0.194-0.064-0.292c-0.023-0.118-0.045-0.236-0.062-0.355
	c-0.012-0.083-0.021-0.167-0.03-0.251c-0.014-0.14-0.026-0.28-0.031-0.42c-0.002-0.059-0.003-0.119-0.004-0.178
	c-0.002-0.167,0.001-0.333,0.011-0.499c0.002-0.032,0.005-0.064,0.007-0.097c0.015-0.19,0.037-0.379,0.068-0.566
	c0.002-0.011,0.004-0.023,0.006-0.034c0.034-0.201,0.077-0.401,0.13-0.598c0.001-0.004,0.002-0.007,0.003-0.011
	c0.054-0.199,0.116-0.395,0.188-0.589c0.004-0.01,0.008-0.02,0.012-0.03c0.069-0.184,0.147-0.365,0.232-0.542
	c0.013-0.027,0.028-0.053,0.041-0.08c0.081-0.162,0.167-0.321,0.261-0.476c0.023-0.038,0.048-0.074,0.072-0.112
	c0.091-0.144,0.186-0.287,0.289-0.425c0.028-0.037,0.057-0.071,0.086-0.107c0.104-0.134,0.212-0.266,0.327-0.392
	c0.033-0.036,0.069-0.069,0.103-0.105c0.115-0.121,0.233-0.239,0.358-0.352c0.043-0.038,0.088-0.073,0.131-0.11
	c0.121-0.103,0.244-0.204,0.373-0.299c0.058-0.042,0.118-0.08,0.177-0.121c0.119-0.081,0.239-0.162,0.365-0.236
	c0.081-0.048,0.164-0.091,0.247-0.135c0.105-0.056,0.209-0.111,0.315-0.161c0.109-0.051,0.22-0.097,0.332-0.142
	c0.082-0.033,0.164-0.066,0.247-0.096c0.129-0.046,0.26-0.087,0.392-0.125c0.071-0.021,0.141-0.041,0.212-0.059
	c0.136-0.035,0.274-0.064,0.412-0.09c0.074-0.014,0.148-0.027,0.222-0.039c0.129-0.02,0.259-0.034,0.39-0.047
	c0.09-0.008,0.18-0.016,0.27-0.02c0.112-0.006,0.223-0.007,0.335-0.008c0.112,0,0.224,0.002,0.335,0.008
	c0.09,0.004,0.18,0.012,0.27,0.02c0.13,0.012,0.26,0.027,0.39,0.047c0.074,0.011,0.148,0.025,0.222,0.039
	c0.138,0.026,0.275,0.055,0.412,0.09c0.071,0.018,0.142,0.039,0.213,0.059c0.132,0.038,0.263,0.079,0.392,0.125
	c0.083,0.03,0.165,0.063,0.247,0.096c0.112,0.045,0.223,0.091,0.332,0.142c0.106,0.05,0.211,0.105,0.316,0.162
	c0.083,0.044,0.166,0.087,0.246,0.135c0.126,0.075,0.247,0.155,0.366,0.237c0.059,0.04,0.119,0.078,0.176,0.12
	c0.13,0.095,0.253,0.196,0.374,0.299c0.043,0.037,0.088,0.071,0.13,0.109c0.126,0.113,0.244,0.232,0.359,0.352
	c0.034,0.035,0.069,0.068,0.102,0.104c0.116,0.126,0.223,0.258,0.328,0.392c0.028,0.036,0.058,0.07,0.085,0.107
	c0.103,0.138,0.198,0.281,0.289,0.425c0.024,0.037,0.049,0.073,0.072,0.111c0.094,0.156,0.18,0.315,0.261,0.477
	c0.013,0.026,0.028,0.052,0.04,0.079c0.086,0.178,0.163,0.359,0.233,0.543c0.004,0.01,0.008,0.02,0.012,0.03
	c0.072,0.194,0.135,0.39,0.188,0.589c0.001,0.003,0.002,0.007,0.003,0.01c0.053,0.197,0.096,0.397,0.13,0.599
	c0.002,0.011,0.004,0.023,0.006,0.034c0.031,0.187,0.053,0.376,0.068,0.566c0.002,0.032,0.005,0.064,0.007,0.097
	c0.011,0.166,0.013,0.333,0.011,0.5c-0.001,0.059-0.002,0.118-0.004,0.177c-0.005,0.14-0.017,0.28-0.031,0.42
	c-0.009,0.084-0.018,0.168-0.03,0.251c-0.017,0.118-0.038,0.237-0.062,0.355c-0.02,0.098-0.04,0.195-0.064,0.292
	c-0.027,0.109-0.058,0.218-0.091,0.326c-0.029,0.097-0.059,0.195-0.093,0.291c-0.04,0.115-0.086,0.228-0.133,0.342
	c-0.034,0.083-0.068,0.166-0.106,0.248c-0.061,0.132-0.129,0.262-0.2,0.391c-0.033,0.06-0.064,0.121-0.099,0.181
	c-0.085,0.145-0.177,0.283-0.271,0.419c-0.03,0.043-0.058,0.088-0.089,0.131c-0.102,0.14-0.211,0.272-0.322,0.402
	c-0.031,0.036-0.059,0.073-0.091,0.108c-0.113,0.126-0.232,0.244-0.353,0.36c-0.036,0.035-0.07,0.072-0.108,0.106
	c-0.118,0.108-0.243,0.208-0.368,0.307c-0.046,0.036-0.09,0.075-0.137,0.11c-0.122,0.091-0.249,0.174-0.377,0.257
	c-0.056,0.036-0.11,0.073-0.167,0.108c-0.133,0.08-0.271,0.153-0.409,0.224c-0.052,0.027-0.104,0.055-0.156,0.08
	c-0.15,0.072-0.303,0.136-0.458,0.196c-0.042,0.016-0.083,0.033-0.125,0.049c-0.16,0.058-0.323,0.11-0.487,0.156
	c-0.042,0.012-0.083,0.024-0.125,0.035c-0.158,0.041-0.318,0.075-0.478,0.104c-0.055,0.01-0.111,0.02-0.166,0.029
	c-0.142,0.022-0.284,0.038-0.427,0.051c-0.082,0.007-0.164,0.014-0.246,0.018c-0.114,0.006-0.228,0.008-0.342,0.008
	C39.885,30.906,39.771,30.905,39.657,30.899z M28.467,56.047c-0.007,0.144-0.015,0.289-0.032,0.433
	c-0.009,0.075-0.023,0.149-0.034,0.223c-0.021,0.139-0.042,0.279-0.072,0.417c-0.017,0.077-0.039,0.152-0.059,0.228
	c-0.034,0.133-0.068,0.266-0.111,0.398c-0.026,0.081-0.058,0.16-0.088,0.239c-0.045,0.123-0.09,0.246-0.143,0.367
	c-0.038,0.088-0.082,0.172-0.125,0.258c-0.053,0.108-0.106,0.216-0.165,0.322c-0.056,0.1-0.117,0.196-0.178,0.293
	c-0.052,0.083-0.104,0.166-0.159,0.246c-0.079,0.113-0.162,0.223-0.247,0.331c-0.044,0.056-0.088,0.112-0.133,0.166
	c-0.098,0.116-0.201,0.229-0.307,0.338c-0.041,0.042-0.081,0.084-0.123,0.125c-0.11,0.108-0.224,0.211-0.341,0.31
	c-0.047,0.04-0.095,0.081-0.143,0.119c-0.111,0.089-0.226,0.174-0.343,0.256c-0.065,0.045-0.13,0.091-0.196,0.133
	c-0.102,0.067-0.207,0.129-0.313,0.19c-0.089,0.051-0.178,0.101-0.269,0.147c-0.088,0.045-0.177,0.087-0.267,0.129
	c-0.112,0.051-0.225,0.101-0.34,0.146c-0.076,0.03-0.154,0.058-0.231,0.085c-0.127,0.045-0.255,0.086-0.385,0.123
	c-0.075,0.021-0.151,0.04-0.227,0.059c-0.129,0.032-0.259,0.061-0.391,0.085c-0.09,0.016-0.18,0.029-0.271,0.042
	c-0.117,0.016-0.233,0.032-0.351,0.042c-0.118,0.01-0.237,0.014-0.357,0.018c-0.094,0.003-0.187,0.007-0.281,0.006
	c-0.145-0.002-0.287-0.011-0.429-0.022c-0.073-0.005-0.147-0.008-0.22-0.016c-0.155-0.017-0.307-0.043-0.458-0.07
	c-0.062-0.011-0.124-0.019-0.185-0.032c-0.157-0.033-0.31-0.075-0.463-0.119c-0.055-0.016-0.11-0.029-0.165-0.046
	c-0.153-0.049-0.303-0.106-0.451-0.166c-0.052-0.021-0.105-0.039-0.157-0.061c-0.147-0.063-0.291-0.135-0.432-0.209
	c-0.05-0.026-0.101-0.05-0.15-0.077c-0.148-0.082-0.292-0.171-0.433-0.263c-0.036-0.023-0.073-0.046-0.108-0.07
	c-0.152-0.104-0.299-0.214-0.442-0.33c-0.019-0.015-0.039-0.03-0.057-0.046c-0.148-0.123-0.291-0.253-0.427-0.389
	c-0.013-0.013-0.026-0.025-0.039-0.038c-0.134-0.134-0.261-0.275-0.383-0.421c-0.017-0.021-0.035-0.041-0.052-0.062
	c-0.11-0.135-0.214-0.275-0.313-0.419c-0.028-0.04-0.056-0.08-0.082-0.121c-0.082-0.125-0.159-0.253-0.233-0.384
	c-0.038-0.067-0.075-0.134-0.111-0.202c-0.057-0.108-0.109-0.219-0.159-0.33c-0.042-0.093-0.083-0.187-0.121-0.282
	c-0.037-0.094-0.071-0.189-0.104-0.284c-0.039-0.112-0.076-0.225-0.108-0.339c-0.025-0.088-0.047-0.178-0.069-0.268
	c-0.029-0.118-0.055-0.237-0.078-0.357c-0.018-0.098-0.032-0.198-0.046-0.298c-0.015-0.11-0.03-0.22-0.039-0.331
	c-0.01-0.121-0.015-0.244-0.019-0.367c-0.003-0.092-0.007-0.184-0.006-0.276c0.002-0.141,0.011-0.28,0.021-0.418
	c0.006-0.079,0.009-0.157,0.017-0.236c0.016-0.142,0.04-0.282,0.065-0.422c0.013-0.075,0.023-0.151,0.039-0.226
	c0.029-0.136,0.066-0.269,0.104-0.402c0.021-0.077,0.04-0.154,0.064-0.23c0.041-0.127,0.089-0.25,0.137-0.373
	c0.031-0.08,0.059-0.16,0.093-0.239c0.051-0.118,0.11-0.233,0.168-0.348c0.04-0.08,0.078-0.16,0.122-0.239
	c0.066-0.119,0.138-0.233,0.211-0.347c0.042-0.066,0.084-0.133,0.128-0.198c0.085-0.123,0.175-0.241,0.268-0.358
	c0.039-0.049,0.077-0.098,0.116-0.145c0.1-0.119,0.206-0.234,0.314-0.346c0.04-0.041,0.08-0.083,0.121-0.124
	c0.107-0.105,0.219-0.205,0.333-0.303c0.053-0.045,0.105-0.09,0.159-0.133c0.103-0.083,0.209-0.161,0.317-0.237
	c0.076-0.054,0.153-0.107,0.231-0.157c0.087-0.057,0.177-0.11,0.267-0.162c0.107-0.062,0.215-0.122,0.325-0.178
	c0.065-0.033,0.132-0.065,0.199-0.096c0.137-0.064,0.276-0.124,0.417-0.179c0.046-0.018,0.093-0.034,0.139-0.051
	c0.159-0.057,0.32-0.11,0.484-0.155c0.036-0.01,0.073-0.019,0.11-0.028c0.169-0.044,0.34-0.081,0.513-0.112
	c0.041-0.007,0.082-0.013,0.124-0.019c0.166-0.026,0.333-0.047,0.502-0.06c0.057-0.004,0.115-0.006,0.172-0.009
	c0.156-0.008,0.311-0.013,0.468-0.011c0.068,0.001,0.134,0.007,0.201,0.01c0.15,0.007,0.3,0.016,0.449,0.033
	c0.063,0.007,0.125,0.019,0.187,0.029c0.153,0.022,0.306,0.046,0.458,0.08c0.056,0.012,0.111,0.029,0.167,0.043
	c0.155,0.038,0.31,0.079,0.463,0.129c0.055,0.018,0.108,0.04,0.162,0.059c0.151,0.054,0.301,0.11,0.449,0.175
	c0.059,0.026,0.115,0.056,0.173,0.084c0.138,0.066,0.276,0.134,0.411,0.21c0.071,0.04,0.139,0.084,0.208,0.126
	c0.114,0.07,0.227,0.141,0.336,0.217c0.084,0.059,0.166,0.122,0.247,0.185c0.086,0.066,0.172,0.133,0.254,0.203
	c0.088,0.075,0.172,0.153,0.256,0.233c0.071,0.068,0.142,0.136,0.21,0.206c0.08,0.082,0.156,0.168,0.231,0.254
	c0.068,0.079,0.136,0.158,0.2,0.24c0.062,0.079,0.121,0.159,0.18,0.241c0.072,0.101,0.143,0.202,0.209,0.307
	c0.041,0.064,0.08,0.13,0.119,0.196c0.076,0.129,0.148,0.259,0.215,0.393c0.022,0.045,0.044,0.09,0.065,0.135
	c0.073,0.156,0.142,0.314,0.203,0.474c0.011,0.028,0.021,0.057,0.031,0.086c0.064,0.174,0.121,0.351,0.169,0.53
	c0.006,0.023,0.012,0.046,0.018,0.069c0.047,0.18,0.087,0.363,0.119,0.547c0.006,0.032,0.01,0.064,0.015,0.097
	c0.027,0.173,0.049,0.347,0.062,0.522c0.004,0.054,0.005,0.108,0.008,0.162c0.008,0.157,0.014,0.314,0.011,0.472
	C28.476,55.906,28.471,55.976,28.467,56.047z M40.682,52.506h-1.365c-2.096,0-4.132-0.432-6.031-1.218
	c-1.328-0.55-2.125-1.915-1.932-3.34c0.261-1.929,0.877-3.804,1.87-5.524l0.953-1.65c0.994-1.722,2.311-3.193,3.854-4.385
	c1.137-0.879,2.718-0.871,3.858,0.004c1.631,1.252,3.023,2.8,4.071,4.615l0.683,1.182c1.037,1.795,1.678,3.752,1.952,5.766
	c0.195,1.431-0.6,2.807-1.936,3.355C44.774,52.083,42.757,52.506,40.682,52.506z"/>
</svg>
