<?xml version="1.0" encoding="utf-8"?>
<!-- Generator: Adobe Illustrator 17.1.0, SVG Export Plug-In . SVG Version: 6.00 Build 0)  -->
<!DOCTYPE svg PUBLIC "-//W3C//DTD SVG 1.1//EN" "http://www.w3.org/Graphics/SVG/1.1/DTD/svg11.dtd">
<svg version="1.1" id="Layer_1" xmlns="http://www.w3.org/2000/svg" xmlns:xlink="http://www.w3.org/1999/xlink" x="0px" y="0px"
	 viewBox="0 0 1200 1200" enable-background="new 0 0 1200 1200" xml:space="preserve">
<g>
	<g>
		<g>
			<path fill="#E6E6E6" d="M422.199,620.269c0.368-2.104,0.149-3.807-0.654-5.105c-0.804-1.3-2.021-2.362-3.65-3.188
				c-1.63-0.825-3.504-1.495-5.621-2.012c-2.118-0.516-4.35-1.021-6.697-1.517c-3.096-0.701-6.024-1.536-8.783-2.506
				c-2.762-0.968-5.105-2.31-7.033-4.022c-1.929-1.712-3.323-3.888-4.181-6.529c-0.858-2.64-0.941-5.941-0.248-9.902
				c0.765-4.373,2.195-8.18,4.288-11.419c2.093-3.238,4.636-5.92,7.628-8.045c2.991-2.125,6.343-3.713,10.055-4.766
				c3.712-1.052,7.775-1.578,12.19-1.578s8.774,0.433,13.079,1.299c4.305,0.867,7.946,1.981,10.926,3.342l-2.274,12.997
				c-3.995-1.691-7.896-2.918-11.703-3.683c-3.807-0.763-7.443-1.145-10.909-1.145c-4.992,0-8.999,0.908-12.019,2.724
				c-3.021,1.815-4.848,4.539-5.483,8.169c-0.369,2.104-0.229,3.837,0.42,5.199c0.648,1.361,1.659,2.486,3.031,3.373
				c1.37,0.888,3,1.6,4.887,2.135c1.887,0.537,3.904,1.032,6.053,1.485c3.377,0.743,6.58,1.599,9.607,2.568
				c3.027,0.97,5.629,2.321,7.8,4.054c2.173,1.733,3.737,3.992,4.694,6.777c0.957,2.785,1.056,6.344,0.298,10.676
				c-0.78,4.456-2.28,8.314-4.5,11.573c-2.221,3.26-5.033,5.953-8.438,8.076c-3.404,2.126-7.363,3.704-11.875,4.735
				c-4.514,1.031-9.349,1.547-14.506,1.547c-4.497,0-8.844-0.443-13.042-1.331c-4.198-0.887-7.601-2.134-10.207-3.744l2.242-12.811
				c3.774,1.773,7.53,3.063,11.269,3.868c3.736,0.804,7.668,1.208,11.794,1.208c2.393,0,4.778-0.196,7.159-0.589
				c2.379-0.392,4.569-1.061,6.572-2.012c2.001-0.948,3.703-2.237,5.103-3.868C420.871,624.674,421.781,622.662,422.199,620.269z"/>
			<path fill="#E6E6E6" d="M568.683,633.761c2.847,0,5.868-0.289,9.064-0.867c3.196-0.577,6.475-1.402,9.84-2.475l-2.871,10.697
				c-7.729,4.071-16.492,4.465-20.701,4.465c-4.25,0-8.188-0.547-11.813-1.64c-3.625-1.092-6.647-2.856-9.069-5.291
				c-2.421-2.435-4.127-5.591-5.119-9.47c-0.993-3.877-1.005-8.582-0.038-14.111c0.953-5.446,2.57-10.212,4.853-14.296
				c2.282-4.085,4.979-7.467,8.088-10.15c3.11-2.682,6.484-4.693,10.124-6.034c3.639-1.341,7.273-2.012,10.904-2.012
				c3.796,0,7.191,0.578,10.187,1.733c2.995,1.156,5.442,2.971,7.341,5.446c1.897,2.476,3.156,5.663,3.773,9.562
				c0.618,3.899,0.46,8.51-0.471,13.833c-0.403,2.064-0.771,3.816-1.106,5.26h-39.3c-0.277,2.765-0.073,5.127,0.617,7.087
				c0.688,1.96,1.762,3.548,3.22,4.766c1.458,1.217,3.252,2.104,5.383,2.661C563.719,633.482,566.083,633.761,568.683,633.761z
				 M569.756,594.028c-1.856,0-3.566,0.341-5.13,1.021c-1.563,0.681-2.974,1.609-4.231,2.786c-1.257,1.175-2.333,2.547-3.227,4.116
				c-0.893,1.568-1.598,3.239-2.114,5.013h23.58c0.31-1.773,0.364-3.444,0.165-5.013c-0.2-1.568-0.661-2.94-1.384-4.116
				c-0.722-1.176-1.716-2.104-2.979-2.786C573.172,594.368,571.613,594.028,569.756,594.028z"/>
			<path fill="#E6E6E6" d="M707.684,637.659h-0.246c-0.979,0.867-2.124,1.755-3.437,2.662c-1.314,0.908-2.784,1.763-4.411,2.568
				c-1.626,0.804-3.39,1.454-5.292,1.949c-1.903,0.496-3.905,0.743-6.01,0.743c-2.847,0-5.43-0.443-7.751-1.331
				c-2.32-0.887-4.222-2.166-5.703-3.837c-1.482-1.671-2.521-3.692-3.115-6.065c-0.597-2.373-0.638-5.022-0.125-7.953
				c0.563-3.219,1.656-6.106,3.279-8.665c1.624-2.558,3.644-4.724,6.058-6.498c2.414-1.773,5.168-3.125,8.26-4.054
				c3.092-0.929,6.411-1.393,9.96-1.393c2.6,0,4.964,0.166,7.093,0.496c2.128,0.331,3.979,0.722,5.55,1.176l0.422-2.414
				c0.246-1.402,0.245-2.754-0.001-4.054c-0.248-1.299-0.809-2.454-1.684-3.466c-0.876-1.01-2.107-1.815-3.694-2.414
				c-1.588-0.598-3.598-0.897-6.031-0.897c-2.971,0-5.999,0.331-9.085,0.991c-3.087,0.66-6.479,1.65-10.176,2.97l2.004-11.45
				c3.242-1.32,6.618-2.33,10.123-3.032c3.506-0.701,7.12-1.073,10.841-1.114c4.373,0,8.106,0.537,11.199,1.609
				c3.092,1.073,5.577,2.548,7.457,4.425c1.878,1.877,3.141,4.095,3.787,6.653c0.645,2.558,0.704,5.343,0.178,8.355l-3.953,22.59
				c-0.693,3.96-1.248,7.365-1.663,10.211c-0.416,2.847-0.778,5.385-1.085,7.613h-13.244L707.684,637.659z M709.865,618.473
				c-1.345-0.329-2.901-0.628-4.67-0.896c-1.77-0.268-3.581-0.403-5.438-0.403c-3.59,0-6.551,0.712-8.883,2.135
				c-2.334,1.424-3.757,3.601-4.27,6.53c-0.237,1.361-0.208,2.548,0.09,3.559c0.297,1.012,0.791,1.847,1.48,2.507
				c0.689,0.66,1.54,1.155,2.556,1.485c1.014,0.331,2.12,0.496,3.317,0.496c1.485,0,2.922-0.195,4.311-0.589
				c1.389-0.392,2.693-0.886,3.912-1.485c1.219-0.597,2.336-1.269,3.354-2.011c1.017-0.743,1.896-1.464,2.638-2.167L709.865,618.473
				z"/>
			<path fill="#E6E6E6" d="M766.271,645.581c-3.219,0-6.034-0.588-8.449-1.763c-2.414-1.177-4.337-2.631-5.766-4.363h-0.248
				c-0.104,0.826-0.266,1.991-0.488,3.497c-0.222,1.505-0.487,3.146-0.798,4.92l-4.364,24.941H731.49l15.529-88.75h12.873
				l-0.563,6.746h0.248c2.234-2.392,4.91-4.363,8.027-5.911c3.118-1.547,6.554-2.321,10.309-2.321c3.259,0,6.361,0.609,9.305,1.826
				c2.943,1.217,5.411,3.085,7.406,5.601c1.993,2.518,3.387,5.694,4.181,9.531c0.793,3.837,0.728,8.396-0.196,13.677
				c-0.975,5.57-2.603,10.388-4.881,14.452c-2.279,4.064-4.93,7.426-7.954,10.088c-3.024,2.661-6.205,4.631-9.544,5.91
				C772.891,644.942,769.571,645.581,766.271,645.581z M773.319,594.337c-2.566,0.042-5.11,0.672-7.633,1.888
				c-2.524,1.217-4.854,2.857-6.988,4.92l-4.678,26.736c0.495,0.702,1.115,1.402,1.859,2.104c0.743,0.702,1.601,1.342,2.573,1.919
				c0.971,0.578,2.074,1.052,3.31,1.423c1.234,0.372,2.553,0.557,3.956,0.557c2.269,0,4.376-0.485,6.319-1.455
				s3.659-2.341,5.146-4.116c1.486-1.773,2.754-3.888,3.802-6.343c1.048-2.455,1.836-5.189,2.363-8.201
				c0.563-3.219,0.738-6.044,0.524-8.479c-0.214-2.435-0.767-4.457-1.661-6.065c-0.896-1.609-2.096-2.826-3.602-3.651
				C777.104,594.75,775.34,594.337,773.319,594.337z"/>
			<path fill="#E6E6E6" d="M842.862,643.973c-1.737,0.495-3.776,0.887-6.116,1.175s-4.501,0.433-6.481,0.433
				c-5.034,0-9.007-0.815-11.919-2.444c-2.913-1.629-4.762-3.971-5.548-7.024c-0.566-2.187-0.521-5.157,0.137-8.913l5.436-31.068
				h-11.202l2.112-12.069h11.202l2.935-16.772h14.667l-2.935,16.772h17.33l-2.112,12.069h-17.33l-5.101,29.15
				c-0.404,2.311-0.354,4.022,0.154,5.137c0.905,1.898,3.194,2.846,6.867,2.846c1.69,0,3.396-0.134,5.114-0.402
				c1.718-0.268,3.355-0.608,4.913-1.021L842.862,643.973z"/>
			<g>
				<polygon fill="#E6E6E6" points="531.985,570.324 516.985,570.324 519.79,554.419 534.79,554.419 				"/>
				<polygon fill="#E6E6E6" points="518.988,644.034 503.988,644.034 514.563,584.063 529.563,584.063 				"/>
			</g>
			<g>
				<polygon fill="#E6E6E6" points="882.392,570.324 867.392,570.324 870.196,554.419 885.196,554.419 				"/>
				<polygon fill="#E6E6E6" points="869.395,644.034 854.395,644.034 864.969,584.063 879.969,584.063 				"/>
			</g>
			<path fill="#E6E6E6" d="M494.108,630.797c-2.07,0.781-4.241,1.439-6.514,1.974c-2.281,0.536-4.762,0.804-7.443,0.804
				c-3.013,0-5.534-0.505-7.564-1.516c-2.031-1.011-3.614-2.341-4.748-3.992c-1.135-1.65-1.87-3.641-2.204-5.973
				c-0.335-2.33-0.271-4.816,0.19-7.458c0.635-3.63,1.663-6.736,3.084-9.314c1.42-2.578,3.093-4.651,5.018-6.22
				c1.925-1.567,4.023-2.712,6.295-3.435c2.271-0.721,4.584-1.083,6.936-1.083s4.507,0.238,6.466,0.712
				c1.945,0.471,4.659,1.494,6.342,2.275l2.105-11.937c-1.88-0.824-4.923-1.872-7.305-2.345c-2.393-0.474-4.93-0.712-7.612-0.712
				c-3.59,0-7.338,0.609-11.243,1.826c-3.906,1.217-7.56,3.116-10.96,5.693c-3.401,2.579-6.391,5.932-8.97,10.057
				c-2.579,4.126-4.374,9.078-5.384,14.853c-0.902,5.159-0.886,9.666,0.048,13.523c0.934,3.858,2.583,7.046,4.949,9.563
				c2.364,2.517,5.316,4.394,8.854,5.631c3.537,1.238,7.474,1.856,11.806,1.856c2.971,0,5.845-0.278,8.625-0.835
				c2.762-0.554,5.135-1.22,7.121-1.997L494.108,630.797z"/>
			<path fill="#E6E6E6" d="M931.315,630.797c-2.07,0.781-4.241,1.439-6.514,1.974c-2.281,0.536-4.762,0.804-7.443,0.804
				c-3.013,0-5.534-0.505-7.564-1.516c-2.031-1.011-3.614-2.341-4.748-3.992c-1.135-1.65-1.87-3.641-2.204-5.973
				c-0.335-2.33-0.271-4.816,0.19-7.458c0.635-3.63,1.663-6.736,3.084-9.314c1.42-2.578,3.093-4.651,5.018-6.22
				c1.925-1.567,4.023-2.712,6.295-3.435c2.271-0.721,4.584-1.083,6.936-1.083s4.507,0.238,6.466,0.712
				c1.945,0.471,4.659,1.494,6.342,2.275l2.105-11.937c-1.88-0.824-4.923-1.872-7.305-2.345c-2.393-0.474-4.93-0.712-7.612-0.712
				c-3.59,0-7.338,0.609-11.243,1.826c-3.906,1.217-7.56,3.116-10.96,5.693c-3.401,2.579-6.391,5.932-8.97,10.057
				c-2.579,4.126-4.374,9.078-5.384,14.853c-0.902,5.159-0.886,9.666,0.048,13.523c0.934,3.858,2.583,7.046,4.949,9.563
				c2.364,2.517,5.316,4.394,8.854,5.631c3.537,1.238,7.474,1.856,11.806,1.856c2.971,0,5.845-0.278,8.625-0.835
				c2.762-0.554,5.135-1.22,7.121-1.997L931.315,630.797z"/>
			<path fill="#E6E6E6" d="M662.012,605.106c0.347-1.98,0.58-3.723,0.699-5.229c0.118-1.506,0.084-2.898-0.104-4.178
				c-0.339-2.31-1.011-4.301-2.019-5.972s-2.266-3.033-3.772-4.085c-1.509-1.052-3.239-1.825-5.194-2.321
				c-1.957-0.495-4.027-0.743-6.214-0.743c-2.312,0-4.536,0.279-6.676,0.835c-2.141,0.557-4.136,1.29-5.985,2.197
				c-1.852,0.908-3.541,1.96-5.07,3.157c-1.531,1.197-2.836,2.414-3.919,3.651h-0.248l0.067-5.553
				c0.019-1.616-1.168-2.802-2.806-2.802h-9.29l-10.494,59.971h14.612l7.279-41.28c2.468-2.558,5.13-4.507,7.985-5.849
				c2.854-1.34,5.705-2.012,8.553-2.012c2.145,0,3.897,0.413,5.26,1.238c1.361,0.826,2.248,2.188,2.658,4.085
				c0.179,0.866,0.229,1.877,0.15,3.032c-0.078,1.155-0.259,2.537-0.54,4.146l-6.411,36.639H655.2L662.012,605.106z"/>
		</g>
	</g>
	
		<radialGradient id="SVGID_1_" cx="303.0192" cy="3914.437" r="70.6072" gradientTransform="matrix(1 0 0 -1 0 4514.437)" gradientUnits="userSpaceOnUse">
		<stop  offset="0" style="stop-color:#65DAEB"/>
		<stop  offset="1" style="stop-color:#18B7CF"/>
	</radialGradient>
	<path fill="url(#SVGID_1_)" d="M325.744,605.916c0.461-0.035,0.924-0.058,1.394-0.058c0.47,0,0.933,0.024,1.394,0.058
		c9.388,0.713,16.784,8.55,16.784,18.12c0,0.028-0.004,0.055-0.004,0.082c0,0.028,0.004,0.056,0.004,0.084
		c0,10.04-8.139,18.178-18.178,18.178c-0.749,0-1.483-0.061-2.209-0.149c-15.158,1.101-27.215,13.381-27.91,28.648
		c0.035,0.461,0.058,0.924,0.058,1.394s-0.024,0.933-0.058,1.394c-0.713,9.388-8.55,16.784-18.12,16.784
		c-10.04,0-18.178-8.139-18.178-18.178c0-9.356,7.069-17.058,16.157-18.064c0.664-0.073,1.338-0.114,2.021-0.114
		c0.684,0,1.357,0.041,2.021,0.114c15.25-1.01,27.396-13.356,28.094-28.689c-0.032-0.436-0.055-0.875-0.055-1.319
		c0-0.028,0.003-0.056,0.004-0.084c0-0.028-0.004-0.055-0.004-0.082c0-0.433,0.023-0.861,0.053-1.287
		c-0.737-15.515-13.196-27.959-28.719-28.665c-0.461,0.035-0.924,0.058-1.394,0.058c-0.47,0-0.933-0.024-1.394-0.058
		c-9.387-0.713-16.784-8.55-16.784-18.12c0-0.029,0.004-0.056,0.004-0.085c0-0.027-0.004-0.054-0.004-0.081
		c0-10.04,8.139-18.178,18.178-18.178c0.749,0,1.483,0.061,2.209,0.149c15.158-1.101,27.215-13.381,27.91-28.648
		c-0.035-0.461-0.058-0.924-0.058-1.394s0.024-0.933,0.058-1.394c0.713-9.388,8.55-16.784,18.12-16.784
		c10.04,0,18.178,8.139,18.178,18.178s-8.139,18.178-18.178,18.178c-16.149,0-29.331,12.697-30.112,28.653
		c0.029,0.411,0.052,0.823,0.052,1.24c0,0.028-0.003,0.055-0.003,0.082c0,0.028,0.003,0.056,0.003,0.084
		c0,0.429-0.024,0.851-0.054,1.272C297.754,592.758,310.217,605.209,325.744,605.916z"/>
</g>
</svg>
