<?xml version="1.0" encoding="utf-8"?>
<!-- Generator: Adobe Illustrator 17.1.0, SVG Export Plug-In . SVG Version: 6.00 Build 0)  -->
<!DOCTYPE svg PUBLIC "-//W3C//DTD SVG 1.1//EN" "http://www.w3.org/Graphics/SVG/1.1/DTD/svg11.dtd">
<svg version="1.1" id="Layer_1" xmlns="http://www.w3.org/2000/svg" xmlns:xlink="http://www.w3.org/1999/xlink" x="0px" y="0px"
	 viewBox="0 0 1440 1000" enable-background="new 0 0 1440 1000" xml:space="preserve">
<path fill="#99CC33" d="M998.15,263.563c-27.569,4.712-59.234,7.399-92.929,7.399c-87.773,0-161.808-18.197-185.221-43.096
	c-23.413,24.899-97.448,43.096-185.221,43.096c-33.695,0-65.36-2.687-92.928-7.399c-2.923,21.59-4.505,43.608-4.505,66.001
	c0,196.105,115.777,365.078,282.655,442.569c166.878-77.492,282.654-246.464,282.654-442.569
	C1002.655,307.171,1001.073,285.154,998.15,263.563z M726.923,762.189V237.811c3.856,0,6.98,117.386,6.98,262.189
	C733.903,644.803,730.779,762.189,726.923,762.189z"/>
</svg>
