<?xml version="1.0" encoding="utf-8"?>
<!-- Generator: Adobe Illustrator 17.1.0, SVG Export Plug-In . SVG Version: 6.00 Build 0)  -->
<!DOCTYPE svg PUBLIC "-//W3C//DTD SVG 1.1//EN" "http://www.w3.org/Graphics/SVG/1.1/DTD/svg11.dtd">
<svg version="1.1" id="Layer_1" xmlns="http://www.w3.org/2000/svg" xmlns:xlink="http://www.w3.org/1999/xlink" x="0px" y="0px"
	 viewBox="0 0 1440 1000" enable-background="new 0 0 1440 1000" xml:space="preserve">
<g>
	<g>
		<path fill="#99CC33" d="M844.367,574.974C809.675,601.12,766.689,616.823,720,616.823c-46.689,0-89.674-15.702-124.367-41.848
			c-69.588,35.518-121.812,99.787-141.281,177.234C537.524,781.366,626.87,797.4,720,797.4s182.475-16.034,265.648-45.193
			C966.179,674.762,913.955,610.492,844.367,574.974z"/>
		<path fill="#99CC33" d="M766.04,522.657c-3.007,6.144-9.183,10.469-16.484,10.469h-36.989c-10.215,0-18.495-8.28-18.495-18.494
			c0-10.214,8.28-18.495,18.495-18.495h36.989c8.358,0,15.147,5.65,17.438,13.261h94.733c20.02-28.264,32.056-62.569,32.056-99.858
			c0-95.978-77.806-173.784-173.784-173.784c-95.977,0-173.783,77.806-173.783,173.784c0,64,34.697,119.771,86.209,149.929
			c25.737,15.068,55.598,23.854,87.575,23.854c31.978,0,61.838-8.786,87.576-23.854c16.611-9.724,31.216-22.343,43.731-36.811
			H766.04z"/>
	</g>
	<path fill="#99CC33" d="M912.933,330.914C881.273,255.56,806.859,202.6,719.999,202.6c-86.858,0-161.271,52.96-192.932,128.315
		c-23.92,1.268-42.976,20.888-42.976,45.124v67c0,25.054,20.311,45.364,45.365,45.364c0.133,0,0.256-0.037,0.387-0.039
		c2.576-0.031,5.084-0.325,7.544-0.761c-10.49-24.376-16.297-50.851-16.297-78.064c0-27.714,5.73-54.102,16.015-78.094
		c-0.291-0.05-0.598-0.044-0.891-0.09c31.098-70.701,101.723-120.242,183.784-120.242s152.688,49.542,183.786,120.242
		c-0.292,0.046-0.6,0.04-0.891,0.09c10.285,23.992,16.015,50.381,16.015,78.094c0,27.212-5.807,53.688-16.297,78.064
		c2.46,0.436,4.969,0.73,7.545,0.761c0.132,0.002,0.255,0.039,0.387,0.039c25.054,0,45.365-20.31,45.365-45.364v-67
		C955.909,351.803,936.853,332.182,912.933,330.914z"/>
</g>
</svg>
