<?xml version="1.0" encoding="utf-8"?>
<!-- Generator: Adobe Illustrator 17.1.0, SVG Export Plug-In . SVG Version: 6.00 Build 0)  -->
<!DOCTYPE svg PUBLIC "-//W3C//DTD SVG 1.1//EN" "http://www.w3.org/Graphics/SVG/1.1/DTD/svg11.dtd">
<svg version="1.1" id="Layer_1" xmlns="http://www.w3.org/2000/svg" xmlns:xlink="http://www.w3.org/1999/xlink" x="0px" y="0px"
	 viewBox="0 0 1440 1000" enable-background="new 0 0 1440 1000" xml:space="preserve">
<g>
	<path fill="#282828" d="M720,801.109c-94.674,0-168.831-132.262-168.831-301.11c0-168.845,74.157-301.108,168.831-301.108
		s168.831,132.262,168.831,301.108C888.831,668.846,814.674,801.109,720,801.109z M720,243.256
		c-67.466,0-124.466,117.573-124.466,256.743S652.534,756.744,720,756.744s124.466-117.575,124.466-256.746
		S787.466,243.256,720,243.256z"/>
</g>
<g>
	<path fill="#282828" d="M554.862,704.068c-31.757,0-57.39-6.913-76.188-20.545c-20.719-15.024-31.67-37.074-31.67-63.766
		c0-61.427,59.884-143.009,156.281-212.913c94.337-68.412,202.34-110.911,281.855-110.911c31.757,0,57.39,6.913,76.188,20.545
		c20.719,15.024,31.67,37.074,31.67,63.766c0,61.427-59.884,143.009-156.281,212.913
		C742.38,661.569,634.376,704.068,554.862,704.068z M885.138,340.296c-69.57,0-169.981,40.217-255.812,102.462
		c-95.299,69.107-137.96,138.694-137.96,176.997c0,12.398,4.241,21.246,13.349,27.85c10.913,7.914,28.252,12.097,50.146,12.097
		c69.57,0,169.981-40.217,255.812-102.462c95.299-69.107,137.96-138.694,137.96-176.997c0-12.398-4.241-21.246-13.349-27.85
		C924.371,344.48,907.032,340.296,885.138,340.296z"/>
</g>
<g>
	<path fill="#282828" d="M885.138,704.068c-79.515,0-187.518-42.499-281.855-110.911
		c-96.397-69.904-156.281-151.486-156.281-212.913c0-26.693,10.951-48.742,31.67-63.766c18.798-13.633,44.432-20.545,76.188-20.545
		c79.515,0,187.518,42.499,281.855,110.911c96.397,69.904,156.281,151.486,156.281,212.913c0,26.693-10.951,48.742-31.67,63.766
		C942.529,697.155,916.895,704.068,885.138,704.068z M554.862,340.296c-21.893,0-39.233,4.183-50.146,12.097
		c-9.108,6.605-13.349,15.452-13.349,27.85c0,38.304,42.66,107.89,137.96,176.997c85.831,62.245,186.242,102.462,255.812,102.462
		c21.893,0,39.233-4.183,50.146-12.097c9.108-6.605,13.349-15.452,13.349-27.85c0-38.304-42.66-107.89-137.96-176.997
		C724.843,380.513,624.431,340.296,554.862,340.296z"/>
</g>
<g>
	<g>
		<defs>
			<circle id="SVGID_1_" cx="720" cy="500" r="40.031"/>
		</defs>
		<use xlink:href="#SVGID_1_"  overflow="visible" fill="#282828"/>
		<clipPath id="SVGID_2_">
			<use xlink:href="#SVGID_1_"  overflow="visible"/>
		</clipPath>
		<rect x="679.969" y="459.969" clip-path="url(#SVGID_2_)" fill="#282828" width="80.062" height="80.062"/>
		<circle clip-path="url(#SVGID_2_)" fill="#282828" cx="720" cy="500" r="40.031"/>
		<circle clip-path="url(#SVGID_2_)" fill="#282828" cx="720" cy="500" r="38.949"/>
		<circle clip-path="url(#SVGID_2_)" fill="#282828" cx="720" cy="500" r="37.867"/>
		<circle clip-path="url(#SVGID_2_)" fill="#282828" cx="720" cy="500" r="36.785"/>
		<circle clip-path="url(#SVGID_2_)" fill="#282828" cx="720" cy="500" r="35.703"/>
		<circle clip-path="url(#SVGID_2_)" fill="#282828" cx="720" cy="500" r="34.621"/>
		<circle clip-path="url(#SVGID_2_)" fill="#282828" cx="720" cy="500" r="33.539"/>
		<circle clip-path="url(#SVGID_2_)" fill="#282828" cx="720" cy="500" r="32.458"/>
		<circle clip-path="url(#SVGID_2_)" fill="#282828" cx="720" cy="500" r="31.376"/>
		<circle clip-path="url(#SVGID_2_)" fill="#282828" cx="720" cy="500" r="30.294"/>
		<circle clip-path="url(#SVGID_2_)" fill="#282828" cx="720" cy="500" r="29.212"/>
		<circle clip-path="url(#SVGID_2_)" fill="#282828" cx="720" cy="500" r="28.13"/>
		<circle clip-path="url(#SVGID_2_)" fill="#282828" cx="720" cy="500" r="27.048"/>
		<circle clip-path="url(#SVGID_2_)" fill="#282828" cx="720" cy="500" r="25.966"/>
		<circle clip-path="url(#SVGID_2_)" fill="#282828" cx="720" cy="500" r="24.884"/>
		<circle clip-path="url(#SVGID_2_)" fill="#282828" cx="720" cy="500" r="23.802"/>
		<circle clip-path="url(#SVGID_2_)" fill="#282828" cx="720" cy="500" r="22.72"/>
		<circle clip-path="url(#SVGID_2_)" fill="#282828" cx="720" cy="500" r="21.638"/>
		<circle clip-path="url(#SVGID_2_)" fill="#282828" cx="720" cy="500" r="20.556"/>
		<circle clip-path="url(#SVGID_2_)" fill="#282828" cx="720" cy="500" r="19.475"/>
		<circle clip-path="url(#SVGID_2_)" fill="#282828" cx="720" cy="500" r="18.393"/>
		<circle clip-path="url(#SVGID_2_)" fill="#282828" cx="720" cy="500" r="17.311"/>
		<circle clip-path="url(#SVGID_2_)" fill="#282828" cx="720" cy="500" r="16.229"/>
		<circle clip-path="url(#SVGID_2_)" fill="#282828" cx="720" cy="500" r="15.147"/>
		<circle clip-path="url(#SVGID_2_)" fill="#282828" cx="720" cy="500" r="14.065"/>
		<circle clip-path="url(#SVGID_2_)" fill="#282828" cx="720" cy="500" r="12.983"/>
		<circle clip-path="url(#SVGID_2_)" fill="#282828" cx="720" cy="500" r="11.901"/>
		<circle clip-path="url(#SVGID_2_)" fill="#282828" cx="720" cy="500" r="10.819"/>
		<circle clip-path="url(#SVGID_2_)" fill="#282828" cx="720" cy="500" r="9.737"/>
		<circle clip-path="url(#SVGID_2_)" fill="#282828" cx="720" cy="500" r="8.655"/>
		<circle clip-path="url(#SVGID_2_)" fill="#282828" cx="720" cy="500" r="7.573"/>
		<circle clip-path="url(#SVGID_2_)" fill="#282828" cx="720" cy="500" r="6.492"/>
		<circle clip-path="url(#SVGID_2_)" fill="#282828" cx="720" cy="500" r="5.41"/>
		<circle clip-path="url(#SVGID_2_)" fill="#282828" cx="720" cy="500" r="4.328"/>
		<circle clip-path="url(#SVGID_2_)" fill="#282828" cx="720" cy="500" r="3.246"/>
		<circle clip-path="url(#SVGID_2_)" fill="#282828" cx="720" cy="500" r="2.164"/>
		<circle clip-path="url(#SVGID_2_)" fill="#282828" cx="720" cy="500" r="1.082"/>
	</g>
</g>
</svg>
