<?xml version="1.0" encoding="utf-8"?>
<!-- Generator: Adobe Illustrator 17.1.0, SVG Export Plug-In . SVG Version: 6.00 Build 0)  -->
<!DOCTYPE svg PUBLIC "-//W3C//DTD SVG 1.1//EN" "http://www.w3.org/Graphics/SVG/1.1/DTD/svg11.dtd">
<svg version="1.1" id="Layer_1" xmlns="http://www.w3.org/2000/svg" xmlns:xlink="http://www.w3.org/1999/xlink" x="0px" y="0px"
	 viewBox="0 0 1440 1000" enable-background="new 0 0 1440 1000" xml:space="preserve">
<g>
	<path fill="#99CC33" d="M648.599,651.519c1.288-0.098,2.586-0.164,3.899-0.164s2.611,0.066,3.899,0.164
		c26.26,1.994,46.951,23.916,46.951,50.687c0,0.078-0.011,0.152-0.011,0.23c0,0.079,0.011,0.156,0.011,0.235
		c0,28.084-22.767,50.85-50.85,50.85c-2.096,0-4.149-0.17-6.178-0.416c-42.403,3.081-76.128,37.43-78.072,80.138
		c0.098,1.288,0.164,2.586,0.164,3.899c0,1.313-0.066,2.611-0.164,3.899c-1.994,26.26-23.916,46.951-50.687,46.951
		c-28.084,0-50.85-22.766-50.85-50.85c0-26.172,19.775-47.716,45.196-50.53c1.857-0.206,3.742-0.32,5.654-0.32
		s3.797,0.115,5.654,0.32c42.658-2.824,76.634-37.362,78.587-80.252c-0.089-1.221-0.155-2.447-0.155-3.69
		c0-0.079,0.009-0.155,0.01-0.235c0-0.078-0.01-0.153-0.01-0.231c0-1.212,0.063-2.409,0.148-3.599
		c-2.061-43.4-36.913-78.209-80.335-80.186c-1.289,0.098-2.586,0.164-3.9,0.164c-1.313,0-2.611-0.066-3.9-0.164
		c-26.26-1.994-46.951-23.917-46.951-50.687c0-0.08,0.011-0.158,0.011-0.238c0-0.077-0.011-0.15-0.011-0.227
		c0-28.084,22.766-50.85,50.85-50.85c2.096,0,4.149,0.17,6.178,0.416c42.402-3.081,76.128-37.43,78.072-80.139
		c-0.098-1.288-0.164-2.586-0.164-3.899c0-1.313,0.066-2.611,0.164-3.899c1.993-26.26,23.916-46.951,50.687-46.951
		c28.084,0,50.85,22.766,50.85,50.85s-22.767,50.851-50.85,50.851c-45.175,0-82.047,35.519-84.232,80.151
		c0.08,1.148,0.146,2.301,0.146,3.47c0,0.078-0.009,0.153-0.01,0.231c0.001,0.079,0.01,0.155,0.01,0.235
		c0,1.199-0.067,2.381-0.152,3.558C570.301,614.712,605.163,649.542,648.599,651.519z"/>
	<path fill="#99CC33" d="M918.539,381.579c1.288-0.098,2.586-0.164,3.899-0.164s2.611,0.066,3.899,0.164
		c26.26,1.994,46.951,23.916,46.951,50.687c0,0.078-0.011,0.152-0.011,0.23c0,0.079,0.011,0.156,0.011,0.235
		c0,28.084-22.767,50.85-50.85,50.85c-2.096,0-4.149-0.17-6.178-0.416c-42.403,3.081-76.128,37.43-78.072,80.139
		c0.098,1.288,0.164,2.586,0.164,3.899s-0.066,2.611-0.164,3.899c-1.994,26.26-23.916,46.951-50.687,46.951
		c-28.084,0-50.85-22.766-50.85-50.85c0-26.172,19.775-47.716,45.196-50.53c1.857-0.206,3.742-0.32,5.654-0.32
		s3.797,0.115,5.654,0.32c42.658-2.825,76.634-37.362,78.587-80.252c-0.089-1.221-0.155-2.447-0.155-3.69
		c0-0.079,0.009-0.155,0.01-0.235c0-0.078-0.01-0.153-0.01-0.231c0-1.212,0.063-2.409,0.148-3.599
		c-2.061-43.4-36.913-78.209-80.335-80.186c-1.289,0.098-2.586,0.164-3.9,0.164c-1.313,0-2.611-0.066-3.9-0.164
		c-26.26-1.994-46.951-23.917-46.951-50.687c0-0.08,0.011-0.158,0.011-0.238c0-0.077-0.011-0.15-0.011-0.227
		c0-28.084,22.766-50.85,50.85-50.85c2.096,0,4.149,0.17,6.178,0.416c42.402-3.081,76.128-37.43,78.072-80.139
		c-0.098-1.288-0.164-2.586-0.164-3.899c0-1.313,0.066-2.611,0.164-3.899c1.993-26.26,23.916-46.951,50.687-46.951
		c28.084,0,50.85,22.766,50.85,50.85s-22.767,50.851-50.85,50.851c-45.175,0-82.047,35.519-84.232,80.151
		c0.08,1.148,0.146,2.301,0.146,3.47c0,0.078-0.009,0.153-0.01,0.231c0.001,0.079,0.01,0.155,0.01,0.235
		c0,1.199-0.067,2.381-0.152,3.559C840.241,344.772,875.103,379.602,918.539,381.579z"/>
	<path fill="#99CC33" d="M568.481,428.599c0.098,1.288,0.164,2.586,0.164,3.899c0,1.313-0.066,2.611-0.164,3.899
		c-1.994,26.26-23.916,46.951-50.687,46.951c-0.078,0-0.152-0.011-0.23-0.011c-0.079,0-0.156,0.011-0.235,0.011
		c-28.084,0-50.85-22.767-50.85-50.85c0-2.096,0.17-4.149,0.416-6.178c-3.081-42.403-37.43-76.128-80.139-78.072
		c-1.288,0.098-2.586,0.164-3.899,0.164c-1.313,0-2.611-0.066-3.899-0.164c-26.26-1.994-46.951-23.916-46.951-50.687
		c0-28.084,22.766-50.85,50.85-50.85c26.172,0,47.716,19.775,50.53,45.196c0.206,1.857,0.32,3.742,0.32,5.654
		s-0.115,3.797-0.32,5.654c2.824,42.658,37.362,76.634,80.252,78.587c1.221-0.089,2.447-0.155,3.69-0.155
		c0.079,0,0.155,0.009,0.235,0.01c0.078,0,0.153-0.01,0.231-0.01c1.212,0,2.409,0.063,3.599,0.148
		c43.4-2.061,78.209-36.913,80.186-80.335c-0.098-1.288-0.164-2.586-0.164-3.9c0-1.313,0.066-2.611,0.164-3.9
		c1.994-26.26,23.917-46.951,50.687-46.951c0.08,0,0.158,0.011,0.238,0.011c0.077,0,0.15-0.011,0.227-0.011
		c28.084,0,50.85,22.766,50.85,50.85c0,2.096-0.17,4.149-0.416,6.178c3.081,42.402,37.43,76.128,80.138,78.072
		c1.288-0.098,2.586-0.164,3.899-0.164s2.611,0.066,3.899,0.164c26.26,1.993,46.951,23.916,46.951,50.687
		c0,28.084-22.766,50.85-50.85,50.85s-50.851-22.767-50.851-50.85c0-45.175-35.519-82.047-80.151-84.232
		c-1.148,0.08-2.301,0.146-3.47,0.146c-0.078,0-0.153-0.009-0.231-0.01c-0.079,0.001-0.155,0.01-0.235,0.01
		c-1.199,0-2.381-0.067-3.558-0.152C605.288,350.301,570.458,385.163,568.481,428.599z"/>
	<path fill="#99CC33" d="M838.421,698.539c0.098,1.288,0.164,2.586,0.164,3.899s-0.066,2.611-0.164,3.899
		c-1.994,26.26-23.916,46.951-50.687,46.951c-0.078,0-0.152-0.011-0.23-0.011c-0.079,0-0.156,0.011-0.235,0.011
		c-28.084,0-50.85-22.767-50.85-50.85c0-2.096,0.17-4.149,0.416-6.178c-3.081-42.403-37.43-76.128-80.138-78.072
		c-1.288,0.098-2.586,0.164-3.899,0.164s-2.611-0.066-3.899-0.164c-26.26-1.994-46.951-23.916-46.951-50.687
		c0-28.084,22.766-50.85,50.85-50.85c26.172,0,47.716,19.775,50.53,45.196c0.206,1.857,0.32,3.742,0.32,5.654
		s-0.115,3.797-0.32,5.654c2.825,42.658,37.362,76.634,80.252,78.587c1.221-0.089,2.447-0.155,3.69-0.155
		c0.079,0,0.155,0.009,0.235,0.01c0.078,0,0.153-0.01,0.231-0.01c1.212,0,2.409,0.063,3.599,0.148
		c43.4-2.061,78.209-36.913,80.186-80.335c-0.098-1.289-0.164-2.586-0.164-3.9c0-1.313,0.066-2.611,0.164-3.9
		c1.994-26.26,23.917-46.951,50.687-46.951c0.08,0,0.158,0.011,0.238,0.011c0.077,0,0.15-0.011,0.227-0.011
		c28.084,0,50.85,22.766,50.85,50.85c0,2.096-0.17,4.149-0.416,6.178c3.081,42.402,37.43,76.128,80.139,78.072
		c1.288-0.098,2.586-0.164,3.899-0.164s2.611,0.066,3.899,0.164c26.26,1.993,46.951,23.916,46.951,50.687
		c0,28.084-22.766,50.85-50.85,50.85c-28.084,0-50.851-22.767-50.851-50.85c0-45.175-35.519-82.047-80.151-84.232
		c-1.148,0.08-2.301,0.146-3.47,0.146c-0.078,0-0.153-0.009-0.231-0.01c-0.079,0.001-0.155,0.01-0.235,0.01
		c-1.199,0-2.381-0.067-3.558-0.152C875.228,620.241,840.398,655.103,838.421,698.539z"/>
</g>
</svg>
