<?xml version="1.0" encoding="utf-8"?>
<!-- Generator: Adobe Illustrator 17.1.0, SVG Export Plug-In . SVG Version: 6.00 Build 0)  -->
<!DOCTYPE svg PUBLIC "-//W3C//DTD SVG 1.1//EN" "http://www.w3.org/Graphics/SVG/1.1/DTD/svg11.dtd">
<svg version="1.1" id="Layer_1" xmlns="http://www.w3.org/2000/svg" xmlns:xlink="http://www.w3.org/1999/xlink" x="0px" y="0px"
	 viewBox="0 0 1440 1000" enable-background="new 0 0 1440 1000" xml:space="preserve">
<g>
	<path fill="#99CC33" d="M836.312,520.255l-29.079-14.757V345.369c0-12.783-10.362-23.145-23.145-23.145H501.805
		c-12.783,0-23.145,10.362-23.145,23.145v420.207c0,12.783,10.362,23.145,23.145,23.145H743.76h49.392h34.098
		c12.783,0,23.145-10.362,23.145-23.145V534.337C850.394,526.56,844.09,520.255,836.312,520.255z"/>
	<path fill="#99CC33" d="M891.785,464.782l-29.079-14.757V289.896c0-12.783-10.362-23.145-23.145-23.145H557.278
		c-12.782,0-23.145,10.362-23.145,23.145v13.54h268.743c12.783,0,23.145,10.362,23.145,23.145v160.129l29.079,14.757
		c7.777,0,14.082,6.305,14.082,14.082v217.699h13.541c12.782,0,23.145-10.362,23.145-23.145V478.864
		C905.867,471.087,899.562,464.782,891.785,464.782z"/>
	<path fill="#99CC33" d="M947.258,409.31l-29.079-14.757V234.424c0-12.783-10.362-23.145-23.145-23.145H612.751
		c-12.782,0-23.145,10.362-23.145,23.145v13.54h268.743c12.783,0,23.145,10.362,23.145,23.145v160.129l29.079,14.757
		c7.777,0,14.082,6.305,14.082,14.082v217.699h13.541c12.782,0,23.145-10.362,23.145-23.145V423.392
		C961.34,415.614,955.035,409.31,947.258,409.31z"/>
</g>
</svg>
