<?xml version="1.0" encoding="utf-8"?>
<!-- Generator: Adobe Illustrator 17.1.0, SVG Export Plug-In . SVG Version: 6.00 Build 0)  -->
<!DOCTYPE svg PUBLIC "-//W3C//DTD SVG 1.1//EN" "http://www.w3.org/Graphics/SVG/1.1/DTD/svg11.dtd">
<svg version="1.1" id="Layer_1" xmlns="http://www.w3.org/2000/svg" xmlns:xlink="http://www.w3.org/1999/xlink" x="0px" y="0px"
	 viewBox="0 0 1440 1000" enable-background="new 0 0 1440 1000" xml:space="preserve">
<g>
	<path fill="#99CC33" d="M1029.874,248.985H410.126c-11.325,0-20.506,9.181-20.506,20.506v356.378
		c0,11.325,9.181,20.506,20.506,20.506h269.506v70.646h-95.608v33.994h271.953v-33.994h-95.608v-70.646h269.505
		c11.325,0,20.506-9.181,20.506-20.506V269.491C1050.38,258.166,1041.199,248.985,1029.874,248.985z M1001.702,602.943H438.298
		V291.914h563.404V602.943z"/>
	<path fill="#99CC33" d="M886.777,375.19c-3.206-23.112-23.281-40.836-46.612-41.169c-26.88-0.383-48.2,21.048-48.64,47.008
		c-0.021,1.216-0.011,2.439,0.062,3.673c0.073,1.234,0.206,2.45,0.369,3.655c0.534,40.062-28.993,74.071-68.402,79.548
		c-0.146,0.02-0.29,0.046-0.435,0.068c-0.104-0.007-0.205-0.028-0.31-0.034c-0.797-0.047-1.584-0.052-2.371-0.051
		c-0.146-0.003-0.291-0.008-0.438-0.009c-0.146,0.001-0.292,0.007-0.438,0.009c-0.787,0-1.574,0.004-2.37,0.051
		c-0.105,0.006-0.205,0.027-0.31,0.034c-0.145-0.022-0.289-0.048-0.435-0.068c-39.409-5.477-68.936-39.486-68.402-79.548
		c0.163-1.205,0.297-2.421,0.37-3.655c0.073-1.234,0.082-2.457,0.062-3.673c-0.44-25.96-21.759-47.39-48.64-47.008
		c-23.331,0.332-43.407,18.055-46.613,41.168c-3.635,26.2,14.317,49.61,39.294,53.873c1.734,0.296,3.499,0.508,5.296,0.614
		c1.797,0.106,3.575,0.102,5.331,0.012c39.247,4.929,68.895,38.186,69.392,77.696c0.008,0.69,0.031,1.377,0.021,2.071
		c-0.151,1.142-0.281,2.291-0.35,3.459c-0.005,0.074,0.001,0.147-0.003,0.221c-0.005,0.073-0.018,0.143-0.022,0.216
		c-0.067,1.14-0.074,2.268-0.06,3.391c-0.075,0.708-0.182,1.405-0.275,2.107c1.313,22.448,18.094,41.138,40.354,44.747
		c0.434-0.001,0.865-0.019,1.3-0.014c0.224,0.03,0.454,0.041,0.678,0.069c0.354,0.043,0.711,0.073,1.068,0.108
		c0.636,0.067,1.265,0.155,1.909,0.193c0.482,0.028,0.955,0.013,1.434,0.024c0.195,0.006,0.386,0.034,0.582,0.038
		c0.275,0.005,0.554-0.015,0.829-0.014c0.275-0.001,0.555,0.019,0.829,0.014c0.196-0.003,0.386-0.032,0.583-0.038
		c0.478-0.011,0.951,0.004,1.433-0.024c0.645-0.038,1.274-0.126,1.91-0.193c0.356-0.035,0.713-0.065,1.067-0.108
		c0.225-0.028,0.455-0.038,0.679-0.069c0.436-0.006,0.866,0.012,1.3,0.014c22.26-3.609,39.041-22.3,40.354-44.747
		c-0.094-0.702-0.2-1.399-0.275-2.107c0.014-1.123,0.007-2.251-0.06-3.391c-0.004-0.073-0.017-0.143-0.022-0.216
		c-0.004-0.074,0.001-0.147-0.004-0.221c-0.068-1.168-0.198-2.317-0.35-3.459c-0.009-0.694,0.013-1.381,0.021-2.071
		c0.497-39.509,30.145-72.767,69.392-77.696c1.757,0.091,3.534,0.094,5.332-0.012c1.797-0.106,3.562-0.318,5.296-0.614
		C872.459,424.799,890.412,401.39,886.777,375.19z M630.738,378.523c2.177,20.89-16.494,37.486-36.985,32.876
		c-12.409-2.792-21.92-13.491-23.238-26.142c-2.178-20.891,16.495-37.489,36.986-32.877
		C619.909,355.172,629.42,365.872,630.738,378.523z M735.333,542.08c-0.791,0.466-1.604,0.897-2.438,1.292
		c-0.117,0.055-0.239,0.102-0.357,0.155c-0.75,0.343-1.513,0.662-2.294,0.943c-0.244,0.087-0.497,0.157-0.744,0.239
		c-0.667,0.221-1.338,0.433-2.024,0.609c-0.393,0.099-0.796,0.171-1.195,0.255c-0.562,0.119-1.122,0.243-1.694,0.331
		c-0.515,0.078-1.042,0.12-1.566,0.172c-0.487,0.049-0.97,0.111-1.463,0.136c-0.523,0.027-1.039,0.013-1.557,0.013
		s-1.034,0.014-1.557-0.013c-0.493-0.025-0.976-0.087-1.463-0.136c-0.524-0.052-1.051-0.094-1.566-0.172
		c-0.572-0.088-1.133-0.211-1.694-0.331c-0.399-0.084-0.803-0.156-1.195-0.255c-0.686-0.175-1.357-0.387-2.024-0.609
		c-0.247-0.081-0.5-0.151-0.744-0.239c-0.781-0.282-1.544-0.6-2.294-0.943c-0.118-0.054-0.24-0.1-0.357-0.155
		c-0.834-0.394-1.647-0.826-2.439-1.292c-0.03-0.018-0.062-0.033-0.093-0.052c-8.351-4.962-14.172-13.844-14.786-24.271
		c-0.613-10.409,4.11-19.897,11.797-25.806c0.025-0.019,0.048-0.04,0.073-0.059c0.703-0.537,1.436-1.036,2.186-1.511
		c0.088-0.056,0.172-0.117,0.26-0.172c0.707-0.438,1.44-0.836,2.186-1.216c0.139-0.071,0.272-0.15,0.412-0.218
		c0.721-0.353,1.465-0.666,2.217-0.963c0.173-0.068,0.341-0.147,0.516-0.212c0.746-0.278,1.514-0.514,2.288-0.734
		c0.19-0.054,0.375-0.12,0.567-0.17c0.76-0.2,1.538-0.354,2.321-0.496c0.222-0.04,0.439-0.094,0.663-0.129
		c0.716-0.113,1.447-0.177,2.18-0.239c0.314-0.026,0.624-0.071,0.941-0.087c0.54-0.029,1.07-0.013,1.604-0.013
		c0.534,0.001,1.065-0.016,1.605,0.013c0.317,0.016,0.626,0.061,0.941,0.087c0.732,0.062,1.465,0.126,2.18,0.239
		c0.223,0.035,0.441,0.09,0.663,0.129c0.783,0.141,1.562,0.296,2.322,0.496c0.192,0.05,0.376,0.116,0.567,0.17
		c0.774,0.22,1.541,0.456,2.288,0.734c0.175,0.065,0.343,0.144,0.516,0.212c0.753,0.297,1.496,0.61,2.216,0.963
		c0.14,0.068,0.273,0.148,0.412,0.218c0.745,0.38,1.479,0.778,2.186,1.216c0.088,0.055,0.172,0.116,0.26,0.172
		c0.75,0.475,1.484,0.974,2.186,1.511c0.024,0.019,0.047,0.039,0.072,0.058c7.688,5.909,12.411,15.398,11.798,25.807
		c-0.614,10.427-6.435,19.309-14.785,24.271C735.395,542.047,735.363,542.062,735.333,542.08z M846.248,411.398
		c-20.491,4.612-39.163-11.985-36.986-32.875c1.318-12.65,10.829-23.35,23.237-26.143c20.491-4.612,39.163,11.985,36.986,32.875
		C868.167,397.906,858.657,408.606,846.248,411.398z"/>
</g>
</svg>
