<?xml version="1.0" encoding="utf-8"?>
<!-- Generator: Adobe Illustrator 17.1.0, SVG Export Plug-In . SVG Version: 6.00 Build 0)  -->
<!DOCTYPE svg PUBLIC "-//W3C//DTD SVG 1.1//EN" "http://www.w3.org/Graphics/SVG/1.1/DTD/svg11.dtd">
<svg version="1.1" id="Layer_1" xmlns="http://www.w3.org/2000/svg" xmlns:xlink="http://www.w3.org/1999/xlink" x="0px" y="0px"
	 viewBox="0 0 1440 1000" enable-background="new 0 0 1440 1000" xml:space="preserve">
<g>
	<path fill="#99CC33" d="M564.987,335.27c0.517,0,1.021,0.052,1.531,0.077c0.511-0.025,1.014-0.077,1.531-0.077H564.987z"/>
	<path fill="#99CC33" d="M641.914,271.516c0.517,0,1.021,0.052,1.531,0.077c0.511-0.025,1.014-0.077,1.531-0.077H641.914z"/>
	<path fill="#99CC33" d="M718.515,234.013c0.517,0,1.021,0.052,1.531,0.077c0.511-0.025,1.014-0.077,1.531-0.077H718.515z"/>
	<path fill="#99CC33" d="M795.116,271.516c0.517,0,1.021,0.052,1.531,0.077c0.511-0.025,1.014-0.077,1.531-0.077H795.116z"/>
	<path fill="#99CC33" d="M871.951,489.843c0.517,0,1.02,0.052,1.531,0.077c0.511-0.025,1.014-0.077,1.531-0.077H871.951z"/>
	<path fill="#99CC33" d="M902.639,520.531c0-16.431-12.925-29.808-29.157-30.611c-16.232,0.803-29.157,14.179-29.157,30.611v93.376
		c0,3.057-1.524,5.913-4.063,7.615l-0.185,0.124c-6.091,4.082-14.272-0.283-14.272-7.615v-91.607c0-1.441-0.107-2.856-0.272-4.253
		c0.161-1.273,0.272-2.561,0.272-3.878V302.204c0-16.431-12.925-29.808-29.157-30.611c-16.232,0.803-29.157,14.179-29.157,30.611
		v183.797h-18.287v-221.3c0-16.431-12.925-29.808-29.157-30.611c-16.232,0.803-29.157,14.179-29.157,30.611v221.3h-18.287V302.204
		c0-16.431-12.924-29.808-29.157-30.611c-16.232,0.803-29.157,14.179-29.157,30.611v183.797h-18.613V365.959
		c0-16.432-12.924-29.808-29.157-30.611c-16.232,0.803-29.157,14.179-29.157,30.611v156.465v29.372v124.967
		c0,49.671,40.563,89.779,90.23,89.218l161.432-1.821c1.805,0,3.585-0.033,5.339-0.098c60.804-2.256,108.277-53.641,108.277-114.487
		V520.531z"/>
</g>
</svg>
