<?xml version="1.0" encoding="utf-8"?>
<!-- Generator: Adobe Illustrator 17.1.0, SVG Export Plug-In . SVG Version: 6.00 Build 0)  -->
<!DOCTYPE svg PUBLIC "-//W3C//DTD SVG 1.1//EN" "http://www.w3.org/Graphics/SVG/1.1/DTD/svg11.dtd">
<svg version="1.1" id="Layer_1" xmlns="http://www.w3.org/2000/svg" xmlns:xlink="http://www.w3.org/1999/xlink" x="0px" y="0px"
	 viewBox="0 0 1440 1000" enable-background="new 0 0 1440 1000" xml:space="preserve">
<g>
	<path fill="#282828" d="M684.768,735.419c-15.34,0-30.76-0.645-46.261-1.958c-15.501-1.297-30.1-3.094-43.796-5.382
		c-13.712-2.28-26.023-4.898-36.964-7.831c-6.81-1.828-12.768-3.722-17.87-5.679c-5.071-1.945-8.314-6.825-8.314-12.256v-40.637
		c0-8.886,8.655-15.075,17.128-12.399c6.2,1.958,12.891,3.916,20.077,5.873c14.357,3.916,31.646,7.267,51.885,10.039
		c20.222,2.771,40.444,4.157,60.683,4.157h3.432V529.37c-19.255-3.263-38.108-7.348-56.541-12.238
		c-18.434-4.898-34.917-12.069-49.436-21.535c-14.518-9.458-26.184-21.697-34.982-36.706c-8.814-15.01-13.229-34.096-13.229-57.267
		c0-19.247,3.835-36.706,11.505-52.368s18.272-29.205,31.824-40.63c13.535-11.416,29.761-20.714,48.694-27.9
		c18.917-7.17,39.639-11.9,62.165-14.188v-37.782c0-7.246,5.874-13.12,13.12-13.12h38.358c7.246,0,13.12,5.874,13.12,13.12v36.307
		c26.748,1.313,51.466,3.916,74.153,7.831c19.016,3.284,36.604,7.379,52.754,12.27c5.505,1.667,9.154,6.83,9.154,12.582v40.97
		c0,8.715-8.283,14.889-16.685,12.574c-15.294-4.214-30.944-7.993-46.931-11.341c-21.866-4.56-46.02-7.501-72.445-8.806v138.51
		c19.578,3.593,38.914,7.912,58.008,12.971c19.078,5.06,36.206,12.238,51.385,21.535c15.179,9.297,27.409,21.374,36.706,36.215
		c9.297,14.856,13.954,33.862,13.954,57.025c0,18.595-3.754,35.481-11.263,50.652c-7.509,15.179-18.272,28.392-32.307,39.647
		s-30.825,20.561-50.402,27.9s-41.604,12.649-66.081,15.904v39.739c0,7.246-5.874,13.12-13.12,13.12h-38.358
		c-7.246,0-13.12-5.874-13.12-13.12V735.419z M607.425,398.684c0,17.298,6.284,30.591,18.853,39.888
		c12.552,9.305,32.049,16.403,58.491,21.294V333.103C633.206,339.629,607.425,361.486,607.425,398.684z M832.575,597.884
		c0-9.458-1.966-17.37-5.881-23.735s-9.539-11.819-16.887-16.395c-7.332-4.568-16.065-8.395-26.184-11.505
		c-10.119-3.094-21.527-5.785-34.257-8.073V664.94c11.424-1.958,22.188-4.56,32.307-7.831c10.103-3.255,18.917-7.581,26.426-12.971
		c7.509-5.382,13.455-11.819,17.87-19.328C830.368,617.309,832.575,608.334,832.575,597.884z"/>
</g>
</svg>
