<?xml version="1.0" encoding="utf-8"?>
<!-- Generator: Adobe Illustrator 17.1.0, SVG Export Plug-In . SVG Version: 6.00 Build 0)  -->
<!DOCTYPE svg PUBLIC "-//W3C//DTD SVG 1.1//EN" "http://www.w3.org/Graphics/SVG/1.1/DTD/svg11.dtd">
<svg version="1.1" id="Layer_1" xmlns="http://www.w3.org/2000/svg" xmlns:xlink="http://www.w3.org/1999/xlink" x="0px" y="0px"
	 viewBox="0 0 1440 1000" enable-background="new 0 0 1440 1000" xml:space="preserve">
<g>
	<path fill="#99CC33" d="M1030.323,638.093L779.363,278.945c-28.825-41.252-89.9-41.252-118.725,0L409.676,638.093
		c-33.543,48.003,0.801,113.9,59.363,113.9h501.922C1029.522,751.993,1063.867,686.096,1030.323,638.093z M760.01,355.644
		l-11.072,227.98h-57.374l-11.575-227.98H760.01z M720.251,700.386c-27.177,0-45.294-19.627-45.294-45.797
		c0-26.676,18.62-45.801,45.294-45.801c26.672,0,44.287,19.125,44.792,45.801C765.043,680.758,747.428,700.386,720.251,700.386z"/>
</g>
</svg>
