<?xml version="1.0" encoding="utf-8"?>
<!-- Generator: Adobe Illustrator 17.1.0, SVG Export Plug-In . SVG Version: 6.00 Build 0)  -->
<!DOCTYPE svg PUBLIC "-//W3C//DTD SVG 1.1//EN" "http://www.w3.org/Graphics/SVG/1.1/DTD/svg11.dtd">
<svg version="1.1" id="Layer_1" xmlns="http://www.w3.org/2000/svg" xmlns:xlink="http://www.w3.org/1999/xlink" x="0px" y="0px"
	 viewBox="0 0 1440 1000" enable-background="new 0 0 1440 1000" xml:space="preserve">
<g>
	<g>
		<polygon fill="#99CC33" points="393.824,616.273 624.468,393.071 634.66,383.207 649.821,391.307 768.535,454.732 
			729.781,459.057 918.767,254.219 978.788,314.24 773.95,503.226 754.124,521.519 735.19,507.552 626.876,427.653 652.223,425.89 
					"/>
		<g>
			<polygon fill="#99CC33" points="996.652,371.708 1046.176,186.831 861.299,236.355 			"/>
		</g>
	</g>
	<g>
		<polygon fill="#99CC33" points="403.006,813.169 483.641,813.169 483.641,599.72 403.006,659.131 		"/>
		<polygon fill="#99CC33" points="536.364,813.169 616.999,813.169 616.999,501.464 536.364,560.875 		"/>
		<polygon fill="#99CC33" points="669.722,508.88 669.722,813.169 750.356,813.169 750.356,568.361 735.19,557.174 		"/>
		<polygon fill="#99CC33" points="803.08,813.169 883.715,813.169 883.715,451.577 803.08,525.972 		"/>
		<polygon fill="#99CC33" points="958.189,382.867 936.437,402.935 936.437,813.169 1017.073,813.169 1017.073,441.395 		"/>
	</g>
</g>
</svg>
