<?xml version="1.0" encoding="utf-8"?>
<!-- Generator: Adobe Illustrator 17.1.0, SVG Export Plug-In . SVG Version: 6.00 Build 0)  -->
<!DOCTYPE svg PUBLIC "-//W3C//DTD SVG 1.1//EN" "http://www.w3.org/Graphics/SVG/1.1/DTD/svg11.dtd">
<svg version="1.1" id="Layer_1" xmlns="http://www.w3.org/2000/svg" xmlns:xlink="http://www.w3.org/1999/xlink" x="0px" y="0px"
	 viewBox="0 0 1200 1200" enable-background="new 0 0 1200 1200" xml:space="preserve">
<g>
	<path fill="#FFFFFF" d="M956.382,415.972c-6.88,5.504-13.862,10.845-20.84,16.192c-7.002,5.309-14.01,10.609-21.067,15.829
		c-7.029,5.265-14.129,10.417-21.204,15.609c-7.081,5.182-14.219,10.272-21.326,15.413l-21.437,15.236
		c-7.145,5.08-14.359,10.048-21.535,15.078c-7.17,5.039-14.399,9.984-21.621,14.94c-7.229,4.945-14.421,9.949-21.695,14.822
		l-21.772,14.698l-21.866,14.547c-7.301,4.83-14.567,9.714-21.916,14.468l-21.993,14.345c-7.319,4.8-14.687,9.522-22.045,14.26
		l-22.118,14.143l-22.18,14.044l-22.24,13.947l-9.519,5.97l-9.531-5.97l-22.248-13.935l-22.185-14.036l-22.122-14.137
		c-7.352-4.748-14.734-9.448-22.051-14.252l-21.991-14.348c-7.346-4.758-14.628-9.618-21.921-14.46l-21.87-14.541l-21.769-14.704
		c-7.272-4.876-14.474-9.864-21.697-14.819c-7.217-4.964-14.454-9.897-21.622-14.939c-7.176-5.03-14.384-10.008-21.534-15.08
		l-21.434-15.24l-21.322-15.419c-7.072-5.198-14.173-10.348-21.199-15.617c-7.055-5.224-14.061-10.526-21.061-15.839
		c-6.975-5.353-13.955-10.696-20.832-16.206c7.973,3.752,15.842,7.672,23.716,11.582c7.85,3.95,15.693,7.91,23.487,11.949
		c7.823,3.993,15.571,8.106,23.349,12.171l23.225,12.369l23.114,12.548c7.699,4.191,15.341,8.475,23.014,12.708
		c7.681,4.22,15.294,8.55,22.926,12.848c7.626,4.308,15.274,8.582,22.851,12.969l22.779,13.084l22.678,13.246
		c7.556,4.421,15.124,8.823,22.627,13.328l22.557,13.44c7.532,4.459,15,9.022,22.497,13.536l22.426,13.651l22.363,13.752
		l22.299,13.853h-19.05l22.307-13.84l22.367-13.744l22.429-13.645c7.491-4.524,14.972-9.065,22.502-13.528l22.555-13.443
		c7.501-4.508,15.084-8.886,22.632-13.319l22.682-13.24l22.776-13.089c7.575-4.39,15.232-8.649,22.853-12.966
		c7.627-4.307,15.248-8.624,22.926-12.848c7.673-4.233,15.308-8.527,23.012-12.71l23.111-12.552
		c7.742-4.122,15.453-8.294,23.221-12.375c7.774-4.071,15.523-8.181,23.344-12.179c7.792-4.042,15.634-8.005,23.481-11.959
		C940.546,423.652,948.413,419.731,956.382,415.972z"/>
	<path fill="#FFFFFF" d="M956.382,540.487c-6.88,5.504-13.862,10.845-20.84,16.192c-7.002,5.309-14.01,10.609-21.067,15.829
		c-7.029,5.265-14.129,10.417-21.204,15.609c-7.081,5.182-14.219,10.272-21.326,15.413l-21.437,15.236
		c-7.145,5.08-14.359,10.048-21.535,15.078c-7.17,5.039-14.399,9.984-21.621,14.94c-7.229,4.945-14.421,9.949-21.695,14.822
		l-21.772,14.698l-21.866,14.547c-7.301,4.83-14.567,9.714-21.916,14.468l-21.993,14.345c-7.319,4.8-14.687,9.522-22.045,14.26
		l-22.118,14.143l-22.18,14.044l-22.24,13.947l-9.519,5.97l-9.531-5.97l-22.248-13.935l-22.185-14.036l-22.122-14.137
		c-7.352-4.748-14.734-9.448-22.051-14.252l-21.991-14.348c-7.346-4.758-14.628-9.618-21.921-14.46l-21.87-14.541l-21.769-14.704
		c-7.272-4.876-14.474-9.864-21.697-14.819c-7.217-4.964-14.454-9.897-21.622-14.939c-7.176-5.03-14.384-10.008-21.534-15.08
		l-21.434-15.24l-21.322-15.419c-7.072-5.198-14.173-10.348-21.199-15.617c-7.055-5.224-14.061-10.526-21.061-15.839
		c-6.975-5.353-13.955-10.696-20.832-16.206c7.973,3.752,15.842,7.672,23.716,11.582c7.85,3.95,15.693,7.91,23.487,11.949
		c7.823,3.993,15.571,8.106,23.349,12.171l23.225,12.369l23.114,12.548c7.699,4.191,15.341,8.475,23.014,12.708
		c7.681,4.22,15.294,8.55,22.926,12.848c7.626,4.308,15.274,8.582,22.851,12.969l22.779,13.084l22.678,13.246
		c7.556,4.421,15.124,8.823,22.627,13.328l22.557,13.44c7.532,4.459,15,9.022,22.497,13.536l22.426,13.651l22.363,13.752
		l22.299,13.853h-19.05l22.307-13.84l22.367-13.744l22.429-13.645c7.491-4.524,14.972-9.065,22.502-13.528l22.555-13.443
		c7.501-4.508,15.084-8.886,22.632-13.319l22.682-13.24l22.776-13.089c7.575-4.39,15.232-8.649,22.853-12.966
		c7.627-4.307,15.248-8.624,22.926-12.848c7.673-4.233,15.308-8.527,23.012-12.71l23.111-12.552
		c7.742-4.122,15.453-8.294,23.221-12.375c7.774-4.071,15.523-8.181,23.344-12.179c7.792-4.042,15.634-8.005,23.481-11.959
		C940.546,548.167,948.413,544.246,956.382,540.487z"/>
</g>
</svg>
