<?xml version="1.0" encoding="utf-8"?>
<!-- Generator: Adobe Illustrator 17.1.0, SVG Export Plug-In . SVG Version: 6.00 Build 0)  -->
<!DOCTYPE svg PUBLIC "-//W3C//DTD SVG 1.1//EN" "http://www.w3.org/Graphics/SVG/1.1/DTD/svg11.dtd">
<svg version="1.1" id="Layer_1" xmlns="http://www.w3.org/2000/svg" xmlns:xlink="http://www.w3.org/1999/xlink" x="0px" y="0px"
	 viewBox="0 0 1440 1000" enable-background="new 0 0 1440 1000" xml:space="preserve">
<g>
	<path fill="#99CC33" d="M1114.907,180.103H325.092c-14.433,0-26.133,11.7-26.133,26.133v454.173
		c0,14.433,11.7,26.133,26.133,26.133h343.462v90.032H546.71v43.322h346.58v-43.322H771.446v-90.032h343.462
		c14.433,0,26.133-11.7,26.133-26.133V206.236C1141.041,191.803,1129.34,180.103,1114.907,180.103z M1079.005,631.192h-718.01
		v-396.38h718.01V631.192z"/>
	<path fill="#99CC33" d="M962.779,327.556c-4.667-33.645-33.89-59.446-67.854-59.93c-39.13-0.557-70.165,30.639-70.806,68.43
		c-0.03,1.771-0.015,3.551,0.09,5.347c0.106,1.797,0.3,3.566,0.538,5.321c0.777,58.319-42.205,107.826-99.574,115.799
		c-0.212,0.029-0.422,0.067-0.633,0.099c-0.152-0.01-0.298-0.04-0.451-0.049c-1.16-0.068-2.306-0.075-3.452-0.075
		c-0.212-0.004-0.424-0.012-0.637-0.014c-0.213,0.002-0.424,0.01-0.637,0.014c-1.145,0-2.292,0.007-3.451,0.075
		c-0.153,0.009-0.299,0.039-0.451,0.049c-0.211-0.032-0.421-0.069-0.634-0.099c-57.369-7.973-100.351-57.48-99.574-115.799
		c0.238-1.755,0.432-3.524,0.538-5.321c0.106-1.797,0.12-3.577,0.09-5.347c-0.641-37.79-31.675-68.986-70.805-68.43
		c-33.964,0.483-63.188,26.283-67.855,59.929c-5.291,38.14,20.842,72.218,57.2,78.424c2.524,0.431,5.094,0.74,7.71,0.894
		c2.616,0.154,5.204,0.149,7.761,0.017c57.132,7.175,100.291,55.588,101.014,113.102c0.012,1.004,0.044,2.005,0.03,3.014
		c-0.22,1.663-0.409,3.335-0.509,5.035c-0.007,0.108,0.001,0.213-0.005,0.321c-0.007,0.106-0.026,0.209-0.033,0.315
		c-0.097,1.659-0.108,3.301-0.087,4.936c-0.109,1.03-0.264,2.046-0.401,3.067c1.912,32.677,26.34,59.885,58.744,65.139
		c0.632-0.002,1.259-0.028,1.892-0.02c0.326,0.044,0.661,0.059,0.987,0.1c0.516,0.063,1.036,0.106,1.555,0.157
		c0.926,0.097,1.841,0.226,2.78,0.281c0.701,0.041,1.39,0.019,2.087,0.035c0.285,0.008,0.562,0.05,0.847,0.055
		c0.4,0.007,0.806-0.022,1.206-0.02c0.401-0.002,0.807,0.027,1.206,0.02c0.286-0.005,0.563-0.047,0.848-0.055
		c0.696-0.016,1.385,0.006,2.087-0.035c0.939-0.055,1.854-0.184,2.78-0.281c0.518-0.051,1.038-0.094,1.554-0.157
		c0.327-0.041,0.662-0.056,0.988-0.1c0.634-0.008,1.26,0.018,1.892,0.02c32.403-5.254,56.832-32.462,58.744-65.139
		c-0.137-1.021-0.292-2.037-0.401-3.067c0.02-1.635,0.011-3.278-0.088-4.936c-0.006-0.106-0.025-0.208-0.032-0.315
		c-0.005-0.108,0.001-0.213-0.005-0.321c-0.1-1.7-0.288-3.372-0.509-5.035c-0.013-1.01,0.019-2.01,0.031-3.014
		c0.723-57.514,43.883-105.928,101.014-113.102c2.557,0.132,5.145,0.137,7.761-0.017c2.616-0.154,5.185-0.463,7.709-0.894
		C941.936,399.773,968.07,365.696,962.779,327.556z M590.061,332.408c3.169,30.409-24.011,54.569-53.839,47.858
		c-18.063-4.064-31.909-19.64-33.828-38.054c-3.171-30.411,24.011-54.573,53.841-47.86
		C574.297,298.416,588.142,313.992,590.061,332.408z M742.32,570.5c-1.151,0.679-2.335,1.307-3.549,1.88
		c-0.171,0.08-0.348,0.148-0.52,0.226c-1.092,0.499-2.203,0.963-3.339,1.373c-0.356,0.127-0.723,0.229-1.083,0.347
		c-0.971,0.322-1.948,0.631-2.946,0.886c-0.572,0.145-1.159,0.249-1.74,0.371c-0.818,0.174-1.634,0.354-2.466,0.482
		c-0.75,0.114-1.517,0.174-2.279,0.25c-0.709,0.071-1.412,0.161-2.13,0.198c-0.762,0.039-1.512,0.019-2.267,0.019
		s-1.505,0.02-2.267-0.019c-0.717-0.037-1.421-0.127-2.129-0.198c-0.763-0.076-1.53-0.136-2.28-0.25
		c-0.833-0.128-1.649-0.308-2.466-0.482c-0.581-0.122-1.168-0.227-1.739-0.371c-0.999-0.255-1.976-0.564-2.947-0.886
		c-0.36-0.118-0.728-0.22-1.083-0.347c-1.136-0.41-2.248-0.874-3.34-1.373c-0.171-0.078-0.349-0.146-0.519-0.226
		c-1.214-0.574-2.398-1.202-3.55-1.88c-0.044-0.026-0.091-0.049-0.135-0.075c-12.157-7.223-20.63-20.153-21.524-35.332
		c-0.892-15.153,5.983-28.964,17.174-37.567c0.036-0.028,0.07-0.058,0.106-0.086c1.023-0.781,2.09-1.508,3.182-2.199
		c0.128-0.081,0.25-0.171,0.379-0.25c1.029-0.637,2.097-1.217,3.182-1.77c0.202-0.103,0.396-0.218,0.599-0.318
		c1.049-0.514,2.132-0.97,3.227-1.401c0.252-0.099,0.497-0.214,0.751-0.309c1.087-0.405,2.204-0.748,3.33-1.069
		c0.277-0.079,0.546-0.175,0.825-0.248c1.106-0.291,2.239-0.515,3.379-0.721c0.323-0.058,0.64-0.137,0.965-0.188
		c1.042-0.164,2.107-0.258,3.174-0.348c0.458-0.038,0.908-0.104,1.37-0.127c0.786-0.042,1.558-0.018,2.336-0.019
		c0.778,0.001,1.551-0.023,2.336,0.019c0.461,0.024,0.912,0.089,1.37,0.127c1.066,0.091,2.132,0.184,3.174,0.348
		c0.325,0.051,0.642,0.13,0.965,0.188c1.14,0.206,2.273,0.43,3.379,0.721c0.279,0.073,0.548,0.169,0.825,0.248
		c1.127,0.32,2.244,0.664,3.33,1.069c0.255,0.095,0.499,0.21,0.751,0.309c1.095,0.432,2.178,0.887,3.227,1.401
		c0.204,0.1,0.398,0.215,0.6,0.318c1.085,0.553,2.153,1.133,3.182,1.77c0.129,0.08,0.251,0.169,0.379,0.25
		c1.092,0.692,2.16,1.418,3.182,2.199c0.036,0.027,0.069,0.057,0.104,0.084c11.191,8.602,18.067,22.414,17.175,37.568
		c-0.894,15.179-9.367,28.109-21.523,35.332C742.411,570.452,742.365,570.474,742.32,570.5z M903.781,380.265
		c-29.828,6.713-57.01-17.447-53.841-47.857c1.919-18.415,15.764-33.991,33.827-38.057c29.829-6.713,57.01,17.447,53.841,47.857
		C935.689,360.623,921.844,376.2,903.781,380.265z"/>
</g>
</svg>
